<?xml version="1.0" standalone="no"?>
<!DOCTYPE svg PUBLIC "-//W3C//DTD SVG 1.1//EN" "http://www.w3.org/Graphics/SVG/1.1/DTD/svg11.dtd" >
<svg xmlns="http://www.w3.org/2000/svg" xmlns:xlink="http://www.w3.org/1999/xlink" version="1.1">
<metadata>
Created by FontForge 20170731 at Fri Jun  4 07:53:23 2021
 By Aleksey,,,
Copyright (C) 2021 GIMPO CITY. All rights reserved.
</metadata>
<defs>
<font id="GimpoGothicBold" horiz-adv-x="920" >
  <font-face 
    font-family="GimpoGothic Bold"
    font-weight="700"
    font-stretch="normal"
    units-per-em="1000"
    panose-1="2 0 8 0 0 0 0 0 0 0"
    ascent="800"
    descent="-200"
    x-height="552"
    cap-height="750"
    bbox="-50 -377 1193 990"
    underline-thickness="50"
    underline-position="-150"
    unicode-range="U+000D-FFE6"
  />
<missing-glyph horiz-adv-x="280" 
 />
    <glyph glyph-name=".notdef" horiz-adv-x="280" 
 />
    <glyph glyph-name=".null" horiz-adv-x="0" 
 />
    <glyph glyph-name=".null" horiz-adv-x="0" 
 />
    <glyph glyph-name="nonmarkingreturn" unicode="&#xd;" horiz-adv-x="280" 
 />
    <glyph glyph-name="cid1" unicode=" " horiz-adv-x="280" 
 />
    <glyph glyph-name="cid1" unicode="&#xa0;" horiz-adv-x="280" 
 />
    <glyph glyph-name="cid2" unicode="!" horiz-adv-x="381" 
d="M270 820v-64l-23 -601h-110l-22 600v65h155zM105 50h168v-154h-168v154z" />
    <glyph glyph-name="cid3" unicode="&#x22;" horiz-adv-x="436" 
d="M90 550l-31 273v41h130v-41l-30 -273h-69zM274 550l-30 273v41h129v-41l-30 -273h-69z" />
    <glyph glyph-name="cid4" unicode="#" horiz-adv-x="810" 
d="M42 298h145l46 192h-140l8 111h158l42 180h126l-42 -180h141l44 180h125l-43 -180h121l-8 -111h-139l-45 -192h134l-8 -110h-153l-49 -208h-125l48 208h-142l-49 -208h-126l49 208h-126zM313 298h142l45 192h-141z" />
    <glyph glyph-name="cid5" unicode="$" horiz-adv-x="670" 
d="M278 -129v118q-66 9 -125 37t-104 76l91 90q29 -40 81.5 -66.5t115.5 -26.5t93 25.5t30 62.5q0 28 -12 49t-33.5 37t-50.5 28.5t-63 23.5l-39 14q-35 13 -67.5 30t-57.5 42t-40 59t-15 81q0 38 14.5 70.5t40 58.5t61.5 44t80 26v110h118v-109q48 -8 100 -30t98 -70
l-81 -86q-36 37 -80.5 58.5t-96.5 21.5q-30 0 -52 -8t-37 -20.5t-22 -29t-7 -32.5q-2 -43 28.5 -69t84.5 -44l44 -16q66 -24 110 -49t70.5 -52.5t37.5 -58t11 -64.5q0 -91 -54 -145.5t-154 -67.5v-118h-118z" />
    <glyph glyph-name="cid6" unicode="%" horiz-adv-x="927" 
d="M413 598q0 -57 -20 -96t-50.5 -63t-66 -34.5t-65.5 -10.5q-31 0 -66.5 10.5t-66 34.5t-50.5 63t-20 96q0 58 20 97t50.5 63t66 34t66.5 10q30 0 65.5 -10t66 -34t50.5 -63t20 -97zM302 -41h-138l457 843h138zM126 598q0 -55 24.5 -79t60.5 -24q34 0 59 24t25 79
q0 57 -24.5 80.5t-59.5 23.5q-36 0 -60.5 -23.5t-24.5 -80.5zM919 164q0 -58 -20 -97t-50.5 -63t-66 -34.5t-66.5 -10.5q-30 0 -65.5 10.5t-66 34.5t-50.5 63t-20 97q0 57 20 96t50.5 63t66 34t65.5 10q31 0 66.5 -10t66 -34t50.5 -63t20 -96zM632 164q0 -57 24.5 -80.5
t59.5 -23.5t60 23.5t25 80.5q0 55 -24.5 79.5t-60.5 24.5q-35 0 -59.5 -24.5t-24.5 -79.5z" />
    <glyph glyph-name="cid7" unicode="&#x26;" horiz-adv-x="820" 
d="M752 329q-8 -15 -21.5 -38.5t-29 -48t-31 -46.5t-27.5 -35q38 -45 78 -67t79 -24l15 -2l-9 -104h-12q-29 0 -55.5 4.5t-52.5 16.5t-54 32t-61 51q-49 -54 -110 -86t-143 -32q-55 0 -106.5 15.5t-91 45.5t-63.5 74t-24 101q0 44 15 80.5t40.5 66t59.5 52t72 38.5
q-42 39 -66.5 87.5t-24.5 96.5q0 50 17 87.5t47.5 62.5t72 37.5t90.5 12.5t90.5 -13.5t72 -39t47.5 -62.5t17 -85q0 -66 -45.5 -116t-120.5 -88l148 -165q10 12 23.5 32.5t27.5 44t26.5 45.5t20.5 37zM356 699q-49 0 -72 -25t-23 -67q0 -30 21.5 -63.5t56.5 -64.5
q51 25 81 59.5t30 68.5q0 42 -22.5 67t-71.5 25zM297 348q-52 -24 -88 -64t-36 -91q0 -31 11.5 -54.5t31 -40t45 -25t54.5 -8.5q60 0 100 24.5t70 61.5z" />
    <glyph glyph-name="cid8" unicode="'" horiz-adv-x="269" 
d="M97 550l-31 273v41h140v-41l-30 -273h-79z" />
    <glyph glyph-name="cid9" unicode="(" horiz-adv-x="507" 
d="M227 365q0 -73 13 -137t38 -123t60.5 -114.5t80.5 -111.5l-108 -72q-111 128 -167 268t-56 290q0 149 56.5 279t166.5 257l108 -72q-45 -56 -80.5 -108t-60.5 -106.5t-38 -115.5t-13 -134z" />
    <glyph glyph-name="cid10" unicode=")" horiz-adv-x="529" 
d="M285 365q0 73 -13 134t-38 115.5t-60.5 106.5t-80.5 108l108 72q110 -127 166.5 -257t56.5 -279q0 -150 -56 -290t-167 -268l-108 72q45 56 80.5 111.5t60.5 114.5t38 123t13 137z" />
    <glyph glyph-name="cid11" unicode="*" horiz-adv-x="516" 
d="M203 879h112l-13 -148l147 56l33 -101l-151 -37l102 -123l-89 -64l-85 140l-85 -144l-91 64l105 127l-153 37l36 101l146 -56z" />
    <glyph glyph-name="cid12" unicode="+" horiz-adv-x="747" 
d="M83 417h219v217h140v-217h222v-122h-222v-220h-140v220h-219v122z" />
    <glyph glyph-name="cid13" unicode="," horiz-adv-x="336" 
d="M73 75h179v-113q0 -42 -14.5 -81t-37.5 -72.5t-52 -60t-57 -41.5l-39 45q19 12 37 30.5t32.5 40t23.5 45t10 47.5h-82v160z" />
    <glyph glyph-name="cid14" unicode="-" horiz-adv-x="564" 
d="M83 421h398v-122h-398v122z" />
    <glyph glyph-name="cid15" unicode="." horiz-adv-x="336" 
d="M74 75h171v-158h-171v158z" />
    <glyph glyph-name="cid16" unicode="/" horiz-adv-x="631" 
d="M10 -185l470 1028h139l-468 -1028h-141z" />
    <glyph glyph-name="cid17" unicode="0" horiz-adv-x="680" 
d="M639 371q0 -204 -75 -302t-223 -98q-149 0 -224.5 98t-75.5 302q0 205 76 303.5t224 98.5q147 0 222.5 -98.5t75.5 -303.5zM197 371q0 -78 10 -131.5t28.5 -86t45.5 -47t60 -14.5t59 14.5t44.5 47t28.5 86t10 131.5q0 79 -10 132.5t-28.5 86.5t-44.5 47.5t-59 14.5
t-60 -14.5t-45.5 -47.5t-28.5 -86.5t-10 -132.5z" />
    <glyph glyph-name="cid18" unicode="1" horiz-adv-x="467" 
d="M202 -21v614l-105 -78l-80 102l219 163h121v-801h-155z" />
    <glyph glyph-name="cid19" unicode="2" horiz-adv-x="680" 
d="M334 773q50 -1 97 -13t83.5 -39t59.5 -72t24 -111q1 -58 -28 -114t-87 -122l-181 -199h310v-124h-518v105q22 22 57 59t74 79.5t76 84t63 72.5q35 45 60 85t25 75q0 60 -33.5 84.5t-86.5 24.5q-23 0 -45.5 -9t-42 -23.5t-35.5 -31.5t-27 -33l-112 78q27 34 55.5 61
t60.5 45.5t69.5 28t81.5 9.5z" />
    <glyph glyph-name="cid20" unicode="3" horiz-adv-x="680" 
d="M316 94q59 0 96.5 30t37.5 87q0 54 -40 84.5t-121 30.5h-73v121h67q75 1 113 30t38 83q0 43 -29.5 68.5t-87.5 25.5q-35 0 -70 -20.5t-65 -57.5l-97 79q55 64 112.5 93.5t135.5 29.5q62 0 110 -16t80.5 -44.5t49.5 -69t17 -88.5q0 -54 -25.5 -96t-72.5 -70h-1
q51 -28 82.5 -74t31.5 -109q0 -61 -22 -106.5t-60.5 -75.5t-91.5 -44.5t-115 -14.5q-33 0 -68 7.5t-67 19.5t-60 27.5t-47 31.5l69 108q45 -34 86 -52t87 -18z" />
    <glyph glyph-name="cid21" unicode="4" horiz-adv-x="680" 
d="M48 146v85l341 549h152v-513h91v-121h-91v-168h-149v168h-344zM229 267h163v272z" />
    <glyph glyph-name="cid22" unicode="5" horiz-adv-x="680" 
d="M312 -30q-60 0 -124 17.5t-122 53.5l54 120q51 -32 100.5 -49.5t91.5 -17.5q30 0 56 9.5t45.5 27.5t31 44.5t11.5 60.5q0 72 -35 107t-89 35q-40 0 -78.5 -18t-65.5 -51l-113 62l37 396h446v-123h-315l-16 -172q23 14 53.5 21.5t59.5 7.5q63 0 113.5 -18t86 -52t54.5 -83
t19 -112q0 -61 -22 -110.5t-62 -84t-95 -53t-122 -18.5z" />
    <glyph glyph-name="cid23" unicode="6" horiz-adv-x="680" 
d="M366 656q-22 0 -48 -10.5t-49 -35t-40 -64.5t-20 -99q35 24 78 38.5t88 14.5q66 0 113.5 -21.5t79 -57.5t46.5 -84t15 -101q0 -62 -21 -111.5t-57.5 -84t-87 -52.5t-110.5 -18q-150 0 -226 101.5t-76 302.5q0 101 25.5 176.5t68.5 126t99.5 76t118.5 25.5q73 0 134 -26
t115 -97l-103 -76q-22 25 -40 40t-34.5 23t-33 11t-35.5 3zM360 376q-22 0 -43 -7t-40.5 -19t-36.5 -26.5t-30 -29.5h1q2 -34 11 -70t26 -65.5t43 -48.5t62 -19q54 0 86.5 36t32.5 112q0 62 -30 99.5t-82 37.5z" />
    <glyph glyph-name="cid24" unicode="7" horiz-adv-x="680" 
d="M155 -21l267 665h-341v123h518v-106l-276 -682h-168z" />
    <glyph glyph-name="cid25" unicode="8" horiz-adv-x="680" 
d="M57 212q0 58 31 106.5t83 82.5q-46 32 -66.5 71t-20.5 93q0 48 18.5 87.5t52 67t80.5 42.5t104 15t104 -15t81 -42.5t52.5 -67t18.5 -87.5q0 -55 -25 -93t-75 -73h-1q63 -30 95.5 -72t32.5 -114q0 -57 -20.5 -102.5t-57.5 -78t-89 -49.5t-116 -17t-116 17t-89 49
t-57 77.5t-20 102.5zM376 450q35 26 52.5 51.5t17.5 62.5q0 41 -26 66t-81 25q-53 0 -79 -25.5t-26 -63.5q0 -36 21.5 -58t78.5 -44zM473 212q0 20 -9.5 36t-24.5 28t-33.5 21.5t-35.5 16.5l-80 26q-39 -25 -61.5 -53.5t-22.5 -74.5q0 -59 36 -92t97 -33t97.5 33t36.5 92z
" />
    <glyph glyph-name="cid26" unicode="9" horiz-adv-x="680" 
d="M312 92q22 0 47.5 10.5t48.5 35.5t39.5 65t21.5 99q-35 -25 -78.5 -39t-86.5 -14q-66 0 -114 21t-78.5 57t-45.5 84t-15 101q0 62 20.5 111.5t57 84t87 52.5t110.5 18q150 0 226.5 -101t76.5 -304q0 -100 -26 -175.5t-69 -126t-100 -76t-118 -25.5q-36 0 -69.5 6
t-64.5 20t-59.5 37.5t-55.5 58.5l102 77q21 -24 39.5 -39.5t35.5 -23.5t33.5 -11t34.5 -3zM320 372q21 0 42 7.5t40.5 19t36.5 26t29 29.5h-1q-2 34 -10.5 70.5t-25.5 65.5t-43 48t-62 19q-55 0 -87.5 -36t-32.5 -111q0 -62 30 -100t84 -38z" />
    <glyph glyph-name="cid27" unicode=":" horiz-adv-x="372" 
d="M98 647h170v-155h-170v155zM98 229h170v-154h-170v154z" />
    <glyph glyph-name="cid28" unicode=";" horiz-adv-x="372" 
d="M98 647h170v-155h-170v155zM97 229h171v-109q0 -21 -1.5 -45t-6.5 -42q-13 -45 -43.5 -86t-76.5 -68l-38 39q12 9 27 25.5t28.5 38t23.5 45.5t10 48h-94v154z" />
    <glyph glyph-name="cid29" unicode="&#x3c;" horiz-adv-x="667" 
d="M595 124l-79 -115l-446 297v104l446 299l75 -118l-352 -233z" />
    <glyph glyph-name="cid30" unicode="=" horiz-adv-x="677" 
d="M111 540h455v-114h-455v114zM111 283h455v-113h-455v113z" />
    <glyph glyph-name="cid31" unicode="&#x3e;" horiz-adv-x="667" 
d="M416 358l-352 233l75 118l446 -299v-104l-446 -297l-79 115z" />
    <glyph glyph-name="cid32" unicode="?" horiz-adv-x="641" 
d="M234 154v136q0 48 13.5 80.5t43.5 55.5q28 21 52 38.5t41.5 36t27.5 40t10 49.5q0 54 -31.5 84t-95.5 30q-44 0 -78.5 -19t-70.5 -67l-100 85q51 69 114 102t135 33q76 0 129 -20t86 -54t47.5 -79t14.5 -95q0 -43 -11 -72.5t-30 -52.5t-45.5 -43t-56.5 -43
q-18 -14 -30.5 -26t-21 -26t-12 -31.5t-3.5 -42.5v-99h-128zM212 50h168v-154h-168v154z" />
    <glyph glyph-name="cid33" unicode="@" horiz-adv-x="980" 
d="M708 -42q-43 -18 -95 -27t-102 -9q-95 0 -179.5 29t-147.5 83.5t-100 132t-37 174.5q0 100 37 183t100 143t147.5 93.5t179.5 33.5t173 -26.5t133.5 -75.5t85.5 -117t30 -151q0 -47 -11.5 -96t-37 -90t-66.5 -67t-101 -26q-42 0 -77.5 17.5t-56.5 45.5
q-28 -30 -62.5 -46.5t-80.5 -16.5q-38 0 -67.5 13t-50.5 36t-32 54t-11 67q0 56 19 103.5t53.5 82.5t83 55t107.5 20q35 0 67 -8.5t68 -25.5q-6 -41 -10.5 -71.5t-7 -54t-4 -42.5t-1.5 -35q0 -47 19.5 -73t48.5 -26q17 0 35 13.5t33 37.5t24.5 57.5t9.5 74.5q0 61 -18 112
t-56.5 87t-97.5 56t-141 20q-81 0 -146 -26.5t-111 -74t-71 -113t-25 -143.5t25 -138.5t71 -101.5t111 -62t146 -21q44 0 82.5 7t83.5 21zM398 329q0 -43 16.5 -66t42.5 -23q33 0 56 35.5t32 92.5l19 113q-15 3 -31 3q-30 0 -54.5 -12t-42.5 -32.5t-28 -49t-10 -61.5z" />
    <glyph glyph-name="cid34" unicode="A" horiz-adv-x="756" 
d="M163 -21h-156l299 786h144l298 -786h-155l-69 191h-293zM378 572l-105 -285h209z" />
    <glyph glyph-name="cid35" unicode="B" horiz-adv-x="705" 
d="M379 -31q-81 0 -152 10t-142 29v729q60 14 123.5 24t139.5 10q141 0 208.5 -54t67.5 -163q0 -51 -22.5 -90t-62.5 -63h-1q60 -23 92.5 -77.5t32.5 -121.5q0 -118 -73.5 -175.5t-210.5 -57.5zM346 655q-32 0 -57.5 -4t-53.5 -10v-192h111q36 0 60.5 8.5t39.5 22.5
t21.5 32.5t6.5 39.5q0 22 -6.5 41t-21.5 32.5t-39.5 21.5t-60.5 8zM235 339v-238q35 -8 66.5 -11.5t69.5 -3.5q70 0 106 32t36 92q0 25 -9 48.5t-27 41.5t-44.5 28.5t-61.5 10.5h-136z" />
    <glyph glyph-name="cid36" unicode="C" horiz-adv-x="734" 
d="M428 651q-39 0 -79.5 -12t-73.5 -43.5t-54 -85.5t-21 -137q0 -84 20 -138.5t52 -86t73 -44t83 -12.5q31 0 57.5 3.5t52.5 11t52.5 20.5t57.5 31l64 -108q-30 -18 -60 -33t-64 -25t-73 -15.5t-86 -5.5q-68 0 -136.5 19t-123 64.5t-89 122.5t-34.5 194q0 116 34.5 193
t89 123t122.5 65t136 19q46 0 83.5 -5.5t70.5 -18t63 -33t59 -49.5l-95 -87q-35 41 -81 57t-100 16z" />
    <glyph glyph-name="cid37" unicode="D" horiz-adv-x="765" 
d="M352 -31q-28 0 -62 2.5t-69.5 8t-70.5 12.5t-65 16v728q65 19 133 27t134 8q179 0 272.5 -95t93.5 -302t-94 -306t-272 -99zM340 655q-26 0 -52.5 -4t-51.5 -10v-540q23 -7 51.5 -11t52.5 -4q58 0 101 15.5t71 50t42 89.5t14 133t-14 131.5t-42 86.5t-71 48t-101 15z" />
    <glyph glyph-name="cid38" unicode="E" horiz-adv-x="672" 
d="M85 -21v785h522v-116h-371v-202h335v-114h-335v-236h384v-117h-535z" />
    <glyph glyph-name="cid39" unicode="F" horiz-adv-x="647" 
d="M85 -21v785h520v-116h-369v-212h331v-115h-331v-342h-151z" />
    <glyph glyph-name="cid40" unicode="G" horiz-adv-x="815" 
d="M460 771q52 0 91.5 -7.5t70.5 -20.5t55.5 -31t47.5 -39l-82 -89q-40 38 -81 54.5t-102 16.5q-51 0 -98.5 -15t-83.5 -48.5t-58 -88t-22 -132.5q0 -73 22 -126.5t60 -89t89 -52.5t108 -17q26 0 51 5t51 13v206h-195v112h346v-401q-34 -14 -64.5 -23.5t-62 -16t-66 -9.5
t-74.5 -3q-74 0 -148.5 21.5t-134 69.5t-97 124.5t-37.5 185.5q0 108 36 184t94.5 124.5t133 70.5t150.5 22z" />
    <glyph glyph-name="cid41" unicode="H" horiz-adv-x="784" 
d="M85 -21v785h151v-321h313v321h150v-785h-150v350h-313v-350h-151z" />
    <glyph glyph-name="cid42" unicode="I" horiz-adv-x="345" 
d="M96 -21v785h153v-785h-153z" />
    <glyph glyph-name="cid43" unicode="J" horiz-adv-x="556" 
d="M77 152q35 -24 71 -41t68 -17q43 0 68 29.5t25 83.5v557h153v-576q0 -52 -18.5 -93t-51.5 -69.5t-78.5 -43.5t-98.5 -15q-54 0 -106 20.5t-96 55.5z" />
    <glyph glyph-name="cid44" unicode="K" horiz-adv-x="737" 
d="M529 764h179l-314 -392q84 -97 172 -196.5t172 -196.5h-188l-313 367v-367h-152v785h152v-367z" />
    <glyph glyph-name="cid45" unicode="L" horiz-adv-x="594" 
d="M85 -21v785h151v-668h339v-117h-490z" />
    <glyph glyph-name="cid46" unicode="M" horiz-adv-x="946" 
d="M236 499v-520h-151v785h134l254 -410q63 103 127 205t127 205h134v-785h-151v520l-237 -378z" />
    <glyph glyph-name="cid47" unicode="N" horiz-adv-x="791" 
d="M236 504v-525h-151v785h127l342 -521v521h151v-785h-127z" />
    <glyph glyph-name="cid48" unicode="O" horiz-adv-x="854" 
d="M417 771q87 0 155.5 -23.5t116 -72.5t72.5 -125.5t25 -181.5q0 -106 -25 -181.5t-72.5 -124t-116 -71t-155.5 -22.5t-155.5 23t-116.5 71.5t-73.5 124t-25.5 181.5q0 105 25.5 181t73.5 125t116.5 72.5t155.5 23.5zM201 369q0 -83 15.5 -137t44 -86.5t68.5 -45.5t88 -13
t87.5 13t68 45.5t44 86.5t15.5 137q0 82 -15.5 136.5t-44 87.5t-68 47t-87.5 14t-88 -14t-68.5 -47t-44 -87.5t-15.5 -136.5z" />
    <glyph glyph-name="cid49" unicode="P" horiz-adv-x="735" 
d="M85 -21v757q63 18 130 26.5t126 8.5q75 0 136 -13t104.5 -44t67.5 -82t24 -127q0 -75 -24 -126t-64.5 -82t-94.5 -44.5t-115 -13.5q-38 0 -70.5 2.5t-68.5 10.5v-273h-151zM342 655q-32 0 -57.5 -4.5t-48.5 -9.5v-271q25 -6 51 -10t55 -4q40 0 73.5 6t57 22t36.5 45
t13 76t-13 76t-36.5 45.5t-57 22.5t-73.5 6z" />
    <glyph glyph-name="cid50" unicode="Q" horiz-adv-x="857" 
d="M417 771q87 0 155.5 -24t116 -73.5t72.5 -126t25 -181.5q0 -138 -37 -219.5t-113 -124.5h1q18 -14 33.5 -25t33 -18.5t39 -11.5t50.5 -4h11l-10 -107h-29q-50 0 -87.5 8.5t-69 24t-59 37.5t-58.5 48q-18 -2 -36 -3.5t-38 -1.5q-87 0 -155.5 22.5t-116.5 70.5t-73.5 123.5
t-25.5 181.5q0 105 25.5 181.5t73.5 126t116.5 73t155.5 23.5zM201 367q0 -83 15.5 -137t44 -85.5t68.5 -44.5t88 -13t87.5 13t68 44.5t44 85.5t15.5 137q0 82 -15.5 137t-44 88.5t-68 47.5t-87.5 14t-88 -14t-68.5 -47.5t-44 -88.5t-15.5 -137z" />
    <glyph glyph-name="cid51" unicode="R" horiz-adv-x="740" 
d="M85 -21v759q63 18 127 26.5t123 8.5q75 0 137 -15t106.5 -46t69.5 -78t25 -111q0 -102 -47 -162t-126 -80l99 -136q19 -26 51 -40t70 -20l-14 -111q-66 2 -120 19t-78 48l-179 230q-46 1 -93 12v-304h-151zM336 657q-29 0 -51.5 -4t-48.5 -10l-2 -243q26 -5 54.5 -9.5
t57.5 -4.5q81 0 128.5 31t47.5 106q0 37 -14 62.5t-38.5 41.5t-59 23t-74.5 7z" />
    <glyph glyph-name="cid52" unicode="S" horiz-adv-x="643" 
d="M316 88q61 0 88.5 29.5t27.5 70.5q0 27 -9.5 46.5t-28.5 34.5t-46 27.5t-63 24.5q-53 18 -94.5 39t-71 49.5t-45 66t-15.5 88.5q0 47 19.5 86t54 67.5t81.5 44.5t102 16q28 0 61 -4.5t67 -16.5t67.5 -34t62.5 -56l-83 -95q-35 41 -80 63t-96 22q-29 0 -49.5 -7.5
t-34 -19.5t-19.5 -28t-6 -33q0 -22 8 -39.5t26 -32.5t46.5 -29t68.5 -29q66 -24 110.5 -50.5t72 -56.5t39 -63.5t11.5 -70.5q0 -111 -71.5 -172.5t-201.5 -61.5q-84 0 -157.5 32t-128.5 95l93 101q14 -22 35 -41t46.5 -33t54.5 -22t58 -8z" />
    <glyph glyph-name="cid53" unicode="T" horiz-adv-x="642" 
d="M245 -21v668h-226v117h603v-117h-225v-668h-152z" />
    <glyph glyph-name="cid54" unicode="U" horiz-adv-x="788" 
d="M85 764h151v-528q0 -72 41 -111t116 -39q77 0 118 37.5t41 106.5v534h151v-519q0 -69 -22 -121t-62.5 -86.5t-97.5 -51.5t-128 -17t-127.5 17t-97 51.5t-62 86.5t-21.5 121v519z" />
    <glyph glyph-name="cid55" unicode="V" horiz-adv-x="725" 
d="M301 -22l-294 786h161l195 -552q49 140 97 276t96 276h161l-294 -786h-122z" />
    <glyph glyph-name="cid56" unicode="W" horiz-adv-x="985" 
d="M492 535l-144 -557h-119l-222 786h155l126 -509l133 520h143l132 -521q32 130 63.5 255t63.5 255h154l-221 -786h-119z" />
    <glyph glyph-name="cid57" unicode="X" horiz-adv-x="712" 
d="M442 372l261 -393h-171l-176 270l-177 -270h-171l261 393q-65 97 -130.5 196t-130.5 196h171l177 -270q44 68 88 135t88 135h171z" />
    <glyph glyph-name="cid58" unicode="Y" horiz-adv-x="692" 
d="M270 -21v353l-263 432h165l174 -297l175 297h163l-264 -431v-354h-150z" />
    <glyph glyph-name="cid59" unicode="Z" horiz-adv-x="647" 
d="M47 -21v99l370 570h-356v116h543v-94l-373 -574h367v-117h-551z" />
    <glyph glyph-name="cid60" unicode="[" horiz-adv-x="530" 
d="M153 -192v1062h266v-120h-130v-821h130v-121h-266z" />
    <glyph glyph-name="cid61" unicode="\" horiz-adv-x="1100" 
d="M66 464h128l-72 277h122l62 -277h122l63 286h116l61 -286h121l63 277h122l-72 -277h131v-99h-157l-96 -367h-104l-79 367h-97l-80 -367h-104l-96 367h-154v99zM521 464h55l-27 127zM368 188l38 177h-78zM728 188l39 177h-77z" />
    <glyph glyph-name="cid62" unicode="]" horiz-adv-x="530" 
d="M113 -192v121h130v821h-130v120h266v-1062h-266z" />
    <glyph glyph-name="cid63" unicode="^" horiz-adv-x="580" 
d="M55 413l186 362h97l187 -362h-144l-91 193l-90 -193h-145z" />
    <glyph glyph-name="cid64" unicode="_" horiz-adv-x="562" 
d="M0 -44h562v-112h-562v112z" />
    <glyph glyph-name="cid65" unicode="`" horiz-adv-x="531" 
d="M8 831h187l114 -242h-106z" />
    <glyph glyph-name="cid66" unicode="a" horiz-adv-x="621" 
d="M412 368q0 19 -6.5 35.5t-20.5 29t-37.5 19.5t-57.5 7q-77 0 -166 -47l-52 102q123 58 234 58q114 0 180.5 -56.5t66.5 -169.5v-367h-106l-22 70q-17 -17 -38.5 -31.5t-45.5 -25t-48.5 -16.5t-47.5 -6q-44 0 -81 14t-65 39t-43.5 60t-15.5 77q0 44 22 81.5t61.5 65
t94 43.5t120.5 17zM184 160q0 -30 23.5 -53.5t63.5 -23.5q21 0 41.5 7.5t39 20t34 28.5t26.5 34v90l-67 -1q-44 -1 -75 -10.5t-50 -23.5t-27.5 -32t-8.5 -36z" />
    <glyph glyph-name="cid67" unicode="b" horiz-adv-x="666" 
d="M71 822h148v-311q55 61 158 61q58 0 104.5 -20.5t79 -59.5t50 -95t17.5 -126q0 -71 -20.5 -127t-59.5 -95t-95 -59.5t-126 -20.5q-29 0 -62 2.5t-67.5 7.5t-67 12t-59.5 16v815zM219 98q25 -6 53.5 -11t52.5 -5q37 0 67 13.5t51 38.5t32 59.5t11 76.5q0 41 -7.5 75.5
t-23.5 59.5t-39.5 39t-55.5 14q-38 0 -77.5 -20.5t-63.5 -65.5v-274z" />
    <glyph glyph-name="cid68" unicode="c" horiz-adv-x="584" 
d="M472 400q-26 27 -57.5 42t-79.5 15q-69 0 -111 -47.5t-42 -140.5q0 -94 43 -139t112 -45q45 0 85 11.5t74 36.5l58 -101q-49 -34 -103.5 -48.5t-114.5 -14.5q-74 0 -129.5 22.5t-92.5 62.5t-55.5 95.5t-18.5 120.5t18.5 120t55.5 95.5t92 63.5t128 23q78 0 133.5 -24.5
t90.5 -66.5z" />
    <glyph glyph-name="cid69" unicode="d" horiz-adv-x="680" 
d="M351 572q58 0 109 -20v270h149v-833h-112l-22 59q-25 -32 -68.5 -55.5t-100.5 -23.5q-61 0 -109.5 22t-82.5 61.5t-52 93t-18 116.5q0 71 25 128.5t67 98t97.5 62t117.5 21.5zM460 429q-25 14 -47.5 21t-58.5 7t-67 -13.5t-53.5 -39t-35 -61.5t-12.5 -81q0 -90 35.5 -135
t86.5 -45q49 0 89.5 28.5t62.5 82.5v236z" />
    <glyph glyph-name="cid70" unicode="e" horiz-adv-x="625" 
d="M307 572q54 0 102.5 -18t85 -55.5t58 -95.5t21.5 -137q0 -8 -1.5 -24t-3.5 -25h-391q4 -28 15 -52.5t30 -42.5t47.5 -28.5t68.5 -10.5q41 0 77 12.5t76 42.5l56 -99q-48 -36 -101.5 -53t-119.5 -17q-58 0 -111 16.5t-93 52.5t-64 92.5t-24 135.5t23.5 137t62 95.5
t87 55.5t99.5 18zM307 458q-29 0 -51 -10.5t-38 -29t-25.5 -43.5t-14.5 -53h256q-5 64 -38.5 100t-88.5 36z" />
    <glyph glyph-name="cid71" unicode="f" horiz-adv-x="458" 
d="M130 -21v461h-108v112h108v73q0 58 19 97.5t49.5 64.5t68.5 36t76 11q45 0 78.5 -8t66.5 -27l-56 -100q-15 11 -34.5 15.5t-38.5 4.5q-38 0 -60.5 -19t-22.5 -64v-84h151v-112h-151v-461h-146z" />
    <glyph glyph-name="cid72" unicode="g" horiz-adv-x="656" 
d="M335 574q61 0 123.5 -10.5t125.5 -26.5v-533q0 -67 -20.5 -118t-57.5 -85.5t-89 -52t-116 -17.5q-54 0 -111.5 14.5t-106.5 48.5l59 102q32 -23 70.5 -36t87.5 -13q72 0 105 37t33 121v34q-30 -32 -66.5 -46.5t-84.5 -14.5q-62 0 -108.5 24t-78.5 63.5t-48 92t-16 109.5
q0 72 20.5 129t59 96.5t94 60.5t125.5 21zM438 447q-25 6 -50.5 11t-51.5 5q-34 0 -63.5 -14t-51 -39.5t-33.5 -61.5t-12 -80q0 -87 35 -132.5t89 -45.5q46 0 81 25.5t57 65.5v266z" />
    <glyph glyph-name="cid73" unicode="h" horiz-adv-x="645" 
d="M71 821h149v-340q37 37 84.5 64t101.5 27q33 0 64.5 -11t55.5 -33t39 -55.5t15 -79.5v-414h-148v417q0 28 -18 44.5t-40 16.5q-17 0 -38.5 -11.5t-42.5 -30t-40.5 -41t-32.5 -44.5v-351h-149v842z" />
    <glyph glyph-name="cid74" unicode="i" horiz-adv-x="309" 
d="M70 821h168v-154h-168v154zM82 -21v573h149v-573h-149z" />
    <glyph glyph-name="cid75" unicode="j" horiz-adv-x="318" 
d="M76 821h168v-154h-168v154zM-50 -140q38 8 64.5 18t42.5 24t23 33.5t7 45.5v571h149v-574q0 -42 -15 -80t-45.5 -68t-78 -50.5t-111.5 -28.5z" />
    <glyph glyph-name="cid76" unicode="k" horiz-adv-x="639" 
d="M71 -21v843h148v-531l226 291h168l-234 -294l268 -309h-178l-250 287v-287h-148z" />
    <glyph glyph-name="cid77" unicode="l" horiz-adv-x="303" 
d="M77 822h149v-633q0 -28 4 -56t10.5 -53.5t14 -47t13.5 -35.5l-134 -42q-8 15 -18 36t-18.5 49.5t-14.5 65.5t-6 85v631z" />
    <glyph glyph-name="cid78" unicode="m" horiz-adv-x="955" 
d="M71 552h106l29 -78q21 22 39.5 40t39 31t43 20t51.5 7q49 0 92.5 -23.5t61.5 -72.5q21 21 41.5 38.5t42.5 30t46 20t52 7.5q33 0 63.5 -11t53.5 -33t36.5 -55.5t13.5 -79.5v-414h-141v409q0 28 -17.5 45.5t-39.5 17.5t-41 -11.5t-36 -29.5t-32 -39.5t-29 -41.5v-350h-141
v411q0 28 -18 45.5t-40 17.5t-40.5 -12t-34.5 -30t-30.5 -40t-27.5 -42v-350h-143v573z" />
    <glyph glyph-name="cid79" unicode="n" horiz-adv-x="663" 
d="M71 552h113l29 -80q45 41 97 70.5t109 29.5q35 0 67 -11t56 -33t38 -55.5t14 -79.5v-414h-146v415q0 28 -18 45.5t-41 17.5q-21 0 -44.5 -12t-47 -30.5t-43.5 -41t-33 -43.5v-351h-150v573z" />
    <glyph glyph-name="cid80" unicode="o" horiz-adv-x="675" 
d="M332 -31q-57 0 -110 16t-93.5 52t-65 93.5t-24.5 140.5t24 140.5t64.5 93t93.5 51.5t111 16t111.5 -16t94 -51.5t64.5 -93t24 -140.5t-24 -140.5t-64.5 -93.5t-94 -52t-111.5 -16zM332 459q-30 0 -57.5 -10t-48.5 -32.5t-33 -58.5t-12 -87q0 -52 12 -88t33 -58.5
t48.5 -32.5t57.5 -10q31 0 58.5 10t48 32.5t32.5 58.5t12 88q0 51 -12 87t-32.5 58.5t-48 32.5t-58.5 10z" />
    <glyph glyph-name="cid81" unicode="p" horiz-adv-x="672" 
d="M322 -31q-29 0 -52.5 5t-49.5 15v-236h-149v799h112l22 -59q26 32 69 55.5t101 23.5q61 0 109 -22.5t82 -62t52 -93.5t18 -117q0 -71 -26 -128t-69.5 -97t-100 -61.5t-118.5 -21.5zM220 112q25 -14 48 -20.5t59 -6.5q35 0 65.5 13t53 37.5t35 60.5t12.5 81q0 90 -35 136
t-85 46q-51 0 -91 -29t-62 -81v-237z" />
    <glyph glyph-name="cid82" unicode="q" horiz-adv-x="665" 
d="M591 -247h-149v279q-27 -29 -64 -45t-86 -16q-59 0 -105.5 20.5t-79.5 59t-50.5 94t-17.5 126.5q0 70 21 126t60 95.5t95 60.5t126 21q60 0 127.5 -11t122.5 -26v-784zM442 445q-25 6 -50 11t-49 5q-37 0 -67 -14t-51 -38.5t-32.5 -59.5t-11.5 -77q0 -85 32 -135.5
t96 -50.5q37 0 73 22.5t60 67.5v269z" />
    <glyph glyph-name="cid83" unicode="r" horiz-adv-x="498" 
d="M71 -21v573h112l29 -99q16 25 37.5 47t46 38t50.5 25t52 9q31 0 56.5 -5t47.5 -17l-17 -115q-29 12 -69 12q-26 0 -55.5 -14.5t-57.5 -40t-50 -60.5t-33 -77v-276h-149z" />
    <glyph glyph-name="cid84" unicode="s" horiz-adv-x="480" 
d="M102 155q26 -34 59 -53t67 -21q41 -2 59 16.5t18 38.5q0 18 -6 31.5t-19.5 25t-36 22t-55.5 22.5q-34 12 -61 27.5t-46.5 37.5t-30 51t-10.5 70q0 40 17.5 70.5t47 50t67 28.5t77.5 8q50 -2 101.5 -19.5t88.5 -51.5l-63 -94q-25 22 -56 36.5t-69 14.5q-26 0 -47 -10.5
t-21 -38.5q0 -14 2.5 -24t12.5 -19t30 -17.5t54 -20.5q171 -58 164 -194q-2 -45 -19.5 -78.5t-47 -56t-69.5 -33.5t-87 -11q-63 0 -114 26t-89 75z" />
    <glyph glyph-name="cid85" unicode="t" horiz-adv-x="492" 
d="M134 440h-108v112h108v163h149v-163h179v-112h-179v-284q0 -74 72 -74q14 0 37 5.5t49 16.5l28 -103q-73 -32 -130 -32q-36 0 -72.5 8.5t-66 29.5t-48 57.5t-18.5 92.5v283z" />
    <glyph glyph-name="cid86" unicode="u" horiz-adv-x="645" 
d="M573 -21h-113l-28 89q-42 -45 -87.5 -72t-105.5 -27q-33 0 -63.5 11t-53.5 33t-37 56t-14 80v403h147v-407q0 -28 15 -45.5t37 -17.5t43.5 13.5t42 33.5t38 43.5t31.5 44.5v335h148v-573z" />
    <glyph glyph-name="cid87" unicode="v" horiz-adv-x="575" 
d="M215 -21l-205 573h144l134 -403l133 403h143l-204 -573h-145z" />
    <glyph glyph-name="cid88" unicode="w" horiz-adv-x="806" 
d="M558 170l102 382h136l-174 -573h-130l-88 346l-90 -346h-131l-173 573h136l102 -382l101 382h108z" />
    <glyph glyph-name="cid89" unicode="x" horiz-adv-x="575" 
d="M420 -21l-130 191l-129 -191h-155l204 297q-46 68 -95 138t-95 138h151l119 -172l118 172h151l-188 -276q49 -73 101.5 -148.5t101.5 -148.5h-154z" />
    <glyph glyph-name="cid90" unicode="y" horiz-adv-x="565" 
d="M209 9q-51 135 -102.5 271.5t-102.5 271.5h149l132 -374q32 92 65.5 187t65.5 187h148l-204 -543q-25 -63 -52.5 -104t-62.5 -69t-80 -47.5t-104 -38.5l-47 108q39 14 69 25.5t53 25.5t39 33t27 47z" />
    <glyph glyph-name="cid91" unicode="z" horiz-adv-x="563" 
d="M57 439v113h453v-85l-285 -375h298v-113h-482v85l282 375h-266z" />
    <glyph glyph-name="cid92" unicode="{" horiz-adv-x="612" 
d="M358 60q0 -48 22 -85t64 -52l46 -16l-36 -109l-20 7q-112 34 -159.5 103.5t-47.5 180.5v68q0 57 -29 94.5t-77 54.5v84q48 17 77 55.5t29 93.5v68q0 111 47.5 180.5t159.5 103.5l20 7l36 -108l-46 -17q-42 -15 -64 -52t-22 -85v-130q0 -66 -18 -99.5t-58 -51.5v-14
q40 -18 58 -51.5t18 -98.5v-131z" />
    <glyph glyph-name="cid93" unicode="|" horiz-adv-x="381" 
d="M127 785h128v-961h-128v961z" />
    <glyph glyph-name="cid94" unicode="}" horiz-adv-x="612" 
d="M253 191q0 65 18.5 98.5t58.5 51.5v14q-40 18 -58.5 51.5t-18.5 99.5v130q0 48 -21.5 85t-63.5 52l-47 17l38 108l19 -7q112 -34 159 -103.5t47 -180.5v-68q0 -55 29 -93.5t77 -55.5v-84q-48 -17 -77 -54.5t-29 -94.5v-68q0 -111 -47 -180.5t-159 -103.5l-19 -7l-38 109
l47 16q42 15 63.5 52t21.5 85v131z" />
    <glyph glyph-name="cid95" unicode="~" horiz-adv-x="770" 
d="M493 258q-39 0 -66.5 11.5t-51.5 26.5q-19 12 -41 25t-49 13q-30 0 -50 -16t-40 -61l-112 54q16 43 38 71t47.5 44.5t53 23.5t55.5 7q42 0 69.5 -12t52.5 -27q19 -11 40 -23t47 -12q30 0 51 16t41 61l109 -54q-17 -42 -40 -70t-49 -45.5t-53 -25t-52 -7.5z" />
    <glyph glyph-name="cid208" unicode="&#xa1;" horiz-adv-x="450" 
d="M143 682h168v-154h-168v154zM149 -242v65l22 600h110l23 -601v-64h-155z" />
    <glyph glyph-name="cid214" unicode="&#xa4;" horiz-adv-x="665" 
d="M23 71l87 88q-21 32 -32.5 69.5t-11.5 80.5q0 80 39 142l-82 83l80 80l81 -81q32 21 70 33t81 12q42 0 80.5 -12t70.5 -33l82 81l80 -80l-84 -84q19 -31 29.5 -67t10.5 -74q0 -42 -12 -79.5t-33 -69.5l89 -89l-80 -80l-90 89q-31 -19 -67.5 -29.5t-75.5 -10.5
q-40 0 -76 10.5t-67 28.5l-89 -88zM181 309q0 -71 41.5 -115.5t112.5 -44.5q35 0 63.5 12t48.5 33t31 50.5t11 64.5t-11 64.5t-31 50.5t-48.5 33t-63.5 12q-71 0 -112.5 -44.5t-41.5 -115.5z" />
    <glyph glyph-name="cid155" unicode="&#xa7;" horiz-adv-x="476" 
d="M243 51q41 0 64 19.5t23 45.5q0 22 -12 37t-32.5 27.5t-48.5 24.5t-60 27q-63 31 -94.5 68t-31.5 93q0 38 19 65.5t48 45.5q-36 26 -54 57t-18 73q0 35 17 62t44 45t60 27t65 9q53 0 102.5 -17t87.5 -49l-54 -88q-28 21 -64.5 37.5t-75.5 16.5q-23 0 -41 -14t-18 -34
q0 -8 4 -18.5t14.5 -22t29.5 -23.5t49 -24q40 -17 71 -33.5t52 -37t32 -45.5t11 -58q0 -42 -15 -72.5t-40 -50.5q29 -23 44.5 -51t15.5 -67q0 -46 -18 -78t-46.5 -52.5t-64 -30t-71.5 -9.5q-57 1 -106 25t-91 70l68 74q29 -32 64.5 -53t70.5 -21zM324 357q0 27 -18 44.5
t-50 32.5q-5 1 -11 1.5t-12 0.5q-23 0 -41 -14t-18 -34q0 -17 19 -40.5t78 -47.5l4 -2q23 8 36 24t13 35z" />
    <glyph glyph-name="cid107" unicode="&#xa8;" horiz-adv-x="618" 
d="M233 612h-168v154h168v-154zM556 612h-168v154h168v-154z" />
    <glyph glyph-name="cid98" unicode="&#xa9;" horiz-adv-x="880" 
d="M860 382q0 -87 -33.5 -164t-91 -134t-134 -90.5t-163.5 -33.5t-163.5 33.5t-134 90.5t-91 134t-33.5 164t33.5 163.5t91 133.5t134 90.5t163.5 33.5t163.5 -33.5t134 -90.5t91 -133.5t33.5 -163.5zM765 382q0 68 -25.5 128t-70 105t-104 71t-127.5 26t-127.5 -26
t-103.5 -71t-69.5 -105t-25.5 -128t25.5 -127.5t69.5 -104.5t103.5 -71t127.5 -26q67 0 127 27t104 73t70 105t26 124zM550 481q-20 21 -44.5 32t-59.5 11q-52 0 -83.5 -36t-31.5 -107q0 -70 32 -104t84 -34q33 0 64 8.5t58 27.5l43 -76q-38 -26 -79 -37.5t-86 -11.5
q-56 0 -98 17t-69.5 47.5t-41.5 72t-14 91.5q0 49 14 91t41.5 72.5t69 48t97.5 17.5q59 0 100 -19t68 -51z" />
    <glyph glyph-name="cid668" unicode="&#xaa;" horiz-adv-x="516" 
d="M339 656q0 13 -4.5 25.5t-14.5 22.5t-25.5 16t-37.5 6q-25 0 -56 -9.5t-64 -28.5l-39 83q47 23 89 34.5t82 11.5q84 0 132.5 -43t48.5 -128v-277h-84l-15 37q-26 -23 -59.5 -38t-65.5 -15t-60 10.5t-48 30t-31.5 46t-11.5 59.5t16.5 61t45.5 49t69 33t87 13zM187 499
q0 -22 15.5 -38.5t41.5 -16.5q28 0 55 19.5t41 45.5l-1 -1v64q-11 0 -21 -0.5t-21 -0.5q-60 -1 -85 -23.5t-25 -48.5zM67 310h412v-106h-412v106z" />
    <glyph glyph-name="cid176" unicode="&#xab;" horiz-adv-x="1009" 
d="M627 126l-47 -97l-556 306l557 306l47 -97l-390 -209zM988 126l-48 -97l-556 306l557 306l48 -97l-391 -209z" />
    <glyph glyph-name="cid176" unicode="&#x226a;" horiz-adv-x="1009" 
d="M627 126l-47 -97l-556 306l557 306l47 -97l-390 -209zM988 126l-48 -97l-556 306l557 306l48 -97l-391 -209z" />
    <glyph glyph-name="cid194" unicode="&#xac;" horiz-adv-x="800" 
d="M723 0h-132v227h-535v112h667v-339z" />
    <glyph glyph-name="cid194" unicode="&#xffe2;" horiz-adv-x="800" 
d="M723 0h-132v227h-535v112h667v-339z" />
    <glyph glyph-name="cid109" unicode="&#xad;" horiz-adv-x="610" 
d="M82 300v112h443v-112h-443z" />
    <glyph glyph-name="cid109" unicode="&#x2013;" horiz-adv-x="610" 
d="M82 300v112h443v-112h-443z" />
    <glyph glyph-name="cid18352" unicode="&#xae;" horiz-adv-x="880" 
d="M860 382q0 -87 -33.5 -164t-91 -134t-134 -90.5t-163.5 -33.5t-163.5 33.5t-134 90.5t-91 134t-33.5 164t33.5 163.5t91 133.5t134 90.5t163.5 33.5t163.5 -33.5t134 -90.5t91 -133.5t33.5 -163.5zM661 142q48 45 76 106.5t28 133.5q0 68 -25.5 128t-70 105t-104 71
t-127.5 26t-127.5 -26t-103.5 -71t-69.5 -105t-25.5 -128t25.5 -127.5t69.5 -104.5t103.5 -71t127.5 -26q53 0 100.5 15t86.5 44h-4q-46 0 -74 17t-45 44q-23 35 -45 73t-40 77q-14 1 -28.5 3.5t-28.5 4.5v-219h-104v540q41 12 87.5 18.5t86.5 6.5q48 0 88.5 -10.5t70 -32.5
t46 -55t16.5 -79q0 -71 -36.5 -112.5t-91.5 -55.5q25 -48 49 -85q25 -42 68 -42h28zM430 581q-19 0 -36.5 -2t-33.5 -5v-144q17 -5 35 -7t35 -2q25 0 46.5 4t37 13t24.5 24t9 38q0 46 -33.5 63.5t-83.5 17.5z" />
    <glyph glyph-name="cid138" unicode="&#xb0;" horiz-adv-x="363" 
d="M170 809q28 0 52.5 -9.5t42.5 -27t28.5 -41.5t10.5 -52q0 -29 -10.5 -53.5t-28.5 -42t-42.5 -27.5t-52.5 -10q-29 0 -53.5 10t-42.5 27.5t-28 42t-10 53.5q0 28 10 52t28 41.5t42.5 27t53.5 9.5zM169 730q-24 0 -37 -14.5t-13 -36.5t13 -38t37 -16t38 16t14 38t-14 36.5
t-38 14.5z" />
    <glyph glyph-name="cid130" unicode="&#xb1;" horiz-adv-x="721" 
d="M420 694v-199h191v-109h-191v-200h-121v200h-190v109h190v199h121zM116 110h487v-109h-487v109z" />
    <glyph glyph-name="cid843" unicode="&#xb2;" horiz-adv-x="618" 
d="M316 859q34 -1 63.5 -9t51.5 -26.5t34.5 -48.5t12.5 -74q0 -42 -19.5 -79.5t-59.5 -83.5l-83 -95h172v-96h-314v80q13 13 33.5 35.5t43.5 48.5t45 51.5t37 44.5q20 27 33.5 52.5t13.5 42.5q0 32 -19 48t-47 16q-25 0 -45.5 -17t-30.5 -40l-76 52q30 49 66.5 74t87.5 24z
" />
    <glyph glyph-name="cid844" unicode="&#xb3;" horiz-adv-x="618" 
d="M299 427q31 0 52.5 19t21.5 48q0 28 -22.5 46t-67.5 18h-48v90h44q41 1 64.5 19t23.5 46q0 20 -18.5 36t-49.5 16q-20 0 -42.5 -13.5t-41.5 -35.5l-66 53q37 45 77.5 65.5t81.5 20.5q75 0 114.5 -40t39.5 -103q0 -31 -13.5 -58.5t-33.5 -45.5q26 -19 41.5 -48t15.5 -67
t-13.5 -67t-37 -49t-55 -30t-67.5 -10q-39 0 -81 12.5t-70 35.5l37 83q60 -41 114 -41z" />
    <glyph glyph-name="cid199" unicode="&#xb4;" horiz-adv-x="496" 
d="M200 740h-99l106 237h175z" />
    <glyph glyph-name="cid244" unicode="&#xb6;" horiz-adv-x="929" 
d="M659 728v-911h-89v815h-56v-815h-87v469q-54 3 -93.5 21.5t-65 48t-38 69t-12.5 85.5q0 43 13 82.5t40 69.5t69 48t100 18h219z" />
    <glyph glyph-name="cid104" unicode="&#xb7;" horiz-adv-x="418" 
d="M309 402q0 -26 -9 -45.5t-23 -32t-31.5 -18.5t-35.5 -6t-35.5 6t-32 18.5t-23 32t-8.5 45.5q0 25 8.5 44t23 31.5t32 18.5t35.5 6t35.5 -6t31.5 -18.5t23 -31.5t9 -44z" />
    <glyph glyph-name="cid104" unicode="&#x30fb;" horiz-adv-x="418" 
d="M309 402q0 -26 -9 -45.5t-23 -32t-31.5 -18.5t-35.5 -6t-35.5 6t-32 18.5t-23 32t-8.5 45.5q0 25 8.5 44t23 31.5t32 18.5t35.5 6t35.5 -6t31.5 -18.5t23 -31.5t9 -44z" />
    <glyph glyph-name="cid206" unicode="&#xb8;" horiz-adv-x="324" 
d="M212 3l-25 -82q38 -13 62.5 -37t22.5 -62q-2 -30 -14 -52.5t-30.5 -37t-43 -22t-50.5 -7.5q-24 0 -45 1t-42 6l-1 86q12 -3 31.5 -5t38 0.5t32.5 11.5t14 28q0 18 -11 27t-27 13t-34 4h-31l43 157z" />
    <glyph glyph-name="cid842" unicode="&#xb9;" horiz-adv-x="618" 
d="M298 338v374l-58 -43l-55 75l138 107h76v-513h-101z" />
    <glyph glyph-name="cid675" unicode="&#xba;" horiz-adv-x="516" 
d="M448 604q0 -67 -15.5 -114t-41 -77t-59 -44t-70.5 -14t-71 14t-59.5 44t-41 77t-15.5 114q0 66 15.5 113t41 77t59.5 43.5t71 13.5t70.5 -13.5t59 -43.5t41 -77t15.5 -113zM186 604q0 -44 5.5 -71t15.5 -43t24 -21.5t31 -5.5q16 0 30 5.5t24 21.5t15.5 43t5.5 71
q0 43 -5.5 70t-15.5 42.5t-24 21t-30 5.5q-17 0 -31 -5.5t-24 -21t-15.5 -42.5t-5.5 -70zM67 310h412v-106h-412v106z" />
    <glyph glyph-name="cid177" unicode="&#xbb;" horiz-adv-x="1009" 
d="M414 335l-390 209l47 97l557 -306l-556 -306l-47 97zM775 335l-391 209l48 97l557 -306l-556 -306l-48 97z" />
    <glyph glyph-name="cid177" unicode="&#x226b;" horiz-adv-x="1009" 
d="M414 335l-390 209l47 97l557 -306l-556 -306l-47 97zM775 335l-391 209l48 97l557 -306l-556 -306l-48 97z" />
    <glyph glyph-name="cid751" unicode="&#xbc;" horiz-adv-x="978" 
d="M314 -66h-118l479 926h118zM200 310v374l-58 -42l-54 74l138 107h75v-513h-101zM545 44v64l203 341h94v-311h52v-94h-52v-108h-97v108h-200zM667 138h78v134z" />
    <glyph glyph-name="cid748" unicode="&#xbd;" horiz-adv-x="978" 
d="M314 -66h-118l479 926h118zM200 310v374l-58 -42l-54 74l138 107h75v-513h-101zM735 440q34 -1 63.5 -9t51.5 -26.5t34.5 -48.5t12.5 -74q0 -42 -19.5 -79.5t-59.5 -84.5l-83 -94h172v-96h-314v80q13 13 33.5 35.5t43.5 48t45 51t37 44.5q21 28 34 53.5t13 42.5
q0 31 -19 47.5t-47 16.5q-25 0 -45 -17.5t-31 -40.5l-76 53q30 49 66.5 74t87.5 24z" />
    <glyph glyph-name="cid752" unicode="&#xbe;" horiz-adv-x="978" 
d="M314 -66h-118l479 926h118zM191 388q31 0 52.5 19t21.5 48q0 28 -22.5 46t-67.5 18h-48v90h44q41 1 64.5 19t23.5 46q0 20 -18.5 36t-49.5 16q-20 0 -42.5 -13.5t-41.5 -35.5l-66 53q37 45 77.5 65.5t81.5 20.5q75 0 114.5 -40t39.5 -103q0 -32 -13.5 -59t-33.5 -45
q26 -19 41.5 -48t15.5 -67t-13.5 -67t-37 -49t-55 -30t-67.5 -10q-39 0 -81 12.5t-70 35.5l37 82q59 -40 114 -40zM545 44v64l203 341h94v-311h52v-94h-52v-108h-97v108h-200zM667 138h78v134z" />
    <glyph glyph-name="cid209" unicode="&#xbf;" horiz-adv-x="628" 
d="M413 523h-168v154h168v-154zM391 419v-136q0 -48 -13.5 -80.5t-43.5 -55.5q-28 -21 -51.5 -38.5t-40.5 -36t-26.5 -40t-9.5 -49.5q0 -54 35 -85t89 -31q45 0 80.5 20t71.5 68l94 -75q-51 -69 -112.5 -98t-133.5 -29q-63 0 -112.5 17t-84 48t-52.5 73t-18 92
q0 43 9.5 72.5t26.5 52.5t42 43t55 43q18 14 30.5 26t21 26t12 31.5t3.5 42.5v99h128z" />
    <glyph glyph-name="cid666" unicode="&#xc6;" horiz-adv-x="1021" 
d="M968 750v-122h-360v-200h313l1 -121h-314v-205h372v-123h-498v153h-234l-91 -153h-145l470 771h486zM319 246h163v269z" />
    <glyph glyph-name="cid667" unicode="&#xd0;" horiz-adv-x="821" 
d="M431 -9q-26 0 -57.5 3t-64.5 8t-65.5 11.5t-59.5 14.5v289h-126v109h126v280q59 17 122.5 25.5t124.5 8.5q71 0 126.5 -27.5t93.5 -77t58 -118t20 -149.5q0 -82 -20 -151t-58 -119.5t-93.5 -78.5t-126.5 -28zM441 317h-122v-196q24 -8 51 -12t50 -4q39 0 71 19.5t55 54.5
t35.5 83.5t12.5 105.5q0 61 -12.5 108.5t-35.5 80.5t-55 50.5t-71 17.5q-26 0 -51 -3.5t-50 -9.5v-186h122v-109z" />
    <glyph glyph-name="cid131" unicode="&#xd7;" horiz-adv-x="721" 
d="M517 114l-150 152l-152 -152l-83 85l150 150l-149 151q23 21 42 41t41 42l150 -150l150 150l84 -83l-150 -151l150 -150z" />
    <glyph glyph-name="cid673" unicode="&#xd8;" horiz-adv-x="693" 
d="M176 -94l-103 45l66 125q-67 105 -67 298q0 204 73.5 308.5t211.5 104.5q79 0 135 -34l48 90l103 -45l-67 -127q67 -105 67 -297q0 -204 -73.5 -309t-212.5 -105q-78 0 -136 34zM207 374q0 -44 3 -79.5t8 -65.5l218 415q-34 31 -79 31q-33 0 -61 -17t-47.5 -53t-30.5 -93
t-11 -138zM357 72q34 0 61.5 17t47.5 53.5t31 93.5t11 138q0 87 -13 143l-217 -415q33 -30 79 -30z" />
    <glyph glyph-name="cid676" unicode="&#xde;" horiz-adv-x="649" 
d="M100 -21v827h133v-222q26 29 63.5 44.5t83.5 15.5q54 0 97.5 -21t74 -60.5t47 -95t16.5 -124.5t-19.5 -124.5t-55.5 -95t-88 -60.5t-118 -21q-23 0 -49 1.5t-52 5.5v-70h-133zM233 169q23 -6 50 -11t50 -5q34 0 61.5 14t47 39.5t30 60t10.5 75.5t-7 75.5t-21.5 60
t-36.5 39.5t-52 14q-35 0 -72 -22t-60 -66v-274z" />
    <glyph glyph-name="cid768" unicode="&#xdf;" horiz-adv-x="666" 
d="M82 -40v776q54 15 114 24.5t128 9.5q131 0 193.5 -56t62.5 -162q0 -50 -20.5 -93t-57.5 -66q27 -11 48.5 -31t36 -46.5t22.5 -57.5t8 -64q0 -115 -69 -174.5t-201 -59.5h-33v114h32q67 0 101.5 35t34.5 92q0 25 -8.5 48.5t-26 41.5t-43 29t-58.5 11h-130v-371h-134z
M323 656q-30 0 -55.5 -3.5t-51.5 -9.5v-200h107q34 0 57.5 9t37.5 24t20.5 34t6.5 40q0 22 -6.5 41t-20.5 33.5t-37.5 23t-57.5 8.5z" />
    <glyph glyph-name="cid757" unicode="&#xe6;" horiz-adv-x="911" 
d="M621 561q52 0 96 -20t76 -58.5t50 -94t18 -127.5v-46h-345q3 -28 9.5 -54t21 -46.5t38.5 -32.5t63 -12q40 0 76 13.5t74 42.5l50 -97q-47 -36 -98 -52.5t-114 -16.5q-69 0 -123.5 27t-88.5 83q-26 -31 -53.5 -52t-54 -34t-50.5 -18.5t-44 -5.5q-41 0 -75.5 13.5t-59.5 38
t-39.5 59t-14.5 75.5q0 43 20 80t57 64t87.5 42.5t112.5 16.5l68 1q0 18 -6 36.5t-19 33t-35 23.5t-53 9q-72 0 -156 -46l-47 99q115 56 217 56q116 0 176 -64q32 33 74 48.5t92 15.5zM621 451q-26 0 -45 -10.5t-31.5 -29t-19.5 -43t-9 -52.5h219q-2 27 -10 51.5t-22.5 43
t-35 29.5t-46.5 11zM166 146q0 -30 22 -53.5t59 -23.5q19 0 38.5 7.5t36.5 20t31.5 29t24.5 33.5v90l-62 -1q-41 -1 -69.5 -10.5t-46.5 -24t-26 -32t-8 -35.5z" />
    <glyph glyph-name="cid759" unicode="&#xf0;" horiz-adv-x="639" 
d="M154 561l103 121q-29 16 -59.5 27.5t-64.5 16.5l24 104q45 -5 89.5 -21t86.5 -40l42 50h129l-92 -106q36 -31 65.5 -68t51 -79t33.5 -88t12 -94q0 -206 -70 -310t-206 -104q-54 0 -100.5 19t-81 54t-54 85t-19.5 112q0 53 13 101t41.5 84t73 57.5t106.5 21.5q45 0 89 -16
t78 -46q-28 107 -107 182l-54 -63h-129zM291 391q-56 0 -86.5 -41.5t-30.5 -106.5q0 -78 33.5 -119.5t90.5 -41.5q37 0 63.5 21.5t43.5 54.5t26 72t11 75q-13 16 -30 31.5t-36.5 27.5t-41 19.5t-43.5 7.5z" />
    <glyph glyph-name="cid132" unicode="&#xf7;" horiz-adv-x="721" 
d="M435 496h-158v144h158v-144zM614 293h-508v112h508v-112zM435 52h-158v144h158v-144z" />
    <glyph glyph-name="cid766" unicode="&#xf8;" horiz-adv-x="589" 
d="M300 -40q-48 0 -95 14l-46 -88h-120l74 139q-40 36 -63.5 93.5t-23.5 142.5q0 81 22.5 138t60.5 93t87.5 52.5t103.5 16.5q50 0 92 -13l47 88h119l-74 -139q42 -36 66 -93.5t24 -142.5q0 -81 -22.5 -138.5t-60 -93.5t-87.5 -52.5t-104 -16.5zM300 450q-29 0 -55 -10.5
t-45 -33.5t-30 -58.5t-11 -86.5q0 -68 20 -113l158 297q-20 5 -37 5zM300 71q29 0 54.5 10.5t45 33.5t30.5 59t11 87q0 68 -22 114l-159 -299q9 -3 19 -4t21 -1z" />
    <glyph glyph-name="cid769" unicode="&#xfe;" horiz-adv-x="651" 
d="M100 -145v951h133v-222q26 29 63.5 44.5t83.5 15.5q54 0 97.5 -21t74 -60.5t47 -95t16.5 -124.5t-19.5 -124.5t-55.5 -95t-88 -60.5t-118 -21q-23 0 -49 2t-52 6v-195h-133zM233 169q23 -6 50 -11t50 -5q34 0 61.5 14t47 39.5t30 60t10.5 75.5t-7 75.5t-21.5 60
t-36.5 39.5t-52 14q-35 0 -72 -22t-60 -66v-274z" />
    <glyph glyph-name="cid758" unicode="&#x111;" horiz-adv-x="649" 
d="M642 648h-93v-669h-96l-20 58q-23 -31 -67 -54t-98 -23q-57 0 -102.5 22.5t-77 62.5t-48 93t-16.5 115q0 70 24 127t64.5 97t93.5 62t111 22q27 0 53 -5t49 -14v106h-108v97h108v60h130v-60h93v-97zM419 421q-23 14 -48 20.5t-58 6.5t-61.5 -14t-49.5 -39.5t-33 -61.5
t-12 -80q0 -88 32.5 -135t80.5 -47q47 0 87.5 28.5t61.5 79.5v242z" />
    <glyph glyph-name="cid669" unicode="&#x126;" horiz-adv-x="734" 
d="M724 531h-69v-552h-130v304h-298v-304h-130v552h-78v100h78v119h130v-119h298v119h130v-119h69v-100zM525 391v140h-298v-140h298z" />
    <glyph glyph-name="cid760" unicode="&#x127;" horiz-adv-x="666" 
d="M350 648h-109v-176q18 18 40 34t47 28.5t51 19.5t51 7q31 0 58 -10.5t46.5 -32t31 -55t11.5 -78.5v-406h-133v409q0 28 -11.5 44t-31.5 16q-17 0 -39 -11.5t-45 -29.5t-43.5 -40.5t-32.5 -43.5v-344h-133v669h-111v97h111v57h133v-57h109v-97z" />
    <glyph glyph-name="cid761" unicode="&#x131;" horiz-adv-x="278" 
d="M72 -21v563h133v-563h-133z" />
    <glyph glyph-name="cid670" unicode="&#x132;" horiz-adv-x="630" 
d="M57 -21v771h137v-771h-137zM276 -47q43 22 73.5 45.5t50 53t29 67t9.5 88.5v543h136v-544q0 -66 -14 -118.5t-43 -95t-73.5 -77.5t-106.5 -65z" />
    <glyph glyph-name="cid762" unicode="&#x133;" horiz-adv-x="556" 
d="M237 653h-168v154h168v-154zM490 653h-168v154h168v-154zM87 -21v563h132v-563h-132zM225 -210q34 26 57 49.5t36 51.5t18.5 63t5.5 84v504h133v-488q0 -66 -7.5 -118t-27 -94t-54.5 -77t-90 -68z" />
    <glyph glyph-name="cid763" unicode="&#x138;" horiz-adv-x="607" 
d="M67 -21v563h138v-257l201 257h157l-209 -269l251 -294h-158l-242 282v-282h-138z" />
    <glyph glyph-name="cid671" unicode="&#x13f;" horiz-adv-x="616" 
d="M101 -21v771h135v-656h338v-115h-473zM523 288h-158v144h158v-144z" />
    <glyph glyph-name="cid764" unicode="&#x140;" horiz-adv-x="560" 
d="M81 802h133v-617q0 -27 3.5 -55t9.5 -53t13 -46t13 -34l-118 -41q-9 15 -18.5 35.5t-17.5 48.5t-13 64.5t-5 82.5v615zM523 288h-158v144h158v-144z" />
    <glyph glyph-name="cid672" unicode="&#x141;" horiz-adv-x="696" 
d="M10 207l204 200v343h133v-213l84 82h139l-223 -218v-308h330v-114h-463v292l-65 -64h-139z" />
    <glyph glyph-name="cid765" unicode="&#x142;" horiz-adv-x="564" 
d="M7 207l209 205v390h133v-260l78 77h146l-224 -219v-421h-133v291l-64 -63h-145z" />
    <glyph glyph-name="cid772" unicode="&#x149;" horiz-adv-x="776" 
d="M56 600l-28 227v40h120v-40l-27 -227h-65zM211 542h99l27 -79q20 20 45 37.5t52.5 31t56 21.5t55.5 8q32 0 59.5 -10.5t47.5 -32t31.5 -55t11.5 -78.5v-406h-133v407q0 28 -12 45t-34 17q-19 0 -43.5 -11.5t-49 -30t-46 -40.5t-34.5 -43v-344h-133v563z" />
    <glyph glyph-name="cid678" unicode="&#x14a;" horiz-adv-x="745" 
d="M396 -273q43 23 73.5 46.5t50.5 52.5t29.5 66.5t9.5 88.5v28l-343 496l1 -526h-130v771h109l362 -521v521h131v-770q0 -66 -13 -118.5t-41.5 -95t-72.5 -77.5t-106 -65z" />
    <glyph glyph-name="cid771" unicode="&#x14b;" horiz-adv-x="618" 
d="M302 -284q34 26 57 49.5t36 51t18.5 62.5t5.5 84v423q0 28 -12 45t-34 17q-20 0 -44.5 -11.5t-49 -30t-45.5 -40.5t-34 -43v-344h-131v563h97l27 -79q20 20 45 37.5t52.5 31t56 21.5t55.5 8q32 0 59 -10.5t47 -32t31 -55t11 -78.5v-407q0 -66 -7 -117.5t-26.5 -93.5
t-54 -76.5t-89.5 -67.5z" />
    <glyph glyph-name="cid674" unicode="&#x152;" horiz-adv-x="836" 
d="M384 -21q-64 0 -128 21t-115.5 67t-83.5 119.5t-32 178.5q0 104 32 177t83 119t115 67.5t127 21.5h432v-112h-298v-201h274v-110h-274v-234h309v-114h-441zM162 367q0 -81 19.5 -133t51 -82t70.5 -42t79 -12v533q-38 0 -77 -11.5t-70.5 -41t-52 -80.5t-20.5 -131z" />
    <glyph glyph-name="cid767" unicode="&#x153;" horiz-adv-x="959" 
d="M695 561q52 0 96 -20t76 -58.5t50 -94t18 -127.5v-46h-345q3 -28 9.5 -54t21 -46.5t38.5 -32.5t63 -12q41 0 76.5 13.5t73.5 42.5l50 -97q-47 -36 -98 -52.5t-114 -16.5q-61 0 -109.5 20.5t-81.5 62.5q-38 -43 -91 -63t-113 -20q-54 0 -103 17t-86.5 54t-59.5 93.5
t-22 136.5q0 79 22 136t59.5 93.5t86.5 53.5t103 17q58 0 110.5 -19t90.5 -62q32 42 77.5 61.5t101.5 19.5zM315 452q-29 0 -54.5 -11.5t-45 -35t-30.5 -59.5t-11 -85q0 -50 11 -86t30.5 -59.5t45 -35t54.5 -11.5t54.5 11t45 34.5t30.5 59.5t11 87t-11 87t-30.5 59t-45 34
t-54.5 11zM695 451q-26 0 -45 -10.5t-31.5 -29t-19.5 -43t-9 -52.5h220q-2 27 -10.5 51.5t-23 43t-35 29.5t-46.5 11z" />
    <glyph glyph-name="cid677" unicode="&#x166;" horiz-adv-x="579" 
d="M221 -21v369h-151v106h151v184h-211v112h559v-112h-212v-184h153v-106h-153v-369h-136z" />
    <glyph glyph-name="cid770" unicode="&#x167;" horiz-adv-x="442" 
d="M16 367h101v83h-101v104h101v147h131v-147h167v-104h-167v-83h167v-106h-167v-118q0 -72 67 -72q15 0 36 5t45 17l28 -102q-32 -16 -63.5 -23.5t-57.5 -7.5q-34 0 -67 8t-59.5 29t-43 56.5t-16.5 90.5v117h-101v106z" />
    <glyph glyph-name="cid201" unicode="&#x2c7;" horiz-adv-x="454" 
d="M157 723l-146 220h142l75 -113l74 113h142l-145 -220h-142z" />
    <glyph glyph-name="cid210" unicode="&#x2d0;" horiz-adv-x="309" 
d="M293 676l-139 -256l-136 256h275zM18 53l136 256l139 -256h-275z" />
    <glyph glyph-name="cid210" unicode="&#x2236;" horiz-adv-x="309" 
d="M293 676l-139 -256l-136 256h275zM18 53l136 256l139 -256h-275z" />
    <glyph glyph-name="cid202" unicode="&#x2d8;" horiz-adv-x="417" 
d="M390 964q-4 -87 -54 -130.5t-127 -43.5t-127 43.5t-54 130.5h119q0 -36 17 -54.5t46 -18.5t46 18.5t17 54.5h117z" />
    <glyph glyph-name="cid205" unicode="&#x2d9;" horiz-adv-x="309" 
d="M234 773h-161v153h161v-153z" />
    <glyph glyph-name="cid204" unicode="&#x2da;" horiz-adv-x="309" 
d="M152 990q29 0 53.5 -9.5t42.5 -27t28 -41.5t10 -52q0 -29 -10 -53.5t-28 -42t-42.5 -27.5t-53.5 -10t-53 10t-42 27.5t-28 42t-10 53.5q0 28 10 52t28 41.5t42 27t53 9.5zM151 912q-24 0 -36.5 -15t-12.5 -37t12.5 -38t36.5 -16t38.5 16t14.5 38t-14.5 37t-38.5 15z" />
    <glyph glyph-name="cid207" unicode="&#x2db;" horiz-adv-x="256" 
d="M195 -10q-28 -18 -44.5 -40t-16.5 -43q0 -17 9.5 -32.5t37.5 -15.5h45v-84h-70q-72 0 -103.5 32t-31.5 89q0 23 9 45t24 41.5t35 36t42 28.5z" />
    <glyph glyph-name="cid200" unicode="&#x2dc;" horiz-adv-x="645" 
d="M410 812q-30 -2 -58 6t-58 29q-19 12 -38 25t-47 11q-21 -2 -38 -21.5t-28 -51.5l-84 41q11 36 29 59.5t38 38t41.5 20.5t39.5 6q34 0 59.5 -11t50.5 -28q21 -14 41.5 -25t40.5 -11q29 0 46.5 19.5t30.5 52.5l83 -39q-14 -36 -31.5 -59t-36.5 -36.5t-39.5 -19t-41.5 -6.5
z" />
    <glyph glyph-name="cid203" unicode="&#x2dd;" horiz-adv-x="594" 
d="M133 740h-99l106 237h175zM381 740h-99l106 237h175z" />
    <glyph glyph-name="cid471" unicode="&#x391;" horiz-adv-x="727" 
d="M161 -21h-139l278 776h130l278 -776h-139l-65 188h-279zM264 281h201l-100 293z" />
    <glyph glyph-name="cid472" unicode="&#x392;" horiz-adv-x="752" 
d="M400 -40q-75 0 -141.5 9.5t-130.5 27.5v739q54 15 113.5 24.5t128.5 9.5q131 0 193 -56t62 -162q0 -50 -20.5 -93t-57.5 -66q27 -11 48.5 -31t36 -46.5t22.5 -57.5t8 -64q0 -115 -67.5 -174.5t-194.5 -59.5zM369 656q-30 0 -55.5 -3.5t-51.5 -9.5v-200h107q34 0 57 9
t37 24t20.5 34t6.5 40q0 22 -6.5 41t-20.5 33.5t-37 23t-57 8.5zM262 331v-241q32 -9 63 -12.5t66 -3.5q67 0 101.5 35t34.5 92q0 25 -8.5 48.5t-26 41.5t-43 29t-58.5 11h-129z" />
    <glyph glyph-name="cid473" unicode="&#x393;" horiz-adv-x="667" 
d="M580 750v-116h-327v-655h-136v771h463z" />
    <glyph glyph-name="cid474" unicode="&#x394;" horiz-adv-x="721" 
d="M298 755h125l280 -776h-685zM196 94h329l-165 484z" />
    <glyph glyph-name="cid475" unicode="&#x395;" horiz-adv-x="686" 
d="M122 -21v771h454v-114h-321v-198h287v-113h-287v-231h332v-115h-465z" />
    <glyph glyph-name="cid476" unicode="&#x396;" horiz-adv-x="616" 
d="M41 -21v98l373 559h-360v114h520v-94l-375 -562h370v-115h-528z" />
    <glyph glyph-name="cid477" unicode="&#x397;" horiz-adv-x="785" 
d="M99 -21v771h135v-315h317v315h135v-771h-135v343h-317v-343h-135z" />
    <glyph glyph-name="cid478" unicode="&#x398;" horiz-adv-x="816" 
d="M408 770q161 0 246 -103.5t85 -303.5q0 -201 -85 -302t-246 -101t-246 102t-85 302q0 199 85 302.5t246 103.5zM214 364q0 -77 14.5 -131.5t40 -89.5t61 -51.5t78.5 -16.5t78.5 16.5t61 51.5t40 89.5t14.5 131.5q0 76 -14.5 131.5t-40 90.5t-61 52t-78.5 17t-78.5 -17
t-61 -52t-40 -90.5t-14.5 -131.5zM535 305h-258v124h258v-124z" />
    <glyph glyph-name="cid479" unicode="&#x399;" horiz-adv-x="315" 
d="M89 -21v771h137v-771h-137z" />
    <glyph glyph-name="cid480" unicode="&#x39a;" horiz-adv-x="760" 
d="M537 750h162l-312 -385l312 -386h-161l-298 366v-366h-137v771h137v-367z" />
    <glyph glyph-name="cid481" unicode="&#x39b;" horiz-adv-x="727" 
d="M364 574l-204 -595h-139l278 776h129l279 -776h-139z" />
    <glyph glyph-name="cid482" unicode="&#x39c;" horiz-adv-x="940" 
d="M217 509v-530h-135v771h120l268 -408l267 408h120v-771h-135v530l-252 -385z" />
    <glyph glyph-name="cid483" unicode="&#x39d;" horiz-adv-x="817" 
d="M237 504l1 -525h-135v771h113l363 -520v520h135v-771h-114z" />
    <glyph glyph-name="cid484" unicode="&#x39e;" horiz-adv-x="572" 
d="M49 750h470v-119h-470v119zM93 435h386v-117h-386v117zM49 98h481v-119h-481v119z" />
    <glyph glyph-name="cid485" unicode="&#x39f;" horiz-adv-x="816" 
d="M408 770q80 0 146.5 -25t114 -75t74 -127t26.5 -180q0 -104 -26.5 -179.5t-74 -125.5t-114 -74t-146.5 -24t-146.5 24.5t-114.5 74.5t-74.5 126t-26.5 179t26.5 179.5t74.5 126.5t114.5 75t146.5 25zM185 364q0 -81 17.5 -136t48 -89t71 -49t86.5 -15q45 0 85.5 15t71 49
t48 89t17.5 136q0 80 -17.5 135.5t-48 90t-71 50t-85.5 15.5q-46 0 -86.5 -15.5t-71 -50t-48 -90t-17.5 -135.5z" />
    <glyph glyph-name="cid486" unicode="&#x3a0;" horiz-adv-x="708" 
d="M488 634h-268v-634h-133v750h535v-750h-134v634z" />
    <glyph glyph-name="cid487" unicode="&#x3a1;" horiz-adv-x="715" 
d="M93 -21v757q55 17 119.5 25.5t120.5 8.5q68 0 125.5 -14t99 -45.5t65 -82.5t23.5 -125t-23 -125.5t-61.5 -83t-89.5 -45.5t-107 -14q-35 0 -68.5 2.5t-68.5 10.5v-269h-135zM334 656q-30 0 -57 -4t-49 -9v-280q25 -6 52.5 -10t53.5 -4q38 0 70.5 7t56 24t37 47t13.5 76
t-13.5 75.5t-37 46.5t-56 24t-70.5 7z" />
    <glyph glyph-name="cid488" unicode="&#x3a3;" horiz-adv-x="615" 
d="M442 365l-231 -271h345v-117h-514v105l243 283l-243 282v105h514v-115h-345z" />
    <glyph glyph-name="cid489" unicode="&#x3a4;" horiz-adv-x="644" 
d="M252 -21v655h-211v116h558v-116h-211v-655h-136z" />
    <glyph glyph-name="cid490" unicode="&#x3a5;" horiz-adv-x="665" 
d="M265 -26v351l-255 425h148l175 -297l175 297h147l-255 -423v-353h-135z" />
    <glyph glyph-name="cid491" unicode="&#x3a6;" horiz-adv-x="711" 
d="M291 -21v91q-46 8 -88 29t-74.5 57t-52 88t-19.5 122t19.5 121.5t51.5 87.5t74.5 57t88.5 29v89h117v-89q47 -7 90 -28t76 -57t52.5 -88t19.5 -122q0 -71 -19.5 -123.5t-52.5 -88.5t-76 -57t-90 -28v-90h-117zM521 366q0 39 -9 69.5t-25 53t-36.5 37t-42.5 22.5v-366
q22 8 42.5 23t36.5 37.5t25 53.5t9 70zM181 366q0 -39 9 -69t24 -52.5t35 -37.5t42 -24v364q-22 -8 -42 -23t-35 -37t-24 -52t-9 -69z" />
    <glyph glyph-name="cid492" unicode="&#x3a7;" horiz-adv-x="684" 
d="M420 365l244 -386h-154l-168 270l-168 -270h-154l243 386l-243 385h154l168 -270l168 270h154z" />
    <glyph glyph-name="cid493" unicode="&#x3a8;" horiz-adv-x="774" 
d="M463 338q21 4 40.5 13t34.5 23.5t24 36t9 50.5v289h130v-296q0 -52 -20 -91.5t-53.5 -68t-76.5 -46.5t-88 -26v-222h-134v222q-46 7 -89 25t-76.5 46.5t-53.5 68.5t-20 92v296h130v-289q0 -29 9 -50.5t24 -36t34.5 -23.5t41.5 -13v412h134v-412z" />
    <glyph glyph-name="cid494" unicode="&#x3a9;" horiz-adv-x="750" 
d="M373 653q-51 0 -89.5 -17t-64 -46t-38.5 -67.5t-13 -80.5t11 -80t32 -68.5t52 -52.5t72 -31v-231h-299v116h165v40q-39 17 -69.5 48.5t-52 72t-33 89t-11.5 99.5q0 70 26.5 129.5t72.5 103t107.5 68.5t131.5 25t131.5 -25t107.5 -68.5t72.5 -103t26.5 -129.5
q0 -53 -12 -100.5t-33.5 -88t-52.5 -71.5t-69 -49v-40h166v-116h-299v231q40 9 71 31t52.5 53t32.5 69t11 79q0 43 -13 81t-38.5 67t-64 46t-89.5 17z" />
    <glyph glyph-name="cid495" unicode="&#x3b1;" horiz-adv-x="659" 
d="M649 73l-9 -113h-32q-56 0 -88.5 20t-48.5 43q-4 5 -8 10.5t-7 10.5q-34 -44 -83.5 -64t-109.5 -20q-54 0 -100.5 16.5t-80.5 52.5t-53.5 93.5t-19.5 138.5t19.5 138t53.5 93t80.5 52.5t100.5 16.5q49 0 91 -13t74 -42l18 36h128q-54 -121 -62.5 -221.5t33.5 -185.5
q12 -26 29 -42t40 -18zM263 450q-59 0 -90 -44t-31 -145q0 -102 31 -146t90 -44q58 0 89 44t31 146q0 101 -31 145t-89 44z" />
    <glyph glyph-name="cid496" unicode="&#x3b2;" horiz-adv-x="708" 
d="M83 553q0 100 58 158.5t183 58.5q126 0 190.5 -57.5t64.5 -160.5q0 -50 -20 -93t-57 -66q27 -11 48 -31t36 -46.5t22.5 -57.5t7.5 -64q0 -115 -67.5 -174.5t-194.5 -59.5q-72 0 -138 9v-227h-133v811zM216 90q32 -9 63.5 -12.5t66.5 -3.5q67 0 101.5 35t34.5 92
q0 25 -8.5 48.5t-26 41.5t-43 29t-58.5 11h-57v112h34q34 0 57.5 9t37.5 24t20.5 34t6.5 40q0 22 -6 41t-20 33.5t-37.5 23t-58.5 8.5q-28 0 -48 -8t-33 -22.5t-19.5 -34t-6.5 -40.5v-461z" />
    <glyph glyph-name="cid497" unicode="&#x3b3;" horiz-adv-x="769" 
d="M457 93q26 -71 38 -111.5t14 -65.5q3 -39 -8 -71t-34 -55t-56 -35.5t-73 -12.5q-44 0 -74 11.5t-49 30t-28 41.5t-10 47q-2 42 10 83t30 69l83 105l-87 255q-5 16 -16 21.5t-19 5.5t-16.5 -4.5t-17 -11.5t-15.5 -14t-12 -13l-11 -12l-87 94q41 48 81 80t83 32
q32 0 54 -10t37 -28.5t26 -44.5t22 -57l68 -205l215 325h152zM388 -100q6 27 -3 53t-23 57q-17 -20 -29.5 -35t-20 -28t-11 -24.5t-3.5 -25.5q0 -15 9.5 -28t26.5 -14q26 -1 38.5 14t15.5 31z" />
    <glyph glyph-name="cid498" unicode="&#x3b4;" horiz-adv-x="598" 
d="M547 247q0 -61 -15.5 -114t-46 -92t-77 -61.5t-109.5 -22.5t-109.5 20.5t-77 58.5t-46 91.5t-15.5 119.5q0 89 26 150.5t66 93.5q-69 36 -69 117q0 36 13.5 66.5t41 53t70 35t101.5 12.5q45 0 78.5 -7.5t61 -20.5t51 -30t46.5 -36l-70 -93q-19 16 -37.5 29.5t-38 23.5
t-41.5 16t-47 6q-52 0 -73 -14t-21 -43q0 -16 4.5 -28.5t16 -21.5t31.5 -14t52 -5q57 0 101 -22t73.5 -60.5t44.5 -91.5t15 -116zM414 247q0 27 -4 57t-16.5 55.5t-35 42.5t-59.5 17q-34 0 -56.5 -15t-35.5 -39t-18 -55t-5 -63q0 -27 4 -57t16.5 -56t35 -43t59.5 -17
q34 0 56.5 15t35.5 39.5t18 55.5t5 63z" />
    <glyph glyph-name="cid499" unicode="&#x3b5;" horiz-adv-x="513" 
d="M275 69q29 0 65.5 15t69.5 38l44 -95q-16 -12 -38 -24t-46 -21.5t-49 -15.5t-46 -6q-41 0 -78 11.5t-65 34.5t-44 56.5t-16 78.5q0 42 16.5 77.5t44.5 56.5q-21 21 -36 55t-15 67q0 34 13 64t36.5 52.5t57 35t75.5 12.5q52 0 101 -24t89 -74l-81 -64q-20 26 -48.5 39.5
t-50.5 13.5q-33 0 -54 -16.5t-21 -38.5q0 -32 21.5 -53.5t65.5 -22.5h61v-106h-65q-49 0 -72 -21.5t-23 -52.5q0 -33 26.5 -52.5t61.5 -19.5z" />
    <glyph glyph-name="cid500" unicode="&#x3b6;" horiz-adv-x="663" 
d="M79 758q41 -11 97.5 -17t117 -6.5t119 4.5t103.5 15v-107q-35 -7 -76.5 -12t-83.5 -7q-37 -34 -64.5 -69.5t-46.5 -70t-29.5 -66t-13.5 -58.5q-9 -74 7 -121t48.5 -74t75 -37t85.5 -10q47 0 80 -15t53.5 -39.5t29.5 -56t7 -64.5t-13.5 -68t-43.5 -62.5t-90 -44.5
t-153 -14v114q47 0 78.5 4.5t51 13.5t28.5 22.5t11 31.5q2 28 -12.5 46.5t-60.5 18.5q-78 0 -140 24.5t-104 71.5t-60.5 116t-7.5 158q3 25 13 57t26 65.5t37.5 67t46.5 61.5q-32 2 -60.5 7t-55.5 10v111z" />
    <glyph glyph-name="cid501" unicode="&#x3b7;" horiz-adv-x="642" 
d="M431 386q0 28 -12.5 45t-34.5 17q-19 0 -43.5 -11.5t-49 -30t-46 -40.5t-34.5 -43v-344h-133v563h99l27 -79q21 20 46 37.5t52 31t55.5 21.5t55.5 8q32 0 59.5 -10.5t47.5 -32t31.5 -55t11.5 -78.5v-484q0 -72 67 -72q15 0 36 5t45 17l26 -102q-32 -16 -63.5 -23.5
t-57.5 -7.5q-34 0 -67 8t-59.5 29t-42.5 56.5t-16 90.5v484z" />
    <glyph glyph-name="cid502" unicode="&#x3b8;" horiz-adv-x="748" 
d="M374 770q161 0 246 -103.5t85 -303.5q0 -201 -85 -302t-246 -101t-246 102t-85 302q0 199 85 302.5t246 103.5zM374 655q-77 0 -129 -56t-63 -179h382q-5 61 -21 105.5t-40.5 73.5t-57 42.5t-71.5 13.5zM374 75q39 0 71.5 13t57 41t40.5 72t21 105h-382
q11 -122 63 -176.5t129 -54.5z" />
    <glyph glyph-name="cid503" unicode="&#x3b9;" horiz-adv-x="312" 
d="M78 -20v563h134v-563h-134z" />
    <glyph glyph-name="cid504" unicode="&#x3ba;" horiz-adv-x="633" 
d="M67 -21v563h138v-257l201 257h157l-209 -269l251 -294h-158l-242 282v-282h-138z" />
    <glyph glyph-name="cid505" unicode="&#x3bb;" horiz-adv-x="745" 
d="M293 363l-130 -384h-125l182 575q-17 45 -38.5 64.5t-54.5 19.5h-56v112h95q54 0 91.5 -26.5t56.5 -75.5l201 -509q29 -70 72 -70q17 0 39 12t39 29l58 -86q-27 -35 -67.5 -49.5t-83.5 -14.5q-23 0 -47 7.5t-46 22t-40 35.5t-28 47z" />
    <glyph glyph-name="cid506" unicode="&#x3bc;" horiz-adv-x="653" 
d="M531 -21h-96l-27 78q-7 -20 -21.5 -38t-33 -31t-40 -20.5t-43.5 -7.5q-24 0 -44 8t-28 21v-245h-131v798h131v-418q9 -49 61 -49q20 0 40.5 12t39.5 33t35 49.5t27 62.5v310h130v-563z" />
    <glyph glyph-name="cid507" unicode="&#x3bd;" horiz-adv-x="677" 
d="M295 -21l-210 563h143l143 -403q38 62 62 135t24 165q0 25 -2 51t-6 52h129q11 -50 11 -100q0 -62 -14.5 -125t-38.5 -122.5t-55.5 -114.5t-64.5 -101h-121z" />
    <glyph glyph-name="cid508" unicode="&#x3be;" horiz-adv-x="673" 
d="M70 233q-4 75 32 124t96 76q-38 17 -56.5 48.5t-18.5 65.5q0 22 6.5 49t26.5 47q-14 2 -31 4.5t-31 4.5v100q39 -11 87.5 -16t101.5 -5q47 0 93 4t86 13v-97q-42 -8 -83 -11t-83 -4q-17 -8 -31.5 -25.5t-14.5 -52.5q0 -11 4.5 -24.5t14 -25t25 -19t38.5 -7.5h121v-105
h-106q-31 0 -57.5 -7.5t-46 -24t-30.5 -43t-11 -64.5q0 -45 19.5 -69.5t49.5 -37.5t66 -16.5t69 -6.5q61 -5 99.5 -21t60.5 -39t30 -52.5t7 -62.5q-2 -32 -14.5 -64.5t-45.5 -58t-91.5 -40.5t-151.5 -12v107q89 -1 128.5 13.5t43.5 55.5q2 32 -15 49t-64 18q-66 1 -123.5 10
t-101 33.5t-69.5 69.5t-29 119z" />
    <glyph glyph-name="cid509" unicode="&#x3bf;" horiz-adv-x="650" 
d="M325 -40q-54 0 -103.5 16.5t-87.5 52.5t-60.5 93.5t-22.5 138.5t22.5 138t60.5 93t87.5 52.5t103.5 16.5t104 -16.5t87.5 -52.5t60 -93t22.5 -138t-22.5 -138.5t-60 -93.5t-87 -52.5t-104.5 -16.5zM325 450q-29 0 -54.5 -10.5t-45 -33.5t-30.5 -58.5t-11 -86.5t11 -87
t30.5 -59t45 -33.5t54.5 -10.5t55 10.5t45.5 33.5t30.5 59t11 87t-11 86.5t-30.5 58.5t-45.5 33.5t-55 10.5z" />
    <glyph glyph-name="cid510" unicode="&#x3c0;" horiz-adv-x="839" 
d="M72 543h672v-116h-174v-235q0 -51 10 -74.5t39 -23.5q23 0 43 11t46 37l53 -97q-38 -33 -74.5 -49t-86.5 -16q-44 0 -74.5 15t-50 41t-28 60t-8.5 72l1 259h-86l-8 -136q-4 -66 -17.5 -117t-40 -91t-67.5 -71.5t-100 -57.5l-52 101q40 20 67 42t43.5 50.5t24.5 65.5
t11 88l9 126h-152v116z" />
    <glyph glyph-name="cid511" unicode="&#x3c1;" horiz-adv-x="637" 
d="M318 -40q-38 0 -74 8.5t-68 25.5v-252h-132v519q0 81 22.5 138t60.5 93t87.5 52.5t103.5 16.5t103.5 -16.5t87.5 -52.5t60.5 -93t22.5 -138t-22.5 -138.5t-60 -93.5t-87.5 -52.5t-104 -16.5zM318 450q-29 0 -54.5 -10.5t-45 -33.5t-30.5 -58.5t-11 -86.5t11 -87t30.5 -59
t45 -33.5t54.5 -10.5t55 10.5t45 33.5t30 59t11 87t-11 86.5t-30 58.5t-45 33.5t-55 10.5z" />
    <glyph glyph-name="cid512" unicode="&#x3c3;" horiz-adv-x="664" 
d="M336 -40q-54 0 -103.5 16.5t-87.5 52.5t-60.5 93.5t-22.5 138.5t22.5 138t60.5 93t87.5 52.5t103.5 16.5h328v-110h-104q23 -35 36.5 -82t13.5 -108q0 -81 -22.5 -138.5t-60 -93.5t-87.5 -52.5t-104 -16.5zM336 450q-29 0 -54.5 -10.5t-45 -33.5t-30.5 -58.5t-11 -86.5
t11 -87t30.5 -59t45 -33.5t54.5 -10.5t54.5 10.5t45 33.5t30.5 59t11 87t-11 86.5t-30.5 58.5t-45 33.5t-54.5 10.5z" />
    <glyph glyph-name="cid513" unicode="&#x3c4;" horiz-adv-x="617" 
d="M58 543h501v-116h-195v-235q0 -51 10 -74.5t39 -23.5q23 0 43 11t46 37l53 -97q-38 -33 -74.5 -49t-86.5 -16q-44 0 -75 15t-51 41t-29 60t-9 72v259h-172v116z" />
    <glyph glyph-name="cid514" unicode="&#x3c5;" horiz-adv-x="669" 
d="M453 301q0 56 -13.5 110.5t-42.5 111.5l113 71q37 -57 58.5 -137.5t21.5 -165.5q0 -69 -18 -129.5t-53.5 -105t-89.5 -70.5t-126 -26q-118 0 -171 46.5t-53 150.5v385h133v-338q0 -36 4 -61t14.5 -40.5t29 -23t48.5 -7.5q45 0 73 23.5t44 58.5t22 74.5t6 72.5z" />
    <glyph glyph-name="cid515" unicode="&#x3c6;" horiz-adv-x="824" 
d="M341 -258v206q-131 14 -197 91t-66 202q0 60 14.5 111.5t39 92.5t55.5 70.5t64 46.5l63 -92q-26 -19 -45.5 -41t-33 -49t-20 -61t-6.5 -78q0 -74 32.5 -123t99.5 -56v301q0 39 5.5 71t20 54.5t39.5 35t65 12.5q69 0 120 -23.5t84.5 -63.5t50 -94t16.5 -114
q0 -125 -70.5 -202.5t-200.5 -90.5v-206h-130zM613 241q0 88 -30 134.5t-82 46.5q-13 0 -21.5 -8.5t-8.5 -36.5v-315q68 6 105 55t37 124z" />
    <glyph glyph-name="cid516" unicode="&#x3c7;" horiz-adv-x="647" 
d="M402 165l223 -385h-152l-150 269l-149 -269h-152l222 385l-222 385h152l149 -270l150 270h152z" />
    <glyph glyph-name="cid517" unicode="&#x3c8;" horiz-adv-x="753" 
d="M462 78q22 5 42 14t35.5 23.5t24.5 36t9 50.5v340h128v-345q0 -52 -20.5 -92t-54 -68.5t-76.5 -46t-88 -25.5v-223h-132v223q-46 7 -89 25t-76.5 46.5t-54 68.5t-20.5 92v345h128v-340q0 -30 9 -51t24.5 -35.5t35.5 -23.5t43 -14v464h132v-464z" />
    <glyph glyph-name="cid518" unicode="&#x3c9;" horiz-adv-x="864" 
d="M495 317v-158q0 -40 20.5 -62t58.5 -22q46 0 65.5 41t19.5 139q0 32 -3 62.5t-15 54.5t-35.5 39t-64.5 16v115q80 -1 129 -25t75.5 -64.5t35.5 -93.5t9 -113q0 -48 -7 -98.5t-27.5 -91.5t-57 -68t-95.5 -28q-29 0 -55 3.5t-48 13t-39.5 26.5t-28.5 44
q-11 -28 -28.5 -45.5t-40 -27t-48 -12.5t-53.5 -2q-60 1 -96.5 28t-57 68t-27.5 91.5t-7 98.5q0 60 9 113t35.5 93.5t75.5 64.5t129 25v-115q-41 -1 -64.5 -16t-35.5 -39t-15 -54.5t-3 -62.5q0 -98 19.5 -139t65.5 -41q38 0 58.5 22t20.5 62v158h126z" />
    <glyph glyph-name="cid1026" unicode="&#x401;" horiz-adv-x="684" 
d="M296 837h-131v123h131v-123zM502 837h-131v123h131v-123zM95 -21v771h454v-114h-320v-198h286v-113h-286v-231h331v-115h-465z" />
    <glyph glyph-name="cid1020" unicode="&#x410;" horiz-adv-x="791" 
d="M192 -21h-139l278 776h129l279 -776h-140l-64 188h-280zM295 281h200l-99 293z" />
    <glyph glyph-name="cid1021" unicode="&#x411;" horiz-adv-x="708" 
d="M389 456q57 0 107 -15t87 -46t58.5 -79.5t21.5 -114.5q0 -115 -67.5 -178t-194.5 -63q-75 0 -141.5 9.5t-130.5 27.5v753h466v-114h-332v-180h126zM263 344v-254q32 -9 63 -12.5t66 -3.5q67 0 101.5 38.5t34.5 95.5q0 25 -8.5 49.5t-26 43.5t-43 31t-58.5 12h-129z" />
    <glyph glyph-name="cid1022" unicode="&#x412;" horiz-adv-x="752" 
d="M401 -40q-75 0 -141.5 9.5t-130.5 27.5v739q54 15 113.5 24.5t128.5 9.5q131 0 193 -56t62 -162q0 -50 -20.5 -93t-57.5 -66q27 -11 48.5 -31t36 -46.5t22.5 -57.5t8 -64q0 -115 -67.5 -174.5t-194.5 -59.5zM370 656q-30 0 -55.5 -3.5t-51.5 -9.5v-200h107q34 0 57 9
t37 24t20.5 34t6.5 40q0 22 -6.5 41t-20.5 33.5t-37 23t-57 8.5zM263 331v-241q32 -9 63 -12.5t66 -3.5q67 0 101.5 35t34.5 92q0 25 -8.5 48.5t-26 41.5t-43 29t-58.5 11h-129z" />
    <glyph glyph-name="cid1023" unicode="&#x413;" horiz-adv-x="667" 
d="M118 0v750h484v-116h-348v-634h-136z" />
    <glyph glyph-name="cid1024" unicode="&#x414;" horiz-adv-x="812" 
d="M103 92q28 2 45.5 19.5t28 44.5t14.5 60t4 65v469h476v-658h94v-267h-134v153h-440v-153h-134v267h46zM329 311q0 -41 -1 -74t-5.5 -60t-14 -48t-26.5 -37h255v545h-208v-326z" />
    <glyph glyph-name="cid1025" unicode="&#x415;" horiz-adv-x="653" 
d="M95 -21v771h454v-114h-320v-198h286v-113h-286v-231h331v-115h-465z" />
    <glyph glyph-name="cid1027" unicode="&#x416;" horiz-adv-x="1019" 
d="M854 750h160l-291 -385l291 -386h-159l-277 365v-365h-137v365l-277 -365h-159l291 386l-291 385h160l276 -365v365h137v-365z" />
    <glyph glyph-name="cid1028" unicode="&#x417;" horiz-adv-x="649" 
d="M300 75q60 0 98 34t38 94q0 57 -40.5 92t-121.5 35h-63v112h57q75 1 113.5 34.5t38.5 89.5q0 45 -30 75.5t-89 30.5q-37 0 -72 -20.5t-63 -55.5l-90 73q49 61 107.5 89.5t132.5 28.5q58 0 103 -17t75.5 -46.5t46 -70t15.5 -87.5q0 -56 -26.5 -100.5t-71.5 -72.5
q50 -26 82 -75.5t32 -114.5q0 -61 -21 -106.5t-57.5 -76t-86.5 -45.5t-107 -15q-31 0 -63 5t-62 14.5t-57 22t-46 27.5l49 103q45 -30 89 -43.5t90 -13.5z" />
    <glyph glyph-name="cid1029" unicode="&#x418;" horiz-adv-x="817" 
d="M216 -21h-113v771h135v-520l362 520h114v-771h-135l1 525z" />
    <glyph glyph-name="cid1030" unicode="&#x419;" horiz-adv-x="754" 
d="M547 964q-4 -87 -54 -130.5t-127 -43.5t-127 43.5t-55 130.5h106q0 -18 6.5 -33t17.5 -26.5t25 -17.5t28 -6t28 6t24.5 17.5t17 26.5t6.5 33h104zM185 -21h-113v771h135v-520l363 520h113v-771h-135l1 525z" />
    <glyph glyph-name="cid1031" unicode="&#x41a;" horiz-adv-x="760" 
d="M516 750h163l-312 -385l312 -386h-162l-298 366v-366h-137v771h137v-367z" />
    <glyph glyph-name="cid1032" unicode="&#x41b;" horiz-adv-x="746" 
d="M558 634h-268v-546q0 -51 -24 -80t-69 -29h-110v116h23q22 0 34.5 13.5t12.5 37.5v604h535v-771h-134v655z" />
    <glyph glyph-name="cid1033" unicode="&#x41c;" horiz-adv-x="940" 
d="M217 509v-530h-135v771h120l268 -408l267 408h120v-771h-135v530l-252 -385z" />
    <glyph glyph-name="cid1034" unicode="&#x41d;" horiz-adv-x="785" 
d="M99 -22v771h137v-315h313v315h137v-771h-137v343h-313v-343h-137z" />
    <glyph glyph-name="cid1035" unicode="&#x41e;" horiz-adv-x="816" 
d="M408 770q80 0 146.5 -25t114 -75t74 -127t26.5 -180q0 -104 -26.5 -179.5t-74 -125.5t-114 -74t-146.5 -24t-146.5 24.5t-114.5 74.5t-74.5 126t-26.5 179t26.5 179.5t74.5 126.5t114.5 75t146.5 25zM185 364q0 -81 17.5 -136t48 -89t71 -49t86.5 -15q45 0 85.5 15t71 49
t48 89t17.5 136q0 80 -17.5 135.5t-48 90t-71 50t-85.5 15.5q-46 0 -86.5 -15.5t-71 -50t-48 -90t-17.5 -135.5z" />
    <glyph glyph-name="cid1036" unicode="&#x41f;" horiz-adv-x="708" 
d="M488 634h-268v-634h-133v750h535v-750h-134v634z" />
    <glyph glyph-name="cid1037" unicode="&#x420;" horiz-adv-x="715" 
d="M82 -21v757q56 17 120 25.5t120 8.5q69 0 126.5 -14t99 -45.5t65 -82.5t23.5 -125t-23 -125.5t-62 -83t-90 -45.5t-107 -14q-35 0 -68 2.5t-69 10.5v-269h-135zM323 656q-30 0 -56.5 -4t-49.5 -9v-280q25 -6 52.5 -10t53.5 -4q38 0 70.5 7t56.5 24t37.5 47t13.5 76
t-13.5 75.5t-37.5 46.5t-56.5 24t-70.5 7z" />
    <glyph glyph-name="cid1038" unicode="&#x421;" horiz-adv-x="705" 
d="M401 652q-38 0 -76.5 -13.5t-69.5 -46.5t-51 -88t-20 -137q0 -83 19 -138t49.5 -89t69.5 -48t79 -14q56 0 101.5 14t101.5 49l58 -104q-27 -18 -55 -32.5t-59.5 -24t-67 -15t-78.5 -5.5q-64 0 -127.5 20.5t-114.5 67.5t-82.5 125t-31.5 192t31.5 191.5t82.5 125t114.5 68
t126.5 20.5q84 0 144 -24t114 -80l-90 -87q-32 38 -74.5 55.5t-93.5 17.5z" />
    <glyph glyph-name="cid1039" unicode="&#x422;" horiz-adv-x="558" 
d="M211 -21v655h-211v116h558v-116h-211v-655h-136z" />
    <glyph glyph-name="cid1040" unicode="&#x423;" horiz-adv-x="570" 
d="M219 187l-209 563h133l144 -407l145 407h132l-209 -563q-23 -62 -48.5 -107t-57.5 -77.5t-73 -56t-95 -41.5l-44 106q73 26 114.5 64t61.5 93z" />
    <glyph glyph-name="cid1041" unicode="&#x424;" horiz-adv-x="711" 
d="M291 -21v91q-46 8 -88 29t-74.5 57t-52 88t-19.5 122t19.5 121.5t51.5 87.5t74.5 57t88.5 29v89h117v-89q47 -7 90 -28t76 -57t52.5 -88t19.5 -122q0 -71 -19.5 -123.5t-52.5 -88.5t-76 -57t-90 -28v-90h-117zM521 366q0 39 -9 69.5t-25 53t-36.5 37t-42.5 22.5v-366
q22 8 42.5 23t36.5 37.5t25 53.5t9 70zM181 366q0 -39 9 -69t24 -52.5t35 -37.5t42 -24v364q-22 -8 -42 -23t-35 -37t-24 -52t-9 -69z" />
    <glyph glyph-name="cid1042" unicode="&#x425;" horiz-adv-x="684" 
d="M420 365l244 -386h-154l-168 270l-168 -270h-154l243 386l-243 385h154l168 -270l168 270h154z" />
    <glyph glyph-name="cid1043" unicode="&#x426;" horiz-adv-x="748" 
d="M60 -21v771h137v-657h259v657h137v-657h95v-268h-136v154h-492z" />
    <glyph glyph-name="cid1044" unicode="&#x427;" horiz-adv-x="693" 
d="M587 -21h-133v258q-18 -18 -43.5 -34.5t-54 -29t-57.5 -19.5t-54 -7q-31 0 -58 10.5t-46.5 32.5t-31 55t-11.5 78v427h133v-430q0 -28 11.5 -43.5t31.5 -15.5q16 0 41.5 11.5t52 29.5t50.5 40t36 43v365h133v-771z" />
    <glyph glyph-name="cid1045" unicode="&#x428;" horiz-adv-x="862" 
d="M91 -22v772h137v-658h138v658h137v-658h134v658h137v-772h-683z" />
    <glyph glyph-name="cid1046" unicode="&#x429;" horiz-adv-x="913" 
d="M91 750h137v-658h138v658h137v-658h134v658h137v-658h94v-267h-136v153h-641v772z" />
    <glyph glyph-name="cid1047" unicode="&#x42a;" horiz-adv-x="843" 
d="M454 -41q-56 0 -120.5 8.5t-119.5 25.5v641h-156v116h291v-269q36 8 69 10.5t68 2.5q56 0 107 -14t89.5 -45.5t61.5 -82.5t23 -125t-23 -125.5t-64.5 -83t-99 -45.5t-126.5 -14zM455 73q38 0 70.5 7t56 24t37 47t13.5 76t-13.5 75.5t-37 46.5t-56 24t-70.5 7
q-26 0 -53.5 -4t-52.5 -9v-280q23 -6 49.5 -10t56.5 -4z" />
    <glyph glyph-name="cid1048" unicode="&#x42b;" horiz-adv-x="927" 
d="M217 750v-269q36 8 69 10.5t68 2.5q56 0 107 -14t90 -45.5t62 -82.5t23 -125t-23.5 -125.5t-65 -83t-99 -45.5t-126.5 -14q-56 0 -120 8.5t-120 25.5v757h135zM708 -21v771h137v-771h-137zM323 73q38 0 70.5 7t56.5 24t37.5 47t13.5 76t-13.5 75.5t-37.5 46.5t-56.5 24
t-70.5 7q-26 0 -53.5 -4t-52.5 -9v-280q23 -6 49.5 -10t56.5 -4z" />
    <glyph glyph-name="cid1049" unicode="&#x42c;" horiz-adv-x="697" 
d="M217 750v-269q36 8 69 10.5t68 2.5q56 0 107 -14t90 -45.5t62 -82.5t23 -125t-23.5 -125.5t-65 -83t-99 -45.5t-126.5 -14q-56 0 -120 8.5t-120 25.5v757h135zM323 73q38 0 70.5 7t56.5 24t37.5 47t13.5 76t-13.5 75.5t-37.5 46.5t-56.5 24t-70.5 7q-26 0 -53.5 -4
t-52.5 -9v-280q23 -6 49.5 -10t56.5 -4z" />
    <glyph glyph-name="cid1050" unicode="&#x42d;" horiz-adv-x="727" 
d="M154 419h358q-6 66 -24 111t-44 72t-59 38.5t-67 11.5q-51 0 -93.5 -17.5t-74.5 -55.5l-90 87q54 56 114 80t144 24q63 0 123.5 -20.5t107 -68t75 -125t28.5 -191.5t-28.5 -192t-75.5 -125t-107 -67.5t-124 -20.5q-43 0 -78.5 5.5t-67 15t-59.5 24t-55 32.5l58 104
q56 -35 101.5 -49t101.5 -14q36 0 68 11.5t58 38t43.5 70t23.5 107.5h-357v114z" />
    <glyph glyph-name="cid1051" unicode="&#x42e;" horiz-adv-x="1000" 
d="M85 -21v771h134v-326h134q6 81 26 145.5t55.5 109t87 68t119.5 23.5q73 0 127.5 -28t90.5 -80.5t53.5 -128t17.5 -170.5q0 -96 -17.5 -170.5t-53 -126.5t-90 -79t-128.5 -27q-138 0 -208.5 92t-80.5 258h-133v-331h-134zM490 364q0 -145 36.5 -217t114.5 -72t114 72
t36 217q0 144 -36 217.5t-114 73.5t-114.5 -73.5t-36.5 -217.5z" />
    <glyph glyph-name="cid1052" unicode="&#x42f;" horiz-adv-x="759" 
d="M524 -21v321q-24 -5 -46.5 -8.5t-44.5 -4.5q-26 -59 -58 -116t-67 -110q-25 -38 -63 -60t-103 -22h-48l-13 117h34q33 0 58 13.5t45 47.5q20 33 40 67.5t39 71.5q-41 9 -76 28t-60.5 48t-40 67.5t-14.5 88.5q0 63 23.5 108.5t65 75.5t99 44t125.5 14q56 0 120.5 -8.5
t119.5 -25.5v-757h-135zM418 656q-38 0 -70.5 -6t-56 -21t-37 -39.5t-13.5 -61.5q0 -36 13.5 -60.5t37 -39.5t56 -21t70.5 -6q26 0 53.5 4t52.5 9v229q-23 5 -49.5 9t-56.5 4z" />
    <glyph glyph-name="cid1053" unicode="&#x430;" horiz-adv-x="573" 
d="M378 350q0 18 -6 36t-19 32.5t-35 23t-53 8.5q-72 0 -156 -46l-47 101q115 56 217 56q107 0 169.5 -55.5t62.5 -165.5v-361h-99l-21 58q-16 -17 -36.5 -31t-42.5 -24t-45 -16t-45 -6q-41 0 -75.5 13.5t-60.5 38t-40.5 59t-14.5 75.5q0 43 20.5 80t57.5 64t88 42.5
t113 16.5zM166 146q0 -30 22 -52.5t59 -22.5q19 0 38.5 7.5t36.5 19.5t31.5 28t24.5 33v88l-62 -1q-41 -1 -69.5 -10t-46.5 -23t-26 -31.5t-8 -35.5z" />
    <glyph glyph-name="cid1054" unicode="&#x431;" horiz-adv-x="617" 
d="M337 659q-25 0 -49 -10.5t-44 -32t-34 -54.5t-19 -79q34 30 71 47t82 17q57 0 100 -24.5t71.5 -65t42.5 -93t14 -109.5q0 -66 -13.5 -120t-43.5 -93t-77.5 -60.5t-114.5 -21.5q-134 0 -199 106.5t-65 307.5q0 100 21 174.5t58 123.5t87.5 73.5t108.5 24.5q34 0 63.5 -6
t56.5 -19.5t52 -36t50 -55.5l-87 -68q-20 23 -36 37.5t-31.5 22.5t-31 11t-33.5 3zM330 435q-23 0 -42 -8t-36 -21t-31.5 -28.5t-27.5 -31.5q1 -43 7.5 -91.5t21.5 -89t39.5 -67t61.5 -26.5q57 0 87 50t30 137q0 36 -7 68t-20.5 56t-34 38t-48.5 14z" />
    <glyph glyph-name="cid1055" unicode="&#x432;" horiz-adv-x="634" 
d="M343 -41q-56 0 -117.5 7.5t-110.5 21.5v545q42 13 98.5 20.5t107.5 7.5q100 0 154 -42t54 -125q0 -42 -19 -71t-49 -44q37 -20 65.5 -57t28.5 -84q0 -44 -15.5 -77.5t-43.5 -56t-67 -34t-86 -11.5zM315 453q-21 0 -36 -1.5t-32 -4.5v-120h68q47 0 65 18.5t18 44.5
q0 27 -19.5 45t-63.5 18zM247 219v-142q23 -5 41.5 -7.5t43.5 -2.5q46 0 68.5 20t22.5 57q0 33 -22.5 54t-68.5 21h-85z" />
    <glyph glyph-name="cid1056" unicode="&#x433;" horiz-adv-x="602" 
d="M98 0v541h431v-115h-301v-426h-130z" />
    <glyph glyph-name="cid1057" unicode="&#x434;" horiz-adv-x="746" 
d="M129 83q28 2 45.5 20t27.5 45t14 59.5t4 65.5v269h363v-459h69v-258h-129v155h-322v-155h-129v258h57zM349 303q0 -81 -6.5 -134.5t-39.5 -85.5h151v350h-105v-130z" />
    <glyph glyph-name="cid1058" unicode="&#x435;" horiz-adv-x="677" 
d="M336 561q50 0 99 -17.5t87.5 -54t62.5 -93.5t24 -135v-48h-409q3 -28 14.5 -53.5t31.5 -45t49 -31t68 -11.5q40 0 81 13.5t79 42.5l50 -99q-47 -36 -103 -52.5t-120 -16.5q-56 0 -108 18t-92 55t-64 94t-24 134q0 78 24 135t63 93.5t88 54t99 17.5zM336 449
q-29 0 -52 -10.5t-40 -28.5t-28.5 -42t-15.5 -52h273q-5 27 -16 51.5t-28.5 42.5t-41 28.5t-51.5 10.5z" />
    <glyph glyph-name="cid1060" unicode="&#x436;" horiz-adv-x="1025" 
d="M442 -21v282l-242 -282h-152l251 294l-209 269h151l201 -257v258h129v-258l200 257h152l-209 -269l250 -294h-151l-242 282v-282h-129z" />
    <glyph glyph-name="cid1061" unicode="&#x437;" horiz-adv-x="554" 
d="M261 72q40 0 65.5 14.5t25.5 52.5q0 36 -26.5 56t-83.5 20h-50v101h46q52 1 77.5 21.5t25.5 55.5q0 56 -79 56q-26 0 -54.5 -15t-48.5 -41l-75 70q40 51 87.5 74.5t101.5 23.5q43 0 80 -12.5t64.5 -35t43 -53.5t15.5 -67q0 -37 -16.5 -68.5t-42.5 -52.5
q31 -23 50.5 -55.5t19.5 -77.5q0 -47 -19.5 -80.5t-51 -55.5t-72.5 -32.5t-83 -10.5q-23 0 -48 4t-49 11t-46 17t-38 22l49 104q32 -22 65 -34t67 -12z" />
    <glyph glyph-name="cid1062" unicode="&#x438;" horiz-adv-x="676" 
d="M203 -21h-104v563h129v-351l273 351h104v-563h-129l1 357z" />
    <glyph glyph-name="cid1063" unicode="&#x439;" horiz-adv-x="686" 
d="M528 748q-2 -44 -16 -76.5t-38 -54t-56.5 -32.5t-70.5 -11q-77 0 -127 43.5t-54 130.5h119q0 -37 17 -55t46 -18t46 18t17 55h117zM201 -21h-102v563h129v-356l275 356h102v-563h-129l1 361z" />
    <glyph glyph-name="cid1064" unicode="&#x43a;" horiz-adv-x="688" 
d="M114 -21v563h129v-257l201 257h151l-209 -269l251 -294h-152l-242 282v-282h-129z" />
    <glyph glyph-name="cid1065" unicode="&#x43b;" horiz-adv-x="712" 
d="M470 430h-217v-349q0 -51 -24 -77t-69 -26h-107v107h23q22 0 34.5 14t12.5 38v405h475v-563h-128v451z" />
    <glyph glyph-name="cid1066" unicode="&#x43c;" horiz-adv-x="755" 
d="M202 327v-348h-122v564h106l192 -280l192 280h106v-564h-122v349l-176 -253z" />
    <glyph glyph-name="cid1067" unicode="&#x43d;" horiz-adv-x="634" 
d="M63 -21v563h132v-212h251v212h132v-563h-132v240h-251v-240h-132z" />
    <glyph glyph-name="cid1068" unicode="&#x43e;" horiz-adv-x="650" 
d="M315 -40q-54 0 -102.5 18t-86 55t-59.5 94t-22 134t22 133.5t59 93.5t86 55t103 18t103 -18t86 -55t59 -93.5t22 -133.5t-22 -134t-59 -94t-86 -55t-103 -18zM315 450q-29 0 -54.5 -10.5t-45 -33.5t-30.5 -58.5t-11 -86.5t11 -87t30.5 -59t45 -33.5t54.5 -10.5t54.5 10.5
t45 33.5t30.5 59t11 87t-11 86.5t-30.5 58.5t-45 33.5t-54.5 10.5z" />
    <glyph glyph-name="cid1069" unicode="&#x43f;" horiz-adv-x="640" 
d="M452 435h-257v-456h-129v563h515v-563h-129v456z" />
    <glyph glyph-name="cid1070" unicode="&#x440;" horiz-adv-x="651" 
d="M311 -40q-55 0 -102 19v-259h-132v822h98l21 -58q23 31 66.5 54t97.5 23q57 0 102.5 -22.5t77 -62t48.5 -93t17 -115.5q0 -70 -24 -127t-64.5 -97t-94 -62t-111.5 -22zM209 100q23 -14 48 -20.5t58 -6.5q34 0 62.5 14t49.5 39.5t33 61.5t12 80t-9 78t-24.5 57t-36 35
t-44.5 12q-46 0 -87 -28.5t-62 -79.5v-242z" />
    <glyph glyph-name="cid1071" unicode="&#x441;" horiz-adv-x="568" 
d="M452 392q-25 27 -54.5 41.5t-74.5 14.5q-63 0 -103 -49t-40 -139q0 -91 40 -139t105 -48q42 0 79.5 11.5t69.5 36.5l54 -99q-45 -34 -96 -48t-108 -14q-69 0 -121 23t-86.5 63.5t-52 95.5t-17.5 119t17.5 119t52 95t86 63t119.5 23q72 0 124.5 -24t84.5 -65z" />
    <glyph glyph-name="cid1072" unicode="&#x442;" horiz-adv-x="557" 
d="M212 -21v456h-181v107h495v-107h-181v-456h-133z" />
    <glyph glyph-name="cid1073" unicode="&#x443;" horiz-adv-x="636" 
d="M256 -21l-209 563h133l144 -407l145 407h133l-210 -563q-23 -62 -48.5 -107t-57.5 -77.5t-73 -56t-95 -41.5l-44 106q73 26 115 64t61 93z" />
    <glyph glyph-name="cid1074" unicode="&#x444;" horiz-adv-x="967" 
d="M671 -30q-57 0 -102 20v-165h-132v165q-46 -20 -101 -20q-58 0 -111.5 20.5t-94 58.5t-64.5 93.5t-24 125.5q0 62 18.5 117t52 96.5t80.5 66t104 24.5q43 0 78.5 -11t61.5 -34v243h132v-250q25 26 59 39t82 13q57 0 104 -24.5t80 -66t51.5 -96.5t18.5 -117
q0 -70 -24 -125.5t-64.5 -93.5t-93.5 -58.5t-111 -20.5zM438 234q0 -1 -0.5 -2t-0.5 -3v136q-22 51 -57.5 73t-80.5 22q-24 0 -46 -13.5t-39.5 -38.5t-28 -60.5t-10.5 -79.5t12 -78.5t33 -58t49.5 -36t62.5 -12.5q32 0 57 7t48 19l1 1v124zM569 110q23 -13 47.5 -20t58.5 -7
q33 0 61.5 12.5t49.5 36t33 58t12 78.5t-10.5 79.5t-28 60.5t-39.5 38.5t-45 13.5q-47 0 -83 -23t-56 -74v-253z" />
    <glyph glyph-name="cid1075" unicode="&#x445;" horiz-adv-x="645" 
d="M455 -21l-135 195l-134 -195h-147l205 292l-190 271h143l123 -175l124 175h144l-190 -271l205 -292h-148z" />
    <glyph glyph-name="cid1076" unicode="&#x446;" horiz-adv-x="692" 
d="M55 -21v563h137v-453h245v453h137v-453h70v-264h-134v154h-455z" />
    <glyph glyph-name="cid1077" unicode="&#x447;" horiz-adv-x="609" 
d="M539 -21h-133v189q-18 -18 -40.5 -34.5t-47 -29t-50.5 -19.5t-51 -7q-31 0 -58 10.5t-46.5 32.5t-31 55t-11.5 78v288h133v-291q0 -54 43 -54q14 0 35.5 11t44.5 28t44.5 38.5t35.5 41.5v226h133v-563z" />
    <glyph glyph-name="cid1078" unicode="&#x448;" horiz-adv-x="758" 
d="M41 -21v563h135v-460h139v460h135v-460h135v460h135v-563h-679z" />
    <glyph glyph-name="cid1079" unicode="&#x449;" horiz-adv-x="809" 
d="M55 -21v563h137v-460h130v460h137v-460h132v460h137v-460h70v-257h-134v154h-609z" />
    <glyph glyph-name="cid1080" unicode="&#x44a;" horiz-adv-x="727" 
d="M327 336h97q43 0 82 -12.5t68.5 -37t46.5 -60.5t17 -84q0 -44 -16.5 -78.5t-45.5 -57.5t-68 -35t-84 -12q-56 0 -118.5 7.5t-111.5 21.5v450h-102v104h235v-206zM327 224v-143q41 -10 93 -10q42 0 64 20t22 57q0 34 -22 55t-64 21h-93z" />
    <glyph glyph-name="cid1081" unicode="&#x44b;" horiz-adv-x="797" 
d="M312 336q43 0 81.5 -12.5t68 -37t46.5 -60.5t17 -84q0 -44 -16.5 -78.5t-45.5 -57.5t-67.5 -35t-83.5 -12q-56 0 -119 7.5t-112 21.5v555h133v-207h98zM582 -21v563h137v-563h-137zM214 224v-143q43 -10 94 -10q42 0 63.5 20t21.5 57q0 34 -21.5 55t-63.5 21h-94z" />
    <glyph glyph-name="cid1082" unicode="&#x44c;" horiz-adv-x="593" 
d="M312 336q43 0 81.5 -12.5t68 -37t46.5 -60.5t17 -84q0 -44 -16.5 -78.5t-45.5 -57.5t-67.5 -35t-83.5 -12q-56 0 -119 7.5t-112 21.5v555h133v-207h98zM214 224v-143q43 -10 94 -10q42 0 63.5 20t21.5 57q0 34 -21.5 55t-63.5 21h-94z" />
    <glyph glyph-name="cid1083" unicode="&#x44d;" horiz-adv-x="590" 
d="M128 312h272q-12 66 -48.5 102.5t-90.5 36.5q-45 0 -74.5 -14t-54.5 -41l-79 79q32 41 84.5 63.5t124.5 22.5q68 0 119.5 -23t86 -63t52 -95t17.5 -119t-17.5 -119t-52 -95.5t-86.5 -63.5t-121 -23q-57 0 -108 14t-96 48l54 95q32 -25 69.5 -36t79.5 -11q56 0 93.5 37
t48.5 105h-273v100z" />
    <glyph glyph-name="cid1084" unicode="&#x44e;" horiz-adv-x="857" 
d="M65 -21v563h134v-224h101q6 65 27.5 111t54.5 75.5t76 43t92 13.5q54 0 100.5 -16.5t80 -52.5t53 -93t19.5 -138t-19 -138.5t-53 -93.5t-80.5 -52.5t-100.5 -16.5q-49 0 -91.5 13.5t-76 43t-55 75.5t-28.5 112h-100v-225h-134zM550 450q-58 0 -89 -44t-31 -145
q0 -102 31 -146t89 -44t89.5 44t31.5 146q0 101 -31.5 145t-89.5 44z" />
    <glyph glyph-name="cid1085" unicode="&#x44f;" horiz-adv-x="639" 
d="M408 -21v228q-14 -2 -26 -3.5t-25 -1.5q-20 -45 -44 -87.5t-47 -71.5q-11 -13 -23 -24.5t-27 -20.5t-33 -14t-41 -5h-45l-13 106h41q16 0 30.5 9t25.5 23q12 18 27 44.5t31 55.5q-49 18 -80 58.5t-31 106.5q0 48 16.5 81.5t46.5 55.5t71 32t90 10q20 0 44.5 -1.5t49.5 -5
t49.5 -8t45.5 -10.5v-557h-133zM352 449q-44 0 -74 -15t-30 -52q0 -19 8 -32t22 -21t33 -11.5t41 -3.5q14 0 27.5 1.5t28.5 3.5v124q-29 6 -56 6z" />
    <glyph glyph-name="cid1059" unicode="&#x451;" horiz-adv-x="677" 
d="M304 621h-131v123h131v-123zM510 621h-131v123h131v-123zM336 561q50 0 99 -17.5t87.5 -54t62.5 -93.5t24 -135v-48h-409q3 -28 14.5 -53.5t31.5 -45t49 -31t68 -11.5q40 0 81 13.5t79 42.5l50 -99q-47 -36 -103 -52.5t-120 -16.5q-56 0 -108 18t-92 55t-64 94t-24 134
q0 78 24 135t63 93.5t88 54t99 17.5zM336 449q-29 0 -52 -10.5t-40 -28.5t-28.5 -42t-15.5 -52h273q-5 27 -16 51.5t-28.5 42.5t-41 28.5t-51.5 10.5z" />
    <glyph glyph-name="cid97" unicode="&#x2010;" horiz-adv-x="854" 
d="M249 294v123h380v-123h-380z" />
    <glyph glyph-name="cid110" unicode="&#x2014;" horiz-adv-x="978" 
d="M901 308h-824v109h824v-109z" />
    <glyph glyph-name="cid110" unicode="&#x2015;" horiz-adv-x="978" 
d="M901 308h-824v109h824v-109z" />
    <glyph glyph-name="cid111" unicode="&#x2016;" horiz-adv-x="977" 
d="M293 -163v944h141v-944h-141zM544 -163v944h141v-944h-141z" />
    <glyph glyph-name="cid114" unicode="&#x2018;" horiz-adv-x="347" 
d="M268 572h-183v168q0 24 8.5 52t24 56t37.5 52t50 40l45 -41q-43 -35 -60.5 -71t-12.5 -84h91v-172z" />
    <glyph glyph-name="cid115" unicode="&#x2019;" horiz-adv-x="347" 
d="M85 847h183v-169q0 -24 -8.5 -52t-24 -55.5t-37.5 -51.5t-50 -40l-45 41q43 35 60.5 71t13.5 84h-92v172z" />
    <glyph glyph-name="cid116" unicode="&#x201c;" horiz-adv-x="594" 
d="M271 572h-182v168q0 24 8 52t23.5 55.5t37.5 52t50 40.5l46 -41q-45 -35 -62 -71t-12 -84h91v-172zM509 572h-182v168q0 24 8 52t23.5 55.5t37.5 52t50 40.5l46 -41q-45 -35 -62 -71t-12 -84h91v-172z" />
    <glyph glyph-name="cid117" unicode="&#x201d;" horiz-adv-x="594" 
d="M89 850h182v-168q0 -24 -8 -52t-23.5 -55.5t-37.5 -52t-50 -40.5l-46 41q45 35 62 71t12 84h-91v172zM327 850h182v-168q0 -24 -8 -52t-23.5 -55.5t-37.5 -52t-50 -40.5l-46 41q45 35 62 71t12 84h-91v172z" />
    <glyph glyph-name="cid245" unicode="&#x2020;" horiz-adv-x="978" 
d="M419 -87v545h-160v120h160v193h139v-193h161v-120h-161v-545h-139z" />
    <glyph glyph-name="cid246" unicode="&#x2021;" horiz-adv-x="978" 
d="M419 -87v330h-160v117h160v126h-160v118h160v167h139v-167h161v-118h-161v-126h161v-117h-161v-330h-139z" />
    <glyph glyph-name="cid8607" unicode="&#x2022;" horiz-adv-x="512" 
d="M334 286h-159v154h159v-154z" />
    <glyph glyph-name="cid105" unicode="&#x2025;" horiz-adv-x="622" 
d="M238 286h-159v154h159v-154zM545 286h-159v154h159v-154z" />
    <glyph glyph-name="cid106" unicode="&#x2026;" horiz-adv-x="889" 
d="M238 286h-159v154h159v-154zM525 286h-159v154h159v-154zM811 286h-159v154h159v-154z" />
    <glyph glyph-name="cid106" unicode="&#x22ef;" horiz-adv-x="889" 
d="M238 286h-159v154h159v-154zM525 286h-159v154h159v-154zM811 286h-159v154h159v-154z" />
    <glyph glyph-name="cid216" unicode="&#x2030;" horiz-adv-x="1069" 
d="M220 -40l-102 48l400 779l102 -48zM334 587q0 -45 -15 -76t-37.5 -49.5t-49 -27t-49.5 -8.5t-49 8.5t-48.5 27t-37.5 49.5t-15 76t15 76t37.5 49.5t48.5 26.5t49 8t49.5 -8t49 -26.5t37.5 -49.5t15 -76zM132 587q0 -35 15.5 -50.5t35.5 -15.5q21 0 36.5 15.5t15.5 50.5
t-15.5 50.5t-36.5 15.5q-20 0 -35.5 -15.5t-15.5 -50.5zM690 140q0 -45 -14.5 -76t-37 -49.5t-49 -27t-49.5 -8.5t-49.5 8.5t-49 27t-37.5 49.5t-15 76t15 76t37.5 49.5t49 26.5t49.5 8t49.5 -8t49 -26.5t37 -49.5t14.5 -76zM1040 140q0 -45 -14.5 -76t-37 -49.5t-49 -27
t-49.5 -8.5t-49.5 8.5t-49 27t-37 49.5t-14.5 76t14.5 76t37 49.5t49 26.5t49.5 8t49.5 -8t49 -26.5t37 -49.5t14.5 -76zM488 140q0 -35 15.5 -50.5t36.5 -15.5t36 15.5t15 50.5t-15 50.5t-36 15.5t-36.5 -15.5t-15.5 -50.5zM838 140q0 -35 15.5 -50.5t36.5 -15.5t36 15.5
t15 50.5t-15 50.5t-36 15.5t-36.5 -15.5t-15.5 -50.5z" />
    <glyph glyph-name="cid139" unicode="&#x2032;" horiz-adv-x="386" 
d="M148 575h-104l130 299h178z" />
    <glyph glyph-name="cid140" unicode="&#x2033;" horiz-adv-x="633" 
d="M148 575h-104l130 299h178zM396 575h-105l130 299h178z" />
    <glyph glyph-name="cid156" unicode="&#x203b;" horiz-adv-x="978" 
d="M489 528q-37 0 -61.5 24.5t-24.5 61.5q0 36 24.5 60.5t61.5 24.5t61 -24.5t24 -60.5q0 -37 -24 -61.5t-61 -24.5zM299 609l194 -195l195 195l79 -80l-194 -194l194 -195l-79 -79l-195 194l-194 -194l-80 79l195 195l-195 194zM293 334q0 -38 -25 -62.5t-61 -24.5
t-60.5 24.5t-24.5 62.5q0 36 24.5 60t60.5 24t61 -24t25 -60zM855 334q0 -38 -24.5 -62.5t-61.5 -24.5q-36 0 -60.5 24.5t-24.5 62.5q0 36 24.5 60t60.5 24q37 0 61.5 -24t24.5 -60zM489 -34q-37 0 -61.5 24.5t-24.5 60.5q0 37 24.5 61.5t61.5 24.5t61 -24.5t24 -61.5
q0 -36 -24 -60.5t-61 -24.5z" />
    <glyph glyph-name="cid357" unicode="&#x203e;" horiz-adv-x="900" 
d="M9 662v117h882v-117h-882z" />
    <glyph glyph-name="cid357" unicode="&#xffe3;" horiz-adv-x="900" 
d="M9 662v117h882v-117h-882z" />
    <glyph glyph-name="cid845" unicode="&#x2074;" horiz-adv-x="680" 
d="M142 446v64l203 341h94v-311h52v-94h-52v-108h-97v108h-200zM265 540h77v134z" />
    <glyph glyph-name="cid846" unicode="&#x207f;" horiz-adv-x="680" 
d="M146 806h85l19 -56q32 29 74.5 50.5t84.5 21.5q50 0 84.5 -34t34.5 -105v-306h-112v306q0 44 -30 44q-14 0 -31.5 -8.5t-35.5 -22t-34 -30t-26 -32.5v-257h-113v429z" />
    <glyph glyph-name="cid847" unicode="&#x2081;" horiz-adv-x="639" 
d="M286 -24v374l-57 -42l-55 74l138 107h75v-513h-101z" />
    <glyph glyph-name="cid848" unicode="&#x2082;" horiz-adv-x="639" 
d="M301 488q34 -1 63 -9t51 -26.5t34.5 -48.5t12.5 -73t-19 -80t-60 -84l-82 -95h172v-96h-314v81q13 13 33.5 35.5t43 48t44.5 51t37 44.5q21 27 34.5 52.5t13.5 43.5q0 31 -19 47.5t-47 16.5q-25 0 -45.5 -17.5t-31.5 -40.5l-76 52q30 49 67 74t88 24z" />
    <glyph glyph-name="cid849" unicode="&#x2083;" horiz-adv-x="639" 
d="M308 67q31 0 52.5 19t21.5 48q0 28 -22.5 46t-66.5 18h-49v89h44q41 1 64.5 19t23.5 46q0 20 -18.5 36.5t-49.5 16.5q-20 0 -42.5 -14t-40.5 -36l-66 54q36 45 77 65t81 20q75 0 115 -40t40 -103q0 -31 -14 -58t-34 -46q26 -19 41.5 -47.5t15.5 -66.5t-13.5 -67t-37 -49
t-55 -30.5t-67.5 -10.5q-39 0 -80.5 13t-69.5 36l37 82q30 -21 58 -30.5t55 -9.5z" />
    <glyph glyph-name="cid850" unicode="&#x2084;" horiz-adv-x="639" 
d="M144 95v64l203 341h94v-312h52v-93h-52v-108h-97v108h-200zM267 188h77v134z" />
    <glyph glyph-name="cid96" unicode="&#x20a9;" horiz-adv-x="1030" 
d="M30 464h128l-72 277h122l62 -277h122l63 286h116l61 -286h121l63 277h122l-72 -277h131v-99h-157l-96 -367h-104l-79 367h-97l-80 -367h-104l-96 367h-154v99zM485 464h55l-27 127zM332 188l38 177h-78zM692 188l39 177h-77z" />
    <glyph glyph-name="cid18354" unicode="&#x20ac;" horiz-adv-x="846" 
d="M524 616q-25 0 -48 -10t-42.5 -26.5t-36 -39.5t-28.5 -48h199v-106h-225q-1 -8 -1 -21v-21v-26t1 -24h225v-106h-196q12 -24 28.5 -45.5t35.5 -38t41.5 -26t46.5 -9.5q42 0 80.5 10.5t84.5 47.5l56 -90q-97 -77 -221 -77q-42 0 -86.5 13.5t-84.5 41.5t-72 71t-49 102h-90
v106h72q-1 9 -1 23.5v24.5v22t1 22h-72v106h89q17 61 49 105t71.5 72.5t84.5 42t87 13.5q66 0 119.5 -21.5t99.5 -82.5l-88 -72q-24 36 -57.5 51.5t-72.5 15.5z" />
    <glyph glyph-name="cid141" unicode="&#x2103;" horiz-adv-x="1053" 
d="M191 809q28 0 52.5 -9.5t42.5 -27t28 -41.5t10 -52q0 -29 -10 -53.5t-28 -42t-42.5 -27.5t-52.5 -10q-29 0 -53.5 10t-42.5 27.5t-28 42t-10 53.5q0 28 10 52t28 41.5t42.5 27t53.5 9.5zM741 652q-38 0 -76.5 -13.5t-69.5 -46.5t-51 -88t-20 -137q0 -83 19 -138t49.5 -89
t69.5 -48t79 -14q28 0 52.5 3t48.5 10.5t48.5 19.5t52.5 30l59 -104q-27 -18 -55 -32.5t-59.5 -24t-67 -15t-78.5 -5.5q-64 0 -127.5 20.5t-114.5 67.5t-82.5 125t-31.5 192t31.5 191.5t82.5 125t114.5 68t126.5 20.5q84 0 144 -24t114 -80l-91 -87q-31 38 -73.5 55.5
t-93.5 17.5zM190 730q-24 0 -37 -14.5t-13 -36.5t13 -38t37 -16q23 0 37.5 16t14.5 38t-14.5 36.5t-37.5 14.5z" />
    <glyph glyph-name="cid215" unicode="&#x2109;" horiz-adv-x="1053" 
d="M242 809q28 0 52.5 -9.5t42.5 -27t28.5 -41.5t10.5 -52q0 -29 -10.5 -53.5t-28.5 -42t-42.5 -27.5t-52.5 -10q-29 0 -53.5 10t-42.5 27.5t-28 42t-10 53.5q0 28 10 52t28 41.5t42.5 27t53.5 9.5zM452 -21v771h462v-114h-327v-209h282v-112h-282v-336h-135zM241 730
q-24 0 -36.5 -14.5t-12.5 -36.5t12.5 -38t36.5 -16t38.5 16t14.5 38t-14.5 36.5t-38.5 14.5z" />
    <glyph glyph-name="cid590" unicode="&#x2113;" horiz-adv-x="628" 
d="M64 195q36 17 70 34.5t54 37.5v250q0 132 41 192.5t121 60.5q39 0 68 -14t47.5 -38.5t27.5 -57.5t9 -70q-1 -66 -17 -122.5t-43 -105t-62.5 -90t-74.5 -76.5v-88q0 -27 9.5 -38t25.5 -11q18 0 46.5 9.5t56.5 27.5l40 -94q-29 -21 -67.5 -31.5t-75.5 -10.5t-63.5 5.5
t-44.5 19t-28 36t-13 56.5q-1 10 -2 28t-1 30q-19 -12 -38.5 -21.5t-39.5 -18.5zM303 355q16 19 31 45.5t26 55t18.5 57t8.5 53.5q1 41 -8 66t-30 25q-24 0 -35 -35t-11 -113v-154z" />
    <glyph glyph-name="cid258" unicode="&#x2116;" horiz-adv-x="1051" 
d="M198 465l1 -486h-119v771h88l250 -481v481h119v-771h-93zM786 159q-38 0 -73.5 11.5t-64 36.5t-45.5 65t-17 97t17 96.5t45 65t64 37t74 11.5t74 -11.5t64 -37t45 -65t17 -96.5t-17 -97t-45 -65t-64 -36.5t-74 -11.5zM786 474q-34 0 -54.5 -24.5t-20.5 -80.5t20.5 -78.5
t54.5 -22.5q33 0 54.5 22.5t21.5 78.5t-21.5 80.5t-54.5 24.5zM602 89h372v-110h-372v110z" />
    <glyph glyph-name="cid263" unicode="&#x2121;" horiz-adv-x="1119" 
d="M206 -21v666h-170v105h465v-105h-170v-666h-125zM415 -21v562h303v-102h-181v-125h147v-100h-147v-133h192v-102h-314zM783 -21v562h122v-459h170v-103h-292z" />
    <glyph glyph-name="cid260" unicode="&#x2122;" horiz-adv-x="912" 
d="M156 330v361h-120v90h349v-90h-119v-361h-110zM524 590v-260h-102v451h86l134 -224l134 224h85v-451h-102v260l-117 -182z" />
    <glyph glyph-name="cid643" unicode="&#x2126;" horiz-adv-x="1189" 
d="M595 653q-51 0 -89.5 -17t-64 -46t-38.5 -67.5t-13 -80.5t11 -80t32 -68.5t52 -52.5t72 -31v-231h-298v116h164v40q-39 17 -69.5 48.5t-52 72t-33 89t-11.5 99.5q0 70 26.5 129.5t72.5 103t107.5 68.5t131.5 25t131.5 -25t107.5 -68.5t72.5 -103t26.5 -129.5
q0 -53 -12 -100.5t-33.5 -88t-52.5 -71.5t-69 -49v-40h166v-116h-299v231q40 9 71 31t52.5 53t32.5 69t11 79q0 43 -13 81t-38.5 67t-64 46t-89.5 17z" />
    <glyph glyph-name="cid142" unicode="&#x212b;" horiz-adv-x="946" 
d="M465 912q28 0 52.5 -9.5t42.5 -27t28 -41.5t10 -52q0 -31 -11.5 -56.5t-31.5 -43.5l253 -703h-140l-64 188h-280l-63 -188h-139l251 703q-20 18 -31 43.5t-11 56.5q0 28 10 52t28 41.5t42.5 27t53.5 9.5zM463 833q-23 0 -36 -14.5t-13 -36.5t13 -38t36 -16q24 0 38.5 16
t14.5 38t-14.5 36.5t-38.5 14.5zM364 281h200l-99 293z" />
    <glyph glyph-name="cid749" unicode="&#x2153;" horiz-adv-x="1069" 
d="M200 310v374l-58 -42l-54 74l138 107h75v-513h-101zM282 -118h-118l513 926h118zM771 -30q32 0 53.5 19t21.5 48q0 28 -22.5 46t-67.5 18h-48v90h44q40 1 63.5 18.5t23.5 45.5q0 20 -18 36.5t-50 16.5q-19 0 -41.5 -14t-41.5 -35l-66 53q37 45 77.5 65.5t81.5 20.5
q75 0 114.5 -40.5t39.5 -103.5q0 -31 -13.5 -58t-33.5 -46q26 -18 41.5 -47t15.5 -67t-13.5 -67t-37.5 -49t-55.5 -30.5t-67.5 -10.5q-38 0 -80 13t-70 36l37 82q30 -21 58 -30.5t55 -9.5z" />
    <glyph glyph-name="cid750" unicode="&#x2154;" horiz-adv-x="1069" 
d="M346 -118h-118l513 926h118zM234 784q34 -1 63.5 -9t51.5 -26.5t34.5 -48.5t12.5 -74q0 -42 -19.5 -79.5t-60.5 -84.5l-82 -94h172v-96h-314v80q13 13 33.5 35.5t43 48t44.5 51t37 44.5q21 28 34.5 53.5t13.5 42.5q0 31 -19 47.5t-47 16.5q-25 0 -45.5 -17.5t-30.5 -40.5
l-77 53q30 49 67 74t88 24zM782 -30q31 0 52.5 19t21.5 48q0 28 -22.5 46t-67.5 18h-48v90h44q41 1 64.5 18.5t23.5 45.5q0 20 -18.5 36.5t-49.5 16.5q-20 0 -42.5 -14t-41.5 -35l-66 53q37 45 77.5 65.5t81.5 20.5q75 0 115 -40.5t40 -103.5q0 -31 -14 -58t-34 -46
q26 -18 41.5 -47t15.5 -67t-13.5 -67t-37 -49t-55 -30.5t-67.5 -10.5q-39 0 -81 13t-70 36l37 82q31 -21 59 -30.5t55 -9.5z" />
    <glyph glyph-name="cid753" unicode="&#x215b;" horiz-adv-x="1069" 
d="M241 310v374l-58 -42l-54 74l138 107h75v-513h-101zM319 -118h-118l513 926h118zM612 41q0 32 16.5 61.5t43.5 49.5q-20 19 -32.5 43.5t-12.5 53.5t11 53.5t31 42.5t48 28t61 10t60.5 -10t47.5 -28t31 -42.5t11 -53.5q0 -30 -12.5 -53.5t-35.5 -43.5q29 -17 46 -44
t17 -66q0 -34 -11.5 -62t-33.5 -48t-52.5 -31t-67.5 -11q-38 0 -68.5 11t-52 31t-33.5 48t-12 61zM798 188q18 14 25.5 28.5t7.5 31.5q0 20 -12.5 36t-40.5 16t-41 -15.5t-13 -34.5q0 -31 53 -53zM847 41q0 23 -17 35t-39 21h1q-11 3 -20 6.5t-20 6.5q-20 -13 -31.5 -29.5
t-11.5 -39.5q0 -29 18 -48.5t51 -19.5q32 0 50.5 19.5t18.5 48.5z" />
    <glyph glyph-name="cid754" unicode="&#x215c;" horiz-adv-x="1069" 
d="M252 388q32 0 53.5 19t21.5 48q0 28 -22.5 46t-67.5 18h-49v90h45q40 1 63.5 19t23.5 46q0 20 -18 36t-50 16q-19 0 -41.5 -13.5t-41.5 -35.5l-66 53q36 45 77 65.5t82 20.5q74 0 114 -40t40 -103q0 -32 -13.5 -59t-33.5 -45q26 -19 41 -48t15 -67t-13.5 -67t-37 -49
t-55 -30t-67.5 -10q-38 0 -80 12.5t-70 35.5l37 82q59 -40 113 -40zM303 -118h-119l513 926h119zM612 41q0 32 16.5 61.5t43.5 49.5q-20 19 -32.5 43.5t-12.5 53.5t11 53.5t31 42.5t48 28t61 10t60.5 -10t47.5 -28t31 -42.5t11 -53.5q0 -30 -12.5 -53.5t-35.5 -43.5
q29 -17 46 -44t17 -66q0 -34 -11.5 -62t-33.5 -48t-52.5 -31t-67.5 -11q-38 0 -68.5 11t-52 31t-33.5 48t-12 61zM798 188q18 14 25.5 28.5t7.5 31.5q0 20 -12.5 36t-40.5 16t-41 -15.5t-13 -34.5q0 -31 53 -53zM847 41q0 23 -17 35t-39 21h1q-11 3 -20 6.5t-20 6.5
q-20 -13 -31.5 -29.5t-11.5 -39.5q0 -29 18 -48.5t51 -19.5q32 0 50.5 19.5t18.5 48.5z" />
    <glyph glyph-name="cid755" unicode="&#x215d;" horiz-adv-x="1069" 
d="M303 -118h-119l513 926h119zM260 324q-69 0 -143 46l36 81q61 -41 107 -41q29 0 50 20t21 55q0 38 -17.5 57t-43.5 19q-20 0 -41 -10.5t-36 -30.5l-67 38l20 239h252v-86h-170q-2 -20 -3.5 -38t-4.5 -39q13 6 27 9t27 3q71 0 112 -43t41 -118q0 -36 -12.5 -66t-34.5 -51
t-52.5 -32.5t-67.5 -11.5zM612 41q0 32 16.5 61.5t43.5 49.5q-20 19 -32.5 43.5t-12.5 53.5t11 53.5t31 42.5t48 28t61 10t60.5 -10t47.5 -28t31 -42.5t11 -53.5q0 -30 -12.5 -53.5t-35.5 -43.5q29 -17 46 -44t17 -66q0 -34 -11.5 -62t-33.5 -48t-52.5 -31t-67.5 -11
q-38 0 -68.5 11t-52 31t-33.5 48t-12 61zM798 188q18 14 25.5 28.5t7.5 31.5q0 20 -12.5 36t-40.5 16t-41 -15.5t-13 -34.5q0 -31 53 -53zM847 41q0 23 -17 35t-39 21h1q-11 3 -20 6.5t-20 6.5q-20 -13 -31.5 -29.5t-11.5 -39.5q0 -29 18 -48.5t51 -19.5q32 0 50.5 19.5
t18.5 48.5z" />
    <glyph glyph-name="cid756" unicode="&#x215e;" horiz-adv-x="1069" 
d="M302 -118h-119l513 926h119zM199 299l137 355h-182v90h293v-71l-159 -406zM612 41q0 32 16.5 61.5t43.5 49.5q-20 19 -32.5 43.5t-12.5 53.5t11 53.5t31 42.5t48 28t61 10t60.5 -10t47.5 -28t31 -42.5t11 -53.5q0 -30 -12.5 -53.5t-35.5 -43.5q29 -17 46 -44t17 -66
q0 -34 -11.5 -62t-33.5 -48t-52.5 -31t-67.5 -11q-38 0 -68.5 11t-52 31t-33.5 48t-12 61zM798 188q18 14 25.5 28.5t7.5 31.5q0 20 -12.5 36t-40.5 16t-41 -15.5t-13 -34.5q0 -31 53 -53zM847 41q0 23 -17 35t-39 21h1q-11 3 -20 6.5t-20 6.5q-20 -13 -31.5 -29.5
t-11.5 -39.5q0 -29 18 -48.5t51 -19.5q32 0 50.5 19.5t18.5 48.5z" />
    <glyph glyph-name="cid461" unicode="&#x2160;" horiz-adv-x="1081" 
d="M410 -21v771h137v-771h-137z" />
    <glyph glyph-name="cid462" unicode="&#x2161;" horiz-adv-x="1081" 
d="M321 -21v771h137v-771h-137zM640 -21v771h137v-771h-137z" />
    <glyph glyph-name="cid463" unicode="&#x2162;" horiz-adv-x="1081" 
d="M177 -21v771h137v-771h-137zM475 -21v771h137v-771h-137zM772 -21v771h137v-771h-137z" />
    <glyph glyph-name="cid464" unicode="&#x2163;" horiz-adv-x="1081" 
d="M111 -21v771h137v-771h-137zM621 -31l-302 781h144l213 -580l212 580h144l-302 -781h-109z" />
    <glyph glyph-name="cid465" unicode="&#x2164;" horiz-adv-x="1081" 
d="M480 -31l-302 781h144l213 -580l212 580h144l-302 -781h-109z" />
    <glyph glyph-name="cid466" unicode="&#x2165;" horiz-adv-x="1081" 
d="M351 -31l-302 781h145l212 -580l212 580h144l-302 -781h-109zM833 -21v771h137v-771h-137z" />
    <glyph glyph-name="cid467" unicode="&#x2166;" horiz-adv-x="1081" 
d="M289 -31l-270 781h144l181 -570l181 570h144l-270 -781h-110zM699 -21v771h137v-771h-137zM902 -21v771h137v-771h-137z" />
    <glyph glyph-name="cid468" unicode="&#x2167;" horiz-adv-x="1081" 
d="M216 -31l-219 781h134l140 -570l140 570h134l-220 -781h-109zM575 -21v771h132v-771h-132zM757 -21v771h132v-771h-132zM939 -21v771h132v-771h-132z" />
    <glyph glyph-name="cid469" unicode="&#x2168;" horiz-adv-x="1081" 
d="M142 -21v771h137v-771h-137zM778 365l244 -386h-155l-168 270l-168 -270h-154l243 386l-243 385h154l168 -270l168 270h155z" />
    <glyph glyph-name="cid470" unicode="&#x2169;" horiz-adv-x="1081" 
d="M617 365l244 -386h-154l-168 270l-168 -270h-155l243 386l-243 385h155l168 -270l168 270h154z" />
    <glyph glyph-name="cid451" unicode="&#x2170;" horiz-adv-x="1081" 
d="M627 655h-159v154h159v-154zM482 -21v563h133v-563h-133z" />
    <glyph glyph-name="cid452" unicode="&#x2171;" horiz-adv-x="1030" 
d="M446 655h-159v154h159v-154zM745 655h-159v154h159v-154zM301 -21v563h133v-563h-133zM599 -21v563h133v-563h-133z" />
    <glyph glyph-name="cid453" unicode="&#x2172;" horiz-adv-x="1081" 
d="M316 655h-159v154h159v-154zM618 655h-159v154h159v-154zM925 655h-159v154h159v-154zM171 -21v563h133v-563h-133zM475 -21v563h133v-563h-133zM779 -21v563h133v-563h-133z" />
    <glyph glyph-name="cid454" unicode="&#x2173;" horiz-adv-x="1081" 
d="M349 655h-159v154h159v-154zM204 -21v563h133v-563h-133zM643 -21l-209 563h134l143 -411l143 411h134l-209 -563h-136z" />
    <glyph glyph-name="cid455" unicode="&#x2174;" horiz-adv-x="1081" 
d="M466 -21l-210 563h134l144 -411l143 411h134l-209 -563h-136z" />
    <glyph glyph-name="cid456" unicode="&#x2175;" horiz-adv-x="1081" 
d="M918 654h-159v154h159v-154zM332 -21l-209 563h133l144 -411l143 411h134l-209 -563h-136zM774 -21v563h132v-563h-132z" />
    <glyph glyph-name="cid457" unicode="&#x2176;" horiz-adv-x="1081" 
d="M796 655h-159v154h159v-154zM1033 655h-159v154h159v-154zM239 -21l-209 563h134l143 -411l143 411h134l-209 -563h-136zM650 -21v563h133v-563h-133zM888 -21v563h133v-563h-133z" />
    <glyph glyph-name="cid458" unicode="&#x2177;" horiz-adv-x="1192" 
d="M745 655h-159v154h159v-154zM953 655h-159v154h159v-154zM1160 655h-159v154h159v-154zM219 -21l-209 563h134l143 -411l144 411h133l-209 -563h-136zM599 -21v563h133v-563h-133zM806 -21v563h133v-563h-133zM1014 -21v563h132v-563h-132z" />
    <glyph glyph-name="cid459" unicode="&#x2178;" horiz-adv-x="1081" 
d="M349 655h-159v154h159v-154zM204 -21v563h133v-563h-133zM805 -21l-134 195l-134 -195h-148l205 292l-190 271h143l124 -175l123 175h144l-190 -271l205 -292h-148z" />
    <glyph glyph-name="cid460" unicode="&#x2179;" horiz-adv-x="1081" 
d="M677 -21l-135 195l-134 -195h-147l205 292l-191 271h143l124 -175l123 175h145l-191 -271l205 -292h-147z" />
    <glyph glyph-name="cid171" unicode="&#x2190;" horiz-adv-x="1030" 
d="M327 280l111 -78l-56 -79l-284 212l284 210l56 -78l-111 -79h605v-108h-605z" />
    <glyph glyph-name="cid172" unicode="&#x2191;" horiz-adv-x="1030" 
d="M462 526l-79 -115l-79 57l212 283l210 -283l-78 -57l-79 115v-618h-107v618z" />
    <glyph glyph-name="cid170" unicode="&#x2192;" horiz-adv-x="1030" 
d="M98 280v108h605l-111 79l56 78l284 -210l-284 -212l-56 79l111 78h-605z" />
    <glyph glyph-name="cid173" unicode="&#x2193;" horiz-adv-x="1030" 
d="M462 714h107v-618l79 115l78 -57l-210 -283l-212 283l79 57l79 -115v618z" />
    <glyph glyph-name="cid174" unicode="&#x2194;" horiz-adv-x="1030" 
d="M296 282l111 -80l-56 -79l-284 212l284 210l56 -78l-111 -81h436l-111 81l56 78l284 -210l-284 -212l-56 79l111 80h-436z" />
    <glyph glyph-name="cid247" unicode="&#x2195;" horiz-adv-x="1030" 
d="M463 531l-80 -120l-79 57l212 283l210 -283l-78 -57l-80 120v-433l80 120l78 -56l-210 -284l-212 284l79 56l80 -120v433z" />
    <glyph glyph-name="cid250" unicode="&#x2196;" horiz-adv-x="1030" 
d="M260 545l18 -146l-96 -17l-26 359l346 -73l-22 -95l-139 33l533 -594l-75 -68z" />
    <glyph glyph-name="cid248" unicode="&#x2197;" horiz-adv-x="1030" 
d="M231 -45l-75 68l537 597l-144 -37l-22 95l347 73l-26 -354l-95 10l17 150z" />
    <glyph glyph-name="cid251" unicode="&#x2198;" horiz-adv-x="1030" 
d="M768 147l-16 148l98 12l27 -357l-348 73l22 94l138 -30l-537 591l81 68z" />
    <glyph glyph-name="cid249" unicode="&#x2199;" horiz-adv-x="1030" 
d="M799 756l75 -68l-529 -598l135 38l22 -96l-346 -72l19 353l103 -8l-14 -155z" />
    <glyph glyph-name="cid195" unicode="&#x21d2;" horiz-adv-x="1030" 
d="M624 58l-64 71l81 73h-548v96h653l49 47l-50 48h-652v96h548l-81 72l64 72l312 -288z" />
    <glyph glyph-name="cid196" unicode="&#x21d4;" horiz-adv-x="1030" 
d="M61 345l301 286l66 -69l-81 -73h334l-2 2l-79 71l66 69l302 -286l-302 -286l-66 69l81 74h-336l82 -74l-65 -69zM785 393h-543l-49 -48l49 -47h543l51 47z" />
    <glyph glyph-name="cid197" unicode="&#x2200;" horiz-adv-x="1030" 
d="M719 755h139l-278 -776h-130l-278 776h139l64 -187h281zM615 453h-201l101 -292z" />
    <glyph glyph-name="cid151" unicode="&#x2202;" horiz-adv-x="1030" 
d="M323 628q25 23 49.5 42t50.5 32.5t55 20.5t63 7q65 0 113 -23.5t79 -63.5t46 -92t15 -109q0 -42 -7 -93.5t-23 -104t-40.5 -102t-59.5 -88t-81.5 -61.5t-104.5 -23q-55 0 -99.5 18t-76 49.5t-49 74t-17.5 91.5q0 59 18.5 100.5t50.5 68t74 41t89.5 19t97 1.5t95.5 -10
q4 27 0 60.5t-18.5 62.5t-38.5 49t-60 20q-45 0 -79 -21.5t-64 -51.5zM472 93q36 0 64 19.5t48 50.5t34.5 69.5t23.5 76.5q-34 6 -81 10t-89.5 -4.5t-72 -35.5t-29.5 -82q0 -24 8.5 -43t22.5 -32.5t32.5 -21t38.5 -7.5z" />
    <glyph glyph-name="cid198" unicode="&#x2203;" horiz-adv-x="1030" 
d="M282 -21v115h332v231h-286v113h286v198h-320v114h454v-771h-466z" />
    <glyph glyph-name="cid152" unicode="&#x2207;" horiz-adv-x="1030" 
d="M511 -85l-424 658h855zM291 500l246 -395l253 395h-499z" />
    <glyph glyph-name="cid184" unicode="&#x2208;" horiz-adv-x="1030" 
d="M847 382v-107h-548q7 -33 22.5 -54.5t36.5 -33.5t45.5 -17t50.5 -5h395v-105h-391q-60 0 -111 17.5t-88 52t-58 84.5t-21 115q0 128 71 198.5t201 70.5h392v-105h-387q-26 0 -51.5 -5t-46.5 -17.5t-37 -34t-23 -54.5h548z" />
    <glyph glyph-name="cid185" unicode="&#x220b;" horiz-adv-x="1030" 
d="M730 382q-7 33 -23 54.5t-37 34t-46.5 17.5t-51.5 5h-387v105h392q130 0 201 -70.5t71 -198.5q0 -65 -21 -115t-58 -84.5t-88 -52t-111 -17.5h-391v105h395q25 0 50 5t46 17t36.5 33.5t22.5 54.5h-548v107h548z" />
    <glyph glyph-name="cid213" unicode="&#x220f;" horiz-adv-x="1030" 
d="M720 609v-609h-136v609h-140v-609h-136v609h-141v113h696v-113h-143z" />
    <glyph glyph-name="cid212" unicode="&#x2211;" horiz-adv-x="1030" 
d="M226 596v98h566v-106h-405l275 -291l-275 -292h405v-106h-566v98l275 300z" />
    <glyph glyph-name="cid178" unicode="&#x221a;" horiz-adv-x="1030" 
d="M478 -153h-95l-154 327h-132v82h249l110 -238l374 741h102z" />
    <glyph glyph-name="cid180" unicode="&#x221d;" horiz-adv-x="1030" 
d="M865 143q-31 -29 -73.5 -44t-91.5 -15q-64 0 -112 25t-73 78q-25 -53 -73 -78t-111 -25q-48 0 -89 14t-72 42.5t-48.5 71.5t-17.5 101t17.5 100.5t48 71t71 42.5t86.5 14q66 0 112.5 -24t75.5 -80q29 56 75.5 80t114.5 24q47 0 88.5 -15t71.5 -45l-93 -93q-29 30 -73 30
q-39 0 -72.5 -25t-49.5 -81q16 -50 48.5 -77t73.5 -27q20 0 39.5 8t33.5 22zM332 208q41 0 73.5 27t48.5 77q-16 56 -49.5 81t-72.5 25q-20 0 -38.5 -7.5t-33 -21t-23 -33t-8.5 -43.5t8.5 -43.5t23 -33t33 -21t38.5 -7.5z" />
    <glyph glyph-name="cid136" unicode="&#x221e;" horiz-adv-x="1030" 
d="M331 84q-48 0 -89 14t-72 42.5t-48.5 71.5t-17.5 101t17.5 100.5t48 71t71 42.5t86.5 14q66 0 112.5 -24t75.5 -80q29 56 75.5 80t114.5 24q46 0 86.5 -14t70.5 -42.5t47.5 -71t17.5 -100.5t-17.5 -101t-48.5 -71.5t-72 -42.5t-89 -14q-64 0 -112 25t-73 78
q-25 -53 -73 -78t-111 -25zM332 208q41 0 73.5 27t48.5 77q-16 56 -49.5 81t-72.5 25q-20 0 -38.5 -7.5t-33 -21t-23 -33t-8.5 -43.5t8.5 -43.5t23 -33t33 -21t38.5 -7.5zM699 208q20 0 38.5 7.5t33 21t23 33t8.5 43.5t-8.5 43.5t-23 33t-33 21t-38.5 7.5q-39 0 -72.5 -25
t-49.5 -81q16 -50 48.5 -77t73.5 -27z" />
    <glyph glyph-name="cid148" unicode="&#x2220;" horiz-adv-x="1030" 
d="M376 97h556v-109h-825l669 690l92 -85z" />
    <glyph glyph-name="cid8719" unicode="&#x2225;" horiz-adv-x="1029" 
d="M127 11l454 770l105 -62l-454 -769zM343 -61l454 770l105 -62l-454 -770z" />
    <glyph glyph-name="cid192" unicode="&#x2227;" horiz-adv-x="1030" 
d="M517 426l-198 -402l-108 55l306 608v-1l306 -608l-108 -55l-198 402v1z" />
    <glyph glyph-name="cid193" unicode="&#x2228;" horiz-adv-x="1030" 
d="M517 222l198 403l108 -55l-306 -608v-1l-306 608l108 55l198 -403v1z" />
    <glyph glyph-name="cid191" unicode="&#x2229;" horiz-adv-x="1030" 
d="M358 0h-109v360q0 131 69.5 205t196.5 74q126 0 195.5 -74t69.5 -205v-360h-109v348q0 34 -9 65t-28 54.5t-48.5 37.5t-70.5 14t-71 -14t-49 -37.5t-28 -54.5t-9 -65v-348z" />
    <glyph glyph-name="cid190" unicode="&#x222a;" horiz-adv-x="1030" 
d="M358 274q0 -34 9 -65t28 -54.5t49 -37.5t71 -14t70.5 14t48.5 37.5t28 54.5t9 65v348h109v-360q0 -65 -18 -116.5t-52 -87.5t-83 -55t-112 -19t-112.5 19t-83.5 55t-52 87.5t-18 116.5v360h109v-348z" />
    <glyph glyph-name="cid182" unicode="&#x222b;" horiz-adv-x="1030" 
d="M514 610q3 34 17 65.5t40.5 55.5t65.5 36.5t92 8.5v-84q-50 -2 -83.5 -28t-39.5 -74l-85 -670q-3 -34 -17 -66t-40.5 -55.5t-65.5 -36.5t-92 -8v83q50 2 83.5 28t40.5 74z" />
    <glyph glyph-name="cid183" unicode="&#x222c;" horiz-adv-x="1030" 
d="M381 610q3 34 17 65.5t40.5 55.5t65.5 36.5t92 8.5v-84q-50 -2 -83.5 -28t-39.5 -74l-85 -670q-3 -34 -17 -66t-40.5 -55.5t-65.5 -36.5t-92 -8v83q50 2 83.5 28t40.5 74zM652 610q3 34 17 65.5t40.5 55.5t65.5 36.5t92 8.5v-84q-50 -2 -83.5 -28t-39.5 -74l-85 -670
q-3 -34 -17 -66t-40.5 -55.5t-65.5 -36.5t-92 -8v83q50 2 83.5 28t40.5 74z" />
    <glyph glyph-name="cid211" unicode="&#x222e;" horiz-adv-x="1030" 
d="M435 62q-38 12 -69 35t-53.5 54t-35 69t-12.5 82q0 51 17.5 95.5t48 78t73 54t92.5 23.5l8 57q3 34 17 65.5t40.5 55.5t65.5 36.5t92 8.5v-84q-50 -2 -83.5 -28t-40.5 -74l-6 -46q40 -11 73 -33.5t57 -54t37 -71t13 -83.5q0 -53 -18.5 -98t-50.5 -79t-76.5 -54t-96.5 -22
l-16 -129q-3 -34 -17 -66t-40.5 -55.5t-65.5 -36.5t-92 -8v83q50 2 83.5 28t39.5 74zM378 302q0 -39 19.5 -71t51.5 -51l33 257q-45 -13 -74.5 -50t-29.5 -85zM656 302q0 41 -23 75t-58 51l-33 -264q24 4 45 17t36 31.5t24 41.5t9 48z" />
    <glyph glyph-name="cid137" unicode="&#x2234;" horiz-adv-x="1030" 
d="M592 472h-159v154h159v-154zM351 34h-159v154h159v-154zM839 34h-159v154h159v-154z" />
    <glyph glyph-name="cid181" unicode="&#x2235;" horiz-adv-x="1030" 
d="M351 472h-159v154h159v-154zM839 472h-159v154h159v-154zM592 34h-159v154h159v-154z" />
    <glyph glyph-name="cid18355" unicode="&#x223c;" horiz-adv-x="1009" 
d="M606 251q-38 0 -64 12.5t-49 26.5q-17 12 -36 24.5t-45 12.5q-28 0 -52.5 -16t-43.5 -59l-94 44q15 41 36 69t45 45t50 24t51 7q38 0 64.5 -13t49.5 -27q17 -11 35.5 -23t43.5 -12q28 0 52.5 16.5t43.5 59.5l94 -43q-15 -42 -35.5 -70t-44.5 -45.5t-50 -25t-51 -7.5z" />
    <glyph glyph-name="cid179" unicode="&#x223d;" horiz-adv-x="1009" 
d="M606 442q25 0 51 -7.5t50 -25t44.5 -45.5t35.5 -69l-94 -44q-19 43 -43.5 60t-52.5 17q-25 0 -43.5 -12t-35.5 -23q-23 -15 -49.5 -28t-64.5 -13q-25 0 -51 7t-50 24t-45 45t-36 70l94 43q19 -43 43.5 -58.5t52.5 -15.5q26 0 45 12t36 24q23 14 49 26.5t64 12.5z" />
    <glyph glyph-name="cid154" unicode="&#x2252;" horiz-adv-x="1009" 
d="M401 598q0 -23 -8 -40.5t-21 -28.5t-29.5 -16.5t-32.5 -5.5t-32 5.5t-29 16.5t-21 28.5t-8 40.5q0 24 8 41t21 28.5t29 17t32 5.5t32.5 -5.5t29.5 -17t21 -28.5t8 -41zM835 371h-662v111h662v-111zM835 204h-662v111h662v-111zM796 90q0 -24 -8 -41t-21 -28.5t-29 -17
t-32 -5.5q-17 0 -33 5.5t-28.5 17t-20.5 28.5t-8 41q0 23 8 40t20.5 28.5t28.5 17t33 5.5q16 0 32 -5.5t29 -17t21 -28.5t8 -40z" />
    <glyph glyph-name="cid133" unicode="&#x2260;" horiz-adv-x="1009" 
d="M312 61l58 126h-106v112h156l46 99h-202v111h252l54 116h129l-53 -116h100v-111h-151l-45 -99h196v-112h-246l-58 -126h-130z" />
    <glyph glyph-name="cid153" unicode="&#x2261;" horiz-adv-x="1009" 
d="M835 450h-662v108h662v-108zM835 274h-662v108h662v-108zM835 99h-662v108h662v-108z" />
    <glyph glyph-name="cid134" unicode="&#x2264;" horiz-adv-x="1009" 
d="M814 295l-49 -101l-607 264l608 265l49 -101l-401 -164zM158 110h702v-109h-702v109z" />
    <glyph glyph-name="cid135" unicode="&#x2265;" horiz-adv-x="1009" 
d="M593 458l-400 164l48 101l609 -265l-608 -264l-48 101zM850 1h-703v109h703v-109z" />
    <glyph glyph-name="cid188" unicode="&#x2282;" horiz-adv-x="1009" 
d="M475 463q-34 0 -65 -9.5t-54.5 -29t-37.5 -49.5t-14 -71t14 -71t37.5 -49.5t54.5 -29t65 -9.5h345v-107h-361q-65 0 -116.5 18t-87.5 52.5t-55 83.5t-19 112t19 112.5t55 84t87.5 52.5t116.5 18h361v-108h-345z" />
    <glyph glyph-name="cid189" unicode="&#x2283;" horiz-adv-x="1009" 
d="M181 463v108h361q65 0 116.5 -18t87.5 -52.5t55 -84t19 -112.5t-19 -112t-55 -83.5t-87.5 -52.5t-116.5 -18h-361v107h345q34 0 65 9.5t54.5 29t37.5 49.5t14 71t-14 71t-37.5 49.5t-54.5 29t-65 9.5h-345z" />
    <glyph glyph-name="cid186" unicode="&#x2286;" horiz-adv-x="1009" 
d="M454 560q-68 0 -109 -30t-41 -98t41 -98t109 -30h366v-107h-361q-130 0 -204 59.5t-74 175.5q0 115 74 175t204 60h361v-107h-366zM828 108v-108h-634v108h634z" />
    <glyph glyph-name="cid187" unicode="&#x2287;" horiz-adv-x="1009" 
d="M190 560v107h360q130 0 204 -60t74 -175q0 -116 -74 -175.5t-204 -59.5h-360v107h365q68 0 109.5 30t41.5 98t-41 98t-110 30h-365zM816 108v-108h-635v108h635z" />
    <glyph glyph-name="cid18356" unicode="&#x2299;" horiz-adv-x="1009" 
d="M925 339q0 -88 -32.5 -165t-89 -134t-133.5 -90t-165 -33t-165 33t-134 90t-90 134t-33 165t33 165.5t90 134.5t134 90t165 33t165 -33t133.5 -90t89 -134.5t32.5 -165.5zM171 339q0 -71 26 -133t71 -108t106 -73t131 -27t131 27t106 73t70.5 108t25.5 133
q0 70 -24.5 132t-68.5 108.5t-105.5 73.5t-134.5 27q-76 0 -137.5 -28.5t-105 -75.5t-67.5 -108.5t-24 -128.5zM428 345q0 33 22 54.5t54 21.5q33 0 55 -21.5t22 -54.5t-22 -53.5t-55 -20.5q-32 0 -54 20.5t-22 53.5z" />
    <glyph glyph-name="cid149" unicode="&#x22a5;" horiz-adv-x="1009" 
d="M153 10v115h288v522h129v-522h287v-115h-704z" />
    <glyph glyph-name="cid149" unicode="&#x27c2;" horiz-adv-x="1009" 
d="M153 10v115h288v522h129v-522h287v-115h-704z" />
    <glyph glyph-name="cid150" unicode="&#x2312;" horiz-adv-x="1009" 
d="M141 -62q13 76 41.5 141t73 113t106.5 75.5t143 27.5q80 0 142.5 -30t108 -79.5t73.5 -114t39 -133.5h-150q-11 52 -28 93.5t-42 70t-60 44t-83 15.5t-84.5 -15.5t-62.5 -45t-42 -70.5t-23 -92h-152z" />
    <glyph glyph-name="cid733" unicode="&#x2460;" horiz-adv-x="1120" 
d="M68 336q0 102 38.5 191.5t105.5 156.5t156 105.5t191 38.5t191.5 -38.5t156 -105.5t105.5 -156.5t39 -191.5q0 -101 -39 -190.5t-105.5 -156t-156 -105t-191.5 -38.5t-191 38.5t-156 105t-105.5 156t-38.5 190.5zM134 336q0 -87 33.5 -164.5t91 -135.5t135 -92t165.5 -34
t165.5 34t135.5 92t91.5 135.5t33.5 164.5q0 88 -33.5 166t-91.5 136t-135.5 92t-165.5 34t-165.5 -34t-135 -92t-91 -136t-33.5 -166zM513 39v466l-79 -58l-61 77l166 124h92v-609h-118z" />
    <glyph glyph-name="cid734" unicode="&#x2461;" horiz-adv-x="1120" 
d="M68 336q0 102 38.5 191.5t105.5 156.5t156 105.5t191 38.5t191.5 -38.5t156 -105.5t105.5 -156.5t39 -191.5q0 -101 -39 -190.5t-105.5 -156t-156 -105t-191.5 -38.5t-191 38.5t-156 105t-105.5 156t-38.5 190.5zM134 336q0 -87 33.5 -164.5t91 -135.5t135 -92t165.5 -34
t165.5 34t135.5 92t91.5 135.5t33.5 164.5q0 88 -33.5 166t-91.5 136t-135.5 92t-165.5 34t-165.5 -34t-135 -92t-91 -136t-33.5 -166zM558 657q38 -1 74 -10.5t64 -30t45 -54.5t18 -84q1 -44 -21 -87t-67 -92l-138 -151h236v-95h-393v80q16 16 43 44.5t56.5 60.5t58 64
t47.5 55q26 34 45.5 64.5t19.5 56.5q0 46 -25.5 65t-66.5 19q-18 0 -34.5 -7t-31.5 -18t-27 -24t-21 -25l-85 59q42 53 89 81.5t114 28.5z" />
    <glyph glyph-name="cid735" unicode="&#x2462;" horiz-adv-x="1120" 
d="M68 336q0 102 38.5 191.5t105.5 156.5t156 105.5t191 38.5t191.5 -38.5t156 -105.5t105.5 -156.5t39 -191.5q0 -101 -39 -190.5t-105.5 -156t-156 -105t-191.5 -38.5t-191 38.5t-156 105t-105.5 156t-38.5 190.5zM134 336q0 -87 33.5 -164.5t91 -135.5t135 -92t165.5 -34
t165.5 34t135.5 92t91.5 135.5t33.5 164.5q0 88 -33.5 166t-91.5 136t-135.5 92t-165.5 34t-165.5 -34t-135 -92t-91 -136t-33.5 -166zM538 125q45 0 73.5 23t28.5 66q0 41 -30.5 64.5t-92.5 23.5h-55v91h50q115 2 115 87q0 32 -22 51.5t-67 19.5q-26 0 -53 -15.5t-50 -43.5
l-73 60q42 49 85 71t103 22q95 0 145.5 -46t50.5 -119q0 -42 -20 -73.5t-55 -53.5q38 -21 62 -56t24 -83q0 -47 -16.5 -81t-46 -57t-69.5 -34t-87 -11q-26 0 -52 5.5t-50.5 14.5t-45.5 21t-36 25l52 81q34 -26 65.5 -39.5t66.5 -13.5z" />
    <glyph glyph-name="cid736" unicode="&#x2463;" horiz-adv-x="1120" 
d="M68 336q0 102 38.5 191.5t105.5 156.5t156 105.5t191 38.5t191.5 -38.5t156 -105.5t105.5 -156.5t39 -191.5q0 -101 -39 -190.5t-105.5 -156t-156 -105t-191.5 -38.5t-191 38.5t-156 105t-105.5 156t-38.5 190.5zM134 336q0 -87 33.5 -164.5t91 -135.5t135 -92t165.5 -34
t165.5 34t135.5 92t91.5 135.5t33.5 164.5q0 88 -33.5 166t-91.5 136t-135.5 92t-165.5 34t-165.5 -34t-135 -92t-91 -136t-33.5 -166zM308 167v65l259 418h116v-391h69v-92h-69v-136h-113v136h-262zM445 259h125v207z" />
    <glyph glyph-name="cid737" unicode="&#x2464;" horiz-adv-x="1120" 
d="M68 336q0 102 38.5 191.5t105.5 156.5t156 105.5t191 38.5t191.5 -38.5t156 -105.5t105.5 -156.5t39 -191.5q0 -101 -39 -190.5t-105.5 -156t-156 -105t-191.5 -38.5t-191 38.5t-156 105t-105.5 156t-38.5 190.5zM134 336q0 -87 33.5 -164.5t91 -135.5t135 -92t165.5 -34
t165.5 34t135.5 92t91.5 135.5t33.5 164.5q0 88 -33.5 166t-91.5 136t-135.5 92t-165.5 34t-165.5 -34t-135 -92t-91 -136t-33.5 -166zM554 33q-46 0 -94 13t-92 40l41 91q38 -24 75.5 -37t69.5 -13q46 0 78 28t32 79q0 55 -27 82t-68 27q-30 0 -59 -13.5t-50 -39.5l-85 47
l27 301h339v-93h-239l-12 -131q17 11 40.5 16.5t45.5 5.5q95 0 151 -52.5t56 -149.5q0 -46 -16.5 -83t-47 -63.5t-72.5 -40.5t-93 -14z" />
    <glyph glyph-name="cid738" unicode="&#x2465;" horiz-adv-x="1120" 
d="M68 336q0 102 38.5 191.5t105.5 156.5t156 105.5t191 38.5t191.5 -38.5t156 -105.5t105.5 -156.5t39 -191.5q0 -101 -39 -190.5t-105.5 -156t-156 -105t-191.5 -38.5t-191 38.5t-156 105t-105.5 156t-38.5 190.5zM134 336q0 -87 33.5 -164.5t91 -135.5t135 -92t165.5 -34
t165.5 34t135.5 92t91.5 135.5t33.5 164.5q0 88 -33.5 166t-91.5 136t-135.5 92t-165.5 34t-165.5 -34t-135 -92t-91 -136t-33.5 -166zM572 551q-17 0 -37 -8t-37.5 -27t-30 -49.5t-15.5 -75.5q26 19 59 30t68 11q50 0 86 -16t59.5 -44t35 -64.5t11.5 -76.5
q0 -47 -15.5 -84.5t-43.5 -63.5t-66.5 -40t-84.5 -14q-228 0 -228 307q0 76 19.5 134t52 96t75 57.5t89.5 19.5q56 0 102 -19.5t88 -73.5l-79 -58q-33 37 -56.5 48t-51.5 11zM567 338q-33 0 -63 -20t-51 -43h1q1 -26 8 -53t20 -49.5t32.5 -37t46.5 -14.5q42 0 67 27t25 85
q0 48 -23.5 76.5t-62.5 28.5z" />
    <glyph glyph-name="cid739" unicode="&#x2466;" horiz-adv-x="1120" 
d="M68 336q0 102 38.5 191.5t105.5 156.5t156 105.5t191 38.5t191.5 -38.5t156 -105.5t105.5 -156.5t39 -191.5q0 -101 -39 -190.5t-105.5 -156t-156 -105t-191.5 -38.5t-191 38.5t-156 105t-105.5 156t-38.5 190.5zM134 336q0 -87 33.5 -164.5t91 -135.5t135 -92t165.5 -34
t165.5 34t135.5 92t91.5 135.5t33.5 164.5q0 88 -33.5 166t-91.5 136t-135.5 92t-165.5 34t-165.5 -34t-135 -92t-91 -136t-33.5 -166zM433 18l204 499h-260v99h394v-81l-210 -517h-128z" />
    <glyph glyph-name="cid740" unicode="&#x2467;" horiz-adv-x="1120" 
d="M68 336q0 102 38.5 191.5t105.5 156.5t156 105.5t191 38.5t191.5 -38.5t156 -105.5t105.5 -156.5t39 -191.5q0 -101 -39 -190.5t-105.5 -156t-156 -105t-191.5 -38.5t-191 38.5t-156 105t-105.5 156t-38.5 190.5zM134 336q0 -87 33.5 -164.5t91 -135.5t135 -92t165.5 -34
t165.5 34t135.5 92t91.5 135.5t33.5 164.5q0 88 -33.5 166t-91.5 136t-135.5 92t-165.5 34t-165.5 -34t-135 -92t-91 -136t-33.5 -166zM350 219q0 44 23.5 81t64.5 63q-35 24 -51 53.5t-16 70.5q0 37 14 67t39.5 51t61 32.5t79.5 11.5q43 0 79 -11.5t62 -32.5t40 -51t14 -67
q0 -42 -19 -70.5t-57 -55.5h-1q47 -23 72 -54.5t25 -86.5q0 -44 -15.5 -78.5t-43.5 -59t-68 -37.5t-88 -13t-88 13t-68 37t-43.5 58.5t-15.5 78.5zM593 400q26 20 40 39t14 47q0 32 -20 51t-62 19q-40 0 -60 -19.5t-20 -48.5q0 -27 16 -44t60 -34zM667 219q0 15 -7.5 27
t-18.5 21.5t-25 16.5t-27 12l-61 20q-30 -18 -47 -40t-17 -57q0 -45 27 -70t74 -25t74.5 25t27.5 70z" />
    <glyph glyph-name="cid741" unicode="&#x2468;" horiz-adv-x="1120" 
d="M68 336q0 102 38.5 191.5t105.5 156.5t156 105.5t191 38.5t191.5 -38.5t156 -105.5t105.5 -156.5t39 -191.5q0 -101 -39 -190.5t-105.5 -156t-156 -105t-191.5 -38.5t-191 38.5t-156 105t-105.5 156t-38.5 190.5zM134 336q0 -87 33.5 -164.5t91 -135.5t135 -92t165.5 -34
t165.5 34t135.5 92t91.5 135.5t33.5 164.5q0 88 -33.5 166t-91.5 136t-135.5 92t-165.5 34t-165.5 -34t-135 -92t-91 -136t-33.5 -166zM560 114q17 0 36.5 8.5t36.5 27t30 49t16 75.5q-26 -19 -59.5 -29.5t-66.5 -10.5q-50 0 -86.5 16t-59.5 43.5t-34 63.5t-11 76
q0 48 15.5 85.5t43 63.5t66 40t84.5 14q229 0 229 -308q0 -76 -19.5 -133t-52.5 -95.5t-76 -58t-89 -19.5q-55 0 -102 19.5t-87 72.5l77 59q33 -37 57 -48t52 -11zM566 327q16 0 32 5.5t30.5 14.5t27.5 20.5t22 22.5q-2 26 -8.5 53.5t-19 50t-32.5 36.5t-47 14
q-43 0 -67.5 -27t-24.5 -84q0 -48 22.5 -77t64.5 -29z" />
    <glyph glyph-name="cid742" unicode="&#x2469;" horiz-adv-x="1120" 
d="M68 336q0 102 38.5 191.5t105.5 156.5t156 105.5t191 38.5t191.5 -38.5t156 -105.5t105.5 -156.5t39 -191.5q0 -101 -39 -190.5t-105.5 -156t-156 -105t-191.5 -38.5t-191 38.5t-156 105t-105.5 156t-38.5 190.5zM134 336q0 -87 33.5 -164.5t91 -135.5t135 -92t165.5 -34
t165.5 34t135.5 92t91.5 135.5t33.5 164.5q0 88 -33.5 166t-91.5 136t-135.5 92t-165.5 34t-165.5 -34t-135 -92t-91 -136t-33.5 -166zM507 353q0 60 10 115t32 97.5t56.5 68t83.5 25.5q48 0 83 -26t57 -69t32.5 -98t10.5 -113t-9.5 -114.5t-31 -101t-56.5 -72t-86 -27.5
q-53 0 -88 28t-56 73t-29.5 101.5t-8.5 112.5zM286 442l-54 77l141 125h84v-600h-114v441zM622 352q0 -94 18.5 -145.5t47.5 -51.5q32 0 52.5 50.5t20.5 144.5q0 90 -20.5 142t-51.5 52q-29 0 -48 -50.5t-19 -141.5z" />
    <glyph glyph-name="cid743" unicode="&#x246a;" horiz-adv-x="1120" 
d="M68 336q0 102 38.5 191.5t105.5 156.5t156 105.5t191 38.5t191.5 -38.5t156 -105.5t105.5 -156.5t39 -191.5q0 -101 -39 -190.5t-105.5 -156t-156 -105t-191.5 -38.5t-191 38.5t-156 105t-105.5 156t-38.5 190.5zM134 336q0 -87 33.5 -164.5t91 -135.5t135 -92t165.5 -34
t165.5 34t135.5 92t91.5 135.5t33.5 164.5q0 88 -33.5 166t-91.5 136t-135.5 92t-165.5 34t-165.5 -34t-135 -92t-91 -136t-33.5 -166zM317 442l-55 76l141 126h85v-600h-114v441zM607 442l-55 76l140 126h86v-600h-115v441z" />
    <glyph glyph-name="cid744" unicode="&#x246b;" horiz-adv-x="1120" 
d="M68 336q0 102 38.5 191.5t105.5 156.5t156 105.5t191 38.5t191.5 -38.5t156 -105.5t105.5 -156.5t39 -191.5q0 -101 -39 -190.5t-105.5 -156t-156 -105t-191.5 -38.5t-191 38.5t-156 105t-105.5 156t-38.5 190.5zM134 336q0 -87 33.5 -164.5t91 -135.5t135 -92t165.5 -34
t165.5 34t135.5 92t91.5 135.5t33.5 164.5q0 88 -33.5 166t-91.5 136t-135.5 92t-165.5 34t-165.5 -34t-135 -92t-91 -136t-33.5 -166zM841 152v-106h-328v86l133 192q26 38 43.5 78t17.5 75q0 24 -12 43t-37 19q-18 0 -43 -19t-45 -47l-66 84q35 47 77.5 71t81.5 24
q42 0 73.5 -14.5t52 -39t31 -56t10.5 -65.5q0 -44 -25.5 -99t-61.5 -109l-76 -117h174zM287 442l-55 77l140 125h86v-600h-115v441z" />
    <glyph glyph-name="cid745" unicode="&#x246c;" horiz-adv-x="1120" 
d="M68 336q0 102 38.5 191.5t105.5 156.5t156 105.5t191 38.5t191.5 -38.5t156 -105.5t105.5 -156.5t39 -191.5q0 -101 -39 -190.5t-105.5 -156t-156 -105t-191.5 -38.5t-191 38.5t-156 105t-105.5 156t-38.5 190.5zM134 336q0 -87 33.5 -164.5t91 -135.5t135 -92t165.5 -34
t165.5 34t135.5 92t91.5 135.5t33.5 164.5q0 88 -33.5 166t-91.5 136t-135.5 92t-165.5 34t-165.5 -34t-135 -92t-91 -136t-33.5 -166zM507 573q22 25 43.5 40.5t42.5 24t41.5 11.5t40.5 3q30 0 60.5 -9.5t55 -29t40.5 -49.5t16 -71q0 -38 -18.5 -70t-45.5 -56
q33 -19 57.5 -53t24.5 -84q0 -39 -11 -74.5t-34.5 -62t-59 -42.5t-84.5 -16q-45 0 -92 22t-85 63l69 91q30 -28 55.5 -46t51.5 -18q32 0 52 18t20 58q0 19 -8.5 33.5t-22.5 23.5t-32.5 13.5t-37.5 4.5h-78v110h78q35 0 58 21t23 53q0 25 -16.5 39.5t-39.5 14.5
q-21 0 -43 -6.5t-50 -39.5zM286 442l-54 76l141 126h84v-600h-114v441z" />
    <glyph glyph-name="cid746" unicode="&#x246d;" horiz-adv-x="1120" 
d="M68 336q0 102 38.5 191.5t105.5 156.5t156 105.5t191 38.5t191.5 -38.5t156 -105.5t105.5 -156.5t39 -191.5q0 -101 -39 -190.5t-105.5 -156t-156 -105t-191.5 -38.5t-191 38.5t-156 105t-105.5 156t-38.5 190.5zM134 336q0 -87 33.5 -164.5t91 -135.5t135 -92t165.5 -34
t165.5 34t135.5 92t91.5 135.5t33.5 164.5q0 88 -33.5 166t-91.5 136t-135.5 92t-165.5 34t-165.5 -34t-135 -92t-91 -136t-33.5 -166zM277 442l-55 76l140 126h85v-600h-115v441zM872 164h-72v-120h-111v120h-216v87l220 391h107v-373h72v-105zM689 269v164l-91 -164h91z
" />
    <glyph glyph-name="cid747" unicode="&#x246e;" horiz-adv-x="1120" 
d="M68 336q0 102 38.5 191.5t105.5 156.5t156 105.5t191 38.5t191.5 -38.5t156 -105.5t105.5 -156.5t39 -191.5q0 -101 -39 -190.5t-105.5 -156t-156 -105t-191.5 -38.5t-191 38.5t-156 105t-105.5 156t-38.5 190.5zM134 336q0 -87 33.5 -164.5t91 -135.5t135 -92t165.5 -34
t165.5 34t135.5 92t91.5 135.5t33.5 164.5q0 88 -33.5 166t-91.5 136t-135.5 92t-165.5 34t-165.5 -34t-135 -92t-91 -136t-33.5 -166zM276 442l-54 76l141 126h84l-10 -600h-104v441zM505 349l49 294h269v-105h-161l-24 -126q41 15 78 7.5t66 -26.5q38 -25 56.5 -67
t18.5 -93q0 -43 -15 -78t-42 -60.5t-63.5 -40t-79.5 -14.5q-54 -1 -99 22.5t-77 62.5l68 89q54 -66 110 -66q40 0 60 23.5t20 61.5q0 29 -17 48.5t-42.5 29t-55 8t-53.5 -13.5z" />
    <glyph glyph-name="cid827" unicode="&#x2474;" horiz-adv-x="1120" 
d="M270 -134q-47 43 -84.5 98t-63.5 117t-40 129t-14 134q0 65 12 129.5t37 126t62 117t87 102.5h63q-97 -104 -145.5 -226.5t-48.5 -250.5q0 -127 48.5 -249.5t148.5 -226.5h-62zM788 -134q100 104 148.5 226.5t48.5 249.5q0 128 -48.5 250.5t-145.5 226.5h63
q49 -47 86 -102.5t62 -117t37 -126t12 -129.5q0 -67 -13.5 -134t-39.5 -129t-63.5 -117t-84.5 -98h-62zM513 39v466l-79 -58l-61 77l166 124h92v-609h-118z" />
    <glyph glyph-name="cid828" unicode="&#x2475;" horiz-adv-x="1120" 
d="M270 -134q-47 43 -84.5 98t-63.5 117t-40 129t-14 134q0 65 12 129.5t37 126t62 117t87 102.5h63q-97 -104 -145.5 -226.5t-48.5 -250.5q0 -127 48.5 -249.5t148.5 -226.5h-62zM788 -134q100 104 148.5 226.5t48.5 249.5q0 128 -48.5 250.5t-145.5 226.5h63
q49 -47 86 -102.5t62 -117t37 -126t12 -129.5q0 -67 -13.5 -134t-39.5 -129t-63.5 -117t-84.5 -98h-62zM558 657q38 -1 74 -10.5t64 -30t45 -54.5t18 -84q1 -44 -21 -87t-67 -92l-138 -151h236v-95h-393v80q16 16 43 44.5t56.5 60.5t58 64t47.5 55q26 34 45.5 64.5
t19.5 56.5q0 46 -25.5 65t-66.5 19q-18 0 -34.5 -7t-31.5 -18t-27 -24t-21 -25l-85 59q42 53 89 81.5t114 28.5z" />
    <glyph glyph-name="cid829" unicode="&#x2476;" horiz-adv-x="1120" 
d="M270 -134q-47 43 -84.5 98t-63.5 117t-40 129t-14 134q0 65 12 129.5t37 126t62 117t87 102.5h63q-97 -104 -145.5 -226.5t-48.5 -250.5q0 -127 48.5 -249.5t148.5 -226.5h-62zM788 -134q100 104 148.5 226.5t48.5 249.5q0 128 -48.5 250.5t-145.5 226.5h63
q49 -47 86 -102.5t62 -117t37 -126t12 -129.5q0 -67 -13.5 -134t-39.5 -129t-63.5 -117t-84.5 -98h-62zM538 125q45 0 73.5 23t28.5 66q0 41 -30.5 64.5t-92.5 23.5h-55v91h50q115 2 115 87q0 32 -22 51.5t-67 19.5q-26 0 -53 -15.5t-50 -43.5l-73 60q42 49 85 71t103 22
q95 0 145.5 -46t50.5 -119q0 -42 -20 -73.5t-55 -53.5q38 -21 62 -56t24 -83q0 -47 -16.5 -81t-46 -57t-69.5 -34t-87 -11q-26 0 -52 5.5t-50.5 14.5t-45.5 21t-36 25l52 81q34 -26 65.5 -39.5t66.5 -13.5z" />
    <glyph glyph-name="cid830" unicode="&#x2477;" horiz-adv-x="1120" 
d="M270 -134q-47 43 -84.5 98t-63.5 117t-40 129t-14 134q0 65 12 129.5t37 126t62 117t87 102.5h63q-97 -104 -145.5 -226.5t-48.5 -250.5q0 -127 48.5 -249.5t148.5 -226.5h-62zM788 -134q100 104 148.5 226.5t48.5 249.5q0 128 -48.5 250.5t-145.5 226.5h63
q49 -47 86 -102.5t62 -117t37 -126t12 -129.5q0 -67 -13.5 -134t-39.5 -129t-63.5 -117t-84.5 -98h-62zM308 167v65l259 418h116v-391h69v-92h-69v-136h-113v136h-262zM445 259h125v207z" />
    <glyph glyph-name="cid831" unicode="&#x2478;" horiz-adv-x="1120" 
d="M270 -134q-47 43 -84.5 98t-63.5 117t-40 129t-14 134q0 65 12 129.5t37 126t62 117t87 102.5h63q-97 -104 -145.5 -226.5t-48.5 -250.5q0 -127 48.5 -249.5t148.5 -226.5h-62zM788 -134q100 104 148.5 226.5t48.5 249.5q0 128 -48.5 250.5t-145.5 226.5h63
q49 -47 86 -102.5t62 -117t37 -126t12 -129.5q0 -67 -13.5 -134t-39.5 -129t-63.5 -117t-84.5 -98h-62zM553 17q-48 0 -99 13.5t-97 42.5l43 96q40 -26 80 -39.5t73 -13.5q48 0 82 29.5t34 83.5q0 57 -28.5 85.5t-71.5 28.5q-32 0 -62.5 -14.5t-52.5 -40.5l-90 49l29 317
h357v-98h-252l-13 -138q19 11 43.5 17t47.5 6q100 0 159 -55.5t59 -156.5q0 -49 -17.5 -88t-49.5 -66.5t-76 -42.5t-98 -15z" />
    <glyph glyph-name="cid832" unicode="&#x2479;" horiz-adv-x="1120" 
d="M270 -134q-47 43 -84.5 98t-63.5 117t-40 129t-14 134q0 65 12 129.5t37 126t62 117t87 102.5h63q-97 -104 -145.5 -226.5t-48.5 -250.5q0 -127 48.5 -249.5t148.5 -226.5h-62zM788 -134q100 104 148.5 226.5t48.5 249.5q0 128 -48.5 250.5t-145.5 226.5h63
q49 -47 86 -102.5t62 -117t37 -126t12 -129.5q0 -67 -13.5 -134t-39.5 -129t-63.5 -117t-84.5 -98h-62zM572 551q-17 0 -37 -8t-37.5 -27t-30 -49.5t-15.5 -75.5q26 19 59 30t68 11q50 0 86 -16t59.5 -44t35 -64.5t11.5 -76.5q0 -47 -15.5 -84.5t-43.5 -63.5t-66.5 -40
t-84.5 -14q-228 0 -228 307q0 76 19.5 134t52 96t75 57.5t89.5 19.5q56 0 102 -19.5t88 -73.5l-79 -58q-33 37 -56.5 48t-51.5 11zM567 338q-33 0 -63 -20t-51 -43h1q1 -26 8 -53t20 -49.5t32.5 -37t46.5 -14.5q42 0 67 27t25 85q0 48 -23.5 76.5t-62.5 28.5z" />
    <glyph glyph-name="cid833" unicode="&#x247a;" horiz-adv-x="1120" 
d="M270 -134q-47 43 -84.5 98t-63.5 117t-40 129t-14 134q0 65 12 129.5t37 126t62 117t87 102.5h63q-97 -104 -145.5 -226.5t-48.5 -250.5q0 -127 48.5 -249.5t148.5 -226.5h-62zM788 -134q100 104 148.5 226.5t48.5 249.5q0 128 -48.5 250.5t-145.5 226.5h63
q49 -47 86 -102.5t62 -117t37 -126t12 -129.5q0 -67 -13.5 -134t-39.5 -129t-63.5 -117t-84.5 -98h-62zM433 18l204 499h-260v99h394v-81l-210 -517h-128z" />
    <glyph glyph-name="cid834" unicode="&#x247b;" horiz-adv-x="1120" 
d="M270 -134q-47 43 -84.5 98t-63.5 117t-40 129t-14 134q0 65 12 129.5t37 126t62 117t87 102.5h63q-97 -104 -145.5 -226.5t-48.5 -250.5q0 -127 48.5 -249.5t148.5 -226.5h-62zM788 -134q100 104 148.5 226.5t48.5 249.5q0 128 -48.5 250.5t-145.5 226.5h63
q49 -47 86 -102.5t62 -117t37 -126t12 -129.5q0 -67 -13.5 -134t-39.5 -129t-63.5 -117t-84.5 -98h-62zM350 219q0 44 23.5 81t64.5 63q-35 24 -51 53.5t-16 70.5q0 37 14 67t39.5 51t61 32.5t79.5 11.5q43 0 79 -11.5t62 -32.5t40 -51t14 -67q0 -42 -19 -70.5t-57 -55.5h-1
q47 -23 72 -54.5t25 -86.5q0 -44 -15.5 -78.5t-43.5 -59t-68 -37.5t-88 -13t-88 13t-68 37t-43.5 58.5t-15.5 78.5zM593 400q26 20 40 39t14 47q0 32 -20 51t-62 19q-40 0 -60 -19.5t-20 -48.5q0 -27 16 -44t60 -34zM667 219q0 15 -7.5 27t-18.5 21.5t-25 16.5t-27 12
l-61 20q-30 -18 -47 -40t-17 -57q0 -45 27 -70t74 -25t74.5 25t27.5 70z" />
    <glyph glyph-name="cid835" unicode="&#x247c;" horiz-adv-x="1120" 
d="M270 -134q-47 43 -84.5 98t-63.5 117t-40 129t-14 134q0 65 12 129.5t37 126t62 117t87 102.5h63q-97 -104 -145.5 -226.5t-48.5 -250.5q0 -127 48.5 -249.5t148.5 -226.5h-62zM788 -134q100 104 148.5 226.5t48.5 249.5q0 128 -48.5 250.5t-145.5 226.5h63
q49 -47 86 -102.5t62 -117t37 -126t12 -129.5q0 -67 -13.5 -134t-39.5 -129t-63.5 -117t-84.5 -98h-62zM560 114q17 0 36.5 8.5t36.5 27t30 49t16 75.5q-26 -19 -59.5 -29.5t-66.5 -10.5q-50 0 -86.5 16t-59.5 43.5t-34 63.5t-11 76q0 48 15.5 85.5t43 63.5t66 40t84.5 14
q229 0 229 -308q0 -76 -19.5 -133t-52.5 -95.5t-76 -58t-89 -19.5q-55 0 -102 19.5t-87 72.5l77 59q33 -37 57 -48t52 -11zM566 327q16 0 32 5.5t30.5 14.5t27.5 20.5t22 22.5q-2 26 -8.5 53.5t-19 50t-32.5 36.5t-47 14q-43 0 -67.5 -27t-24.5 -84q0 -48 22.5 -77t64.5 -29
z" />
    <glyph glyph-name="cid836" unicode="&#x247d;" horiz-adv-x="1120" 
d="M270 -134q-47 43 -84.5 98t-63.5 117t-40 129t-14 134q0 65 12 129.5t37 126t62 117t87 102.5h63q-97 -104 -145.5 -226.5t-48.5 -250.5q0 -127 48.5 -249.5t148.5 -226.5h-62zM788 -134q100 104 148.5 226.5t48.5 249.5q0 128 -48.5 250.5t-145.5 226.5h63
q49 -47 86 -102.5t62 -117t37 -126t12 -129.5q0 -67 -13.5 -134t-39.5 -129t-63.5 -117t-84.5 -98h-62zM507 353q0 60 10 115t32 97.5t56.5 68t83.5 25.5q48 0 83 -26t57 -69t32.5 -98t10.5 -113t-9.5 -114.5t-31 -101t-56.5 -72t-86 -27.5q-53 0 -88 28t-56 73t-29.5 101.5
t-8.5 112.5zM286 442l-54 77l141 125h84v-600h-114v441zM622 352q0 -94 18.5 -145.5t47.5 -51.5q32 0 52.5 50.5t20.5 144.5q0 90 -20.5 142t-51.5 52q-29 0 -48 -50.5t-19 -141.5z" />
    <glyph glyph-name="cid837" unicode="&#x247e;" horiz-adv-x="1120" 
d="M270 -134q-47 43 -84.5 98t-63.5 117t-40 129t-14 134q0 65 12 129.5t37 126t62 117t87 102.5h63q-97 -104 -145.5 -226.5t-48.5 -250.5q0 -127 48.5 -249.5t148.5 -226.5h-62zM788 -134q100 104 148.5 226.5t48.5 249.5q0 128 -48.5 250.5t-145.5 226.5h63
q49 -47 86 -102.5t62 -117t37 -126t12 -129.5q0 -67 -13.5 -134t-39.5 -129t-63.5 -117t-84.5 -98h-62zM317 442l-55 76l141 126h85v-600h-114v441zM607 442l-55 76l140 126h86v-600h-115v441z" />
    <glyph glyph-name="cid838" unicode="&#x247f;" horiz-adv-x="1120" 
d="M270 -134q-47 43 -84.5 98t-63.5 117t-40 129t-14 134q0 65 12 129.5t37 126t62 117t87 102.5h63q-97 -104 -145.5 -226.5t-48.5 -250.5q0 -127 48.5 -249.5t148.5 -226.5h-62zM788 -134q100 104 148.5 226.5t48.5 249.5q0 128 -48.5 250.5t-145.5 226.5h63
q49 -47 86 -102.5t62 -117t37 -126t12 -129.5q0 -67 -13.5 -134t-39.5 -129t-63.5 -117t-84.5 -98h-62zM841 152v-106h-328v86l133 192q26 38 43.5 78t17.5 75q0 24 -12 43t-37 19q-18 0 -43 -19t-45 -47l-66 84q35 47 77.5 71t81.5 24q42 0 73.5 -14.5t52 -39t31 -56
t10.5 -65.5q0 -44 -25.5 -99t-61.5 -109l-76 -117h174zM287 442l-55 77l140 125h86v-600h-115v441z" />
    <glyph glyph-name="cid839" unicode="&#x2480;" horiz-adv-x="1120" 
d="M270 -134q-47 43 -84.5 98t-63.5 117t-40 129t-14 134q0 65 12 129.5t37 126t62 117t87 102.5h63q-97 -104 -145.5 -226.5t-48.5 -250.5q0 -127 48.5 -249.5t148.5 -226.5h-62zM788 -134q100 104 148.5 226.5t48.5 249.5q0 128 -48.5 250.5t-145.5 226.5h63
q49 -47 86 -102.5t62 -117t37 -126t12 -129.5q0 -67 -13.5 -134t-39.5 -129t-63.5 -117t-84.5 -98h-62zM507 573q22 25 43.5 40.5t42.5 24t41.5 11.5t40.5 3q30 0 60.5 -9.5t55 -29t40.5 -49.5t16 -71q0 -38 -18.5 -70t-45.5 -56q33 -19 57.5 -53t24.5 -84q0 -39 -11 -74.5
t-34.5 -62t-59 -42.5t-84.5 -16q-45 0 -92 22t-85 63l69 91q30 -28 55.5 -46t51.5 -18q32 0 52 18t20 58q0 19 -8.5 33.5t-22.5 23.5t-32.5 13.5t-37.5 4.5h-78v110h78q35 0 58 21t23 53q0 25 -16.5 39.5t-39.5 14.5q-21 0 -43 -6.5t-50 -39.5zM286 442l-54 76l141 126h84
v-600h-114v441z" />
    <glyph glyph-name="cid840" unicode="&#x2481;" horiz-adv-x="1120" 
d="M270 -134q-47 43 -84.5 98t-63.5 117t-40 129t-14 134q0 65 12 129.5t37 126t62 117t87 102.5h63q-97 -104 -145.5 -226.5t-48.5 -250.5q0 -127 48.5 -249.5t148.5 -226.5h-62zM788 -134q100 104 148.5 226.5t48.5 249.5q0 128 -48.5 250.5t-145.5 226.5h63
q49 -47 86 -102.5t62 -117t37 -126t12 -129.5q0 -67 -13.5 -134t-39.5 -129t-63.5 -117t-84.5 -98h-62zM277 442l-55 76l140 126h85v-600h-115v441zM882 164h-82v-120h-111v120h-215v87l219 391h107v-373h82v-105zM689 269v164l-91 -164h91z" />
    <glyph glyph-name="cid841" unicode="&#x2482;" horiz-adv-x="1120" 
d="M270 -134q-47 43 -84.5 98t-63.5 117t-40 129t-14 134q0 65 12 129.5t37 126t62 117t87 102.5h63q-97 -104 -145.5 -226.5t-48.5 -250.5q0 -127 48.5 -249.5t148.5 -226.5h-62zM788 -134q100 104 148.5 226.5t48.5 249.5q0 128 -48.5 250.5t-145.5 226.5h63
q49 -47 86 -102.5t62 -117t37 -126t12 -129.5q0 -67 -13.5 -134t-39.5 -129t-63.5 -117t-84.5 -98h-62zM276 442l-54 76l141 126h84l-10 -600h-104v441zM505 349l49 294h269v-105h-161l-24 -126q41 15 78 7.5t66 -26.5q38 -25 56.5 -67t18.5 -93q0 -43 -15 -78t-42 -60.5
t-63.5 -40t-79.5 -14.5q-54 -1 -99 22.5t-77 62.5l68 89q54 -66 110 -66q40 0 60 23.5t20 61.5q0 29 -17 48.5t-42.5 29t-55 8t-53.5 -13.5z" />
    <glyph glyph-name="cid801" unicode="&#x249c;" horiz-adv-x="1120" 
d="M270 -134q-47 43 -84.5 98t-63.5 117t-40 129t-14 134q0 65 12 129.5t37 126t62 117t87 102.5h63q-97 -104 -145.5 -226.5t-48.5 -250.5q0 -127 48.5 -249.5t148.5 -226.5h-62zM788 -134q100 104 148.5 226.5t48.5 249.5q0 128 -48.5 250.5t-145.5 226.5h63
q49 -47 86 -102.5t62 -117t37 -126t12 -129.5q0 -67 -13.5 -134t-39.5 -129t-63.5 -117t-84.5 -98h-62zM639 433q0 30 -21.5 51t-76.5 21q-62 0 -133 -37l-41 81q50 24 96.5 35.5t90.5 11.5q92 0 145 -45t53 -136v-294h-85l-18 56q-27 -27 -67 -45t-77 -18q-35 0 -65 11
t-52 31t-34.5 48t-12.5 62q0 35 17.5 65t49.5 52t75.5 35t96.5 14zM456 266q0 -24 19 -42.5t51 -18.5q34 0 65 21.5t48 50.5v72l-54 -1q-35 -1 -59.5 -8.5t-40 -19t-22.5 -25.5t-7 -29z" />
    <glyph glyph-name="cid802" unicode="&#x249d;" horiz-adv-x="1120" 
d="M270 -134q-47 43 -84.5 98t-63.5 117t-40 129t-14 134q0 65 12 129.5t37 126t62 117t87 102.5h63q-97 -104 -145.5 -226.5t-48.5 -250.5q0 -127 48.5 -249.5t148.5 -226.5h-62zM788 -134q100 104 148.5 226.5t48.5 249.5q0 128 -48.5 250.5t-145.5 226.5h63
q49 -47 86 -102.5t62 -117t37 -126t12 -129.5q0 -67 -13.5 -134t-39.5 -129t-63.5 -117t-84.5 -98h-62zM380 690h118v-228q44 49 126 49q46 0 83.5 -16.5t63.5 -48t40 -76t14 -100.5q0 -114 -64 -178t-177 -64q-23 0 -49.5 2t-53.5 6t-53.5 9.5t-47.5 13.5v631zM498 131
q20 -5 42.5 -8.5t42.5 -3.5q60 0 94.5 41t34.5 109q0 66 -25 108t-76 42q-31 0 -62 -16t-51 -52v-220z" />
    <glyph glyph-name="cid803" unicode="&#x249e;" horiz-adv-x="1120" 
d="M270 -134q-47 43 -84.5 98t-63.5 117t-40 129t-14 134q0 65 12 129.5t37 126t62 117t87 102.5h63q-97 -104 -145.5 -226.5t-48.5 -250.5q0 -127 48.5 -249.5t148.5 -226.5h-62zM788 -134q100 104 148.5 226.5t48.5 249.5q0 128 -48.5 250.5t-145.5 226.5h63
q49 -47 86 -102.5t62 -117t37 -126t12 -129.5q0 -67 -13.5 -134t-39.5 -129t-63.5 -117t-84.5 -98h-62zM681 445q-21 22 -46 34t-63 12q-55 0 -89 -38t-34 -113t34.5 -111t89.5 -36q36 0 68.5 9t59.5 29l46 -80q-39 -27 -82.5 -39t-91.5 -12q-59 0 -103.5 18t-74 50.5
t-44.5 76.5t-15 96t15 96t44 76.5t73 51t103 18.5q63 0 107 -19.5t72 -53.5z" />
    <glyph glyph-name="cid804" unicode="&#x249f;" horiz-adv-x="1120" 
d="M270 -134q-47 43 -84.5 98t-63.5 117t-40 129t-14 134q0 65 12 129.5t37 126t62 117t87 102.5h63q-97 -104 -145.5 -226.5t-48.5 -250.5q0 -127 48.5 -249.5t148.5 -226.5h-62zM788 -134q100 104 148.5 226.5t48.5 249.5q0 128 -48.5 250.5t-145.5 226.5h63
q49 -47 86 -102.5t62 -117t37 -126t12 -129.5q0 -67 -13.5 -134t-39.5 -129t-63.5 -117t-84.5 -98h-62zM542 507q49 0 87 -16v193h119v-643h-89l-18 47q-20 -26 -55 -44.5t-80 -18.5q-49 0 -88 17.5t-66 49t-41.5 74.5t-14.5 93q0 57 20 103t54 78t78.5 49.5t93.5 17.5z
M629 393q-20 11 -38 16.5t-47 5.5t-53.5 -11t-42.5 -31.5t-28 -49t-10 -64.5q0 -72 28 -108t70 -36q39 0 71.5 23t49.5 66v189z" />
    <glyph glyph-name="cid805" unicode="&#x24a0;" horiz-adv-x="1120" 
d="M270 -134q-47 43 -84.5 98t-63.5 117t-40 129t-14 134q0 65 12 129.5t37 126t62 117t87 102.5h63q-97 -104 -145.5 -226.5t-48.5 -250.5q0 -127 48.5 -249.5t148.5 -226.5h-62zM788 -134q100 104 148.5 226.5t48.5 249.5q0 128 -48.5 250.5t-145.5 226.5h63
q49 -47 86 -102.5t62 -117t37 -126t12 -129.5q0 -67 -13.5 -134t-39.5 -129t-63.5 -117t-84.5 -98h-62zM557 579q40 0 78.5 -14.5t68.5 -44.5t48.5 -76.5t18.5 -109.5q0 -7 -1 -19.5t-3 -19.5h-313q3 -23 12 -42.5t24 -34t38 -23t55 -8.5t61 10t61 34l45 -79
q-38 -29 -81 -42.5t-96 -13.5q-47 0 -89 13.5t-74 42t-51 74t-19 108.5t18.5 109.5t49.5 76.5t69.5 44.5t79.5 14.5zM557 487q-47 0 -71 -31.5t-32 -76.5h205q-4 51 -27.5 79.5t-74.5 28.5z" />
    <glyph glyph-name="cid806" unicode="&#x24a1;" horiz-adv-x="1120" 
d="M270 -134q-47 43 -84.5 98t-63.5 117t-40 129t-14 134q0 65 12 129.5t37 126t62 117t87 102.5h63q-97 -104 -145.5 -226.5t-48.5 -250.5q0 -127 48.5 -249.5t148.5 -226.5h-62zM788 -134q100 104 148.5 226.5t48.5 249.5q0 128 -48.5 250.5t-145.5 226.5h63
q49 -47 86 -102.5t62 -117t37 -126t12 -129.5q0 -67 -13.5 -134t-39.5 -129t-63.5 -117t-84.5 -98h-62zM473 1v357h-88v91h88v60q0 46 15.5 79t40.5 53t56 29.5t62 9.5q37 0 64 -7.5t53 -23.5l-45 -81q-12 10 -28 13.5t-31 3.5q-32 0 -50 -15.5t-18 -51.5v-69h123v-91h-123
v-357h-119z" />
    <glyph glyph-name="cid807" unicode="&#x24a2;" horiz-adv-x="1120" 
d="M270 -134q-47 43 -84.5 98t-63.5 117t-40 129t-14 134q0 65 12 129.5t37 126t62 117t87 102.5h63q-97 -104 -145.5 -226.5t-48.5 -250.5q0 -127 48.5 -249.5t148.5 -226.5h-62zM788 -134q100 104 148.5 226.5t48.5 249.5q0 128 -48.5 250.5t-145.5 226.5h63
q49 -47 86 -102.5t62 -117t37 -126t12 -129.5q0 -67 -13.5 -134t-39.5 -129t-63.5 -117t-84.5 -98h-62zM562 666q49 0 98.5 -8.5t100.5 -21.5v-426q0 -108 -62 -163.5t-164 -55.5q-43 0 -89.5 12t-85.5 39l48 81q26 -19 56.5 -29t69.5 -10q57 0 83.5 30t26.5 96v28
q-24 -26 -53 -37.5t-67 -11.5q-50 0 -87.5 19t-62.5 51t-38 73.5t-13 87.5q0 116 63 181t176 65zM644 564q-20 5 -40 9t-41 4q-27 0 -50.5 -11t-41 -31.5t-27 -49.5t-9.5 -64q0 -69 27.5 -106t71.5 -37q37 0 65 20.5t45 52.5v213z" />
    <glyph glyph-name="cid808" unicode="&#x24a3;" horiz-adv-x="1120" 
d="M270 -134q-47 43 -84.5 98t-63.5 117t-40 129t-14 134q0 65 12 129.5t37 126t62 117t87 102.5h63q-97 -104 -145.5 -226.5t-48.5 -250.5q0 -127 48.5 -249.5t148.5 -226.5h-62zM788 -134q100 104 148.5 226.5t48.5 249.5q0 128 -48.5 250.5t-145.5 226.5h63
q49 -47 86 -102.5t62 -117t37 -126t12 -129.5q0 -67 -13.5 -134t-39.5 -129t-63.5 -117t-84.5 -98h-62zM379 676h119v-250q29 30 67.5 51.5t81.5 21.5q26 0 51 -8.5t44.5 -26t31.5 -44.5t12 -64v-331h-118v333q0 23 -15 36t-32 13q-14 0 -31 -9t-34 -23.5t-32.5 -32.5
t-25.5 -36v-281h-119v651z" />
    <glyph glyph-name="cid809" unicode="&#x24a4;" horiz-adv-x="1120" 
d="M270 -134q-47 43 -84.5 98t-63.5 117t-40 129t-14 134q0 65 12 129.5t37 126t62 117t87 102.5h63q-97 -104 -145.5 -226.5t-48.5 -250.5q0 -127 48.5 -249.5t148.5 -226.5h-62zM788 -134q100 104 148.5 226.5t48.5 249.5q0 128 -48.5 250.5t-145.5 226.5h63
q49 -47 86 -102.5t62 -117t37 -126t12 -129.5q0 -67 -13.5 -134t-39.5 -129t-63.5 -117t-84.5 -98h-62zM493 667h134v-123h-134v123zM502 -5v458h120v-458h-120z" />
    <glyph glyph-name="cid810" unicode="&#x24a5;" horiz-adv-x="1120" 
d="M270 -134q-47 43 -84.5 98t-63.5 117t-40 129t-14 134q0 65 12 129.5t37 126t62 117t87 102.5h63q-97 -104 -145.5 -226.5t-48.5 -250.5q0 -127 48.5 -249.5t148.5 -226.5h-62zM788 -134q100 104 148.5 226.5t48.5 249.5q0 128 -48.5 250.5t-145.5 226.5h63
q49 -47 86 -102.5t62 -117t37 -126t12 -129.5q0 -67 -13.5 -134t-39.5 -129t-63.5 -117t-84.5 -98h-62zM506 703h135v-123h-135v123zM405 46q61 13 85.5 34t24.5 63v347h119v-350q0 -68 -48.5 -118t-151.5 -63z" />
    <glyph glyph-name="cid811" unicode="&#x24a6;" horiz-adv-x="1120" 
d="M270 -134q-47 43 -84.5 98t-63.5 117t-40 129t-14 134q0 65 12 129.5t37 126t62 117t87 102.5h63q-97 -104 -145.5 -226.5t-48.5 -250.5q0 -127 48.5 -249.5t148.5 -226.5h-62zM788 -134q100 104 148.5 226.5t48.5 249.5q0 128 -48.5 250.5t-145.5 226.5h63
q49 -47 86 -102.5t62 -117t37 -126t12 -129.5q0 -67 -13.5 -134t-39.5 -129t-63.5 -117t-84.5 -98h-62zM377 14v651h118v-402l173 209h134l-179 -219l214 -239h-134l-208 229v-229h-118z" />
    <glyph glyph-name="cid812" unicode="&#x24a7;" horiz-adv-x="1120" 
d="M270 -134q-47 43 -84.5 98t-63.5 117t-40 129t-14 134q0 65 12 129.5t37 126t62 117t87 102.5h63q-97 -104 -145.5 -226.5t-48.5 -250.5q0 -127 48.5 -249.5t148.5 -226.5h-62zM788 -134q100 104 148.5 226.5t48.5 249.5q0 128 -48.5 250.5t-145.5 226.5h63
q49 -47 86 -102.5t62 -117t37 -126t12 -129.5q0 -67 -13.5 -134t-39.5 -129t-63.5 -117t-84.5 -98h-62zM500 687h119v-506q0 -45 11.5 -88t22.5 -66l-107 -33q-7 12 -15 28.5t-15 39t-11.5 52.5t-4.5 68v505z" />
    <glyph glyph-name="cid813" unicode="&#x24a8;" horiz-adv-x="1120" 
d="M270 -134q-47 43 -84.5 98t-63.5 117t-40 129t-14 134q0 65 12 129.5t37 126t62 117t87 102.5h63q-97 -104 -145.5 -226.5t-48.5 -250.5q0 -127 48.5 -249.5t148.5 -226.5h-62zM788 -134q100 104 148.5 226.5t48.5 249.5q0 128 -48.5 250.5t-145.5 226.5h63
q49 -47 86 -102.5t62 -117t37 -126t12 -129.5q0 -67 -13.5 -134t-39.5 -129t-63.5 -117t-84.5 -98h-62zM263 561h85l23 -63q8 12 19 25.5t25.5 25.5t32.5 20t41 8q39 0 74 -19t50 -58q25 33 52.5 55t72.5 22q27 0 51 -8.5t42.5 -26.5t29.5 -45t11 -64v-331h-113v327
q0 23 -14 37t-32 14q-14 0 -27 -10t-24.5 -25t-21.5 -32t-17 -31v-280h-113v329q0 23 -14.5 36.5t-31.5 13.5q-13 0 -26 -9.5t-24.5 -24.5t-21 -32.5t-15.5 -32.5v-280h-114v459z" />
    <glyph glyph-name="cid814" unicode="&#x24a9;" horiz-adv-x="1120" 
d="M270 -134q-47 43 -84.5 98t-63.5 117t-40 129t-14 134q0 65 12 129.5t37 126t62 117t87 102.5h63q-97 -104 -145.5 -226.5t-48.5 -250.5q0 -127 48.5 -249.5t148.5 -226.5h-62zM788 -134q100 104 148.5 226.5t48.5 249.5q0 128 -48.5 250.5t-145.5 226.5h63
q49 -47 86 -102.5t62 -117t37 -126t12 -129.5q0 -67 -13.5 -134t-39.5 -129t-63.5 -117t-84.5 -98h-62zM363 566h91l23 -64q35 32 77 56t88 24q28 0 53.5 -8.5t44.5 -26.5t30.5 -45t11.5 -64v-331h-117v332q0 23 -14.5 37t-32.5 14q-17 0 -36 -9.5t-37.5 -24.5t-35 -33
t-26.5 -35v-281h-120v459z" />
    <glyph glyph-name="cid815" unicode="&#x24aa;" horiz-adv-x="1120" 
d="M270 -134q-47 43 -84.5 98t-63.5 117t-40 129t-14 134q0 65 12 129.5t37 126t62 117t87 102.5h63q-97 -104 -145.5 -226.5t-48.5 -250.5q0 -127 48.5 -249.5t148.5 -226.5h-62zM788 -134q100 104 148.5 226.5t48.5 249.5q0 128 -48.5 250.5t-145.5 226.5h63
q49 -47 86 -102.5t62 -117t37 -126t12 -129.5q0 -67 -13.5 -134t-39.5 -129t-63.5 -117t-84.5 -98h-62zM556 106q-46 0 -88 13t-74.5 41.5t-52 75t-19.5 112.5t19 112t51.5 74.5t74.5 41.5t89 13q46 0 89 -13t75 -41.5t51.5 -74.5t19.5 -112t-19 -112.5t-51.5 -75t-75 -41.5
t-89.5 -13zM556 498q-24 0 -46 -8t-38.5 -26t-26.5 -46.5t-10 -69.5q0 -42 10 -70.5t26.5 -46.5t38.5 -26t46 -8q25 0 47 8t38.5 26t26 46.5t9.5 70.5q0 41 -9.5 69.5t-26 46.5t-38.5 26t-47 8z" />
    <glyph glyph-name="cid816" unicode="&#x24ab;" horiz-adv-x="1120" 
d="M270 -134q-47 43 -84.5 98t-63.5 117t-40 129t-14 134q0 65 12 129.5t37 126t62 117t87 102.5h63q-97 -104 -145.5 -226.5t-48.5 -250.5q0 -127 48.5 -249.5t148.5 -226.5h-62zM788 -134q100 104 148.5 226.5t48.5 249.5q0 128 -48.5 250.5t-145.5 226.5h63
q49 -47 86 -102.5t62 -117t37 -126t12 -129.5q0 -67 -13.5 -134t-39.5 -129t-63.5 -117t-84.5 -98h-62zM565 164q-23 0 -42 4t-39 12v-189h-120v639h90l18 -47q21 26 55 44.5t81 18.5q48 0 86.5 -18t65.5 -49.5t41.5 -75t14.5 -93.5q0 -57 -20.5 -102.5t-55.5 -77.5
t-80.5 -49t-94.5 -17zM484 278q20 -11 38 -16.5t47 -5.5q28 0 52.5 10.5t42.5 30t28 48.5t10 65q0 72 -27.5 109t-68.5 37t-73 -23t-49 -65v-190z" />
    <glyph glyph-name="cid817" unicode="&#x24ac;" horiz-adv-x="1120" 
d="M270 -134q-47 43 -84.5 98t-63.5 117t-40 129t-14 134q0 65 12 129.5t37 126t62 117t87 102.5h63q-97 -104 -145.5 -226.5t-48.5 -250.5q0 -127 48.5 -249.5t148.5 -226.5h-62zM788 -134q100 104 148.5 226.5t48.5 249.5q0 128 -48.5 250.5t-145.5 226.5h63
q49 -47 86 -102.5t62 -117t37 -126t12 -129.5q0 -67 -13.5 -134t-39.5 -129t-63.5 -117t-84.5 -98h-62zM750 -12h-119v223q-22 -23 -51.5 -36t-68.5 -13q-94 0 -148.5 63.5t-54.5 176.5q0 56 16.5 101t48 76.5t76.5 48.5t101 17q48 0 101.5 -9t98.5 -21v-627zM631 542
q-20 5 -40 8.5t-40 3.5q-59 0 -94 -41.5t-35 -109.5q0 -67 25.5 -108t76.5 -41q29 0 58 18.5t49 53.5v216z" />
    <glyph glyph-name="cid818" unicode="&#x24ad;" horiz-adv-x="1120" 
d="M270 -134q-47 43 -84.5 98t-63.5 117t-40 129t-14 134q0 65 12 129.5t37 126t62 117t87 102.5h63q-97 -104 -145.5 -226.5t-48.5 -250.5q0 -127 48.5 -249.5t148.5 -226.5h-62zM788 -134q100 104 148.5 226.5t48.5 249.5q0 128 -48.5 250.5t-145.5 226.5h63
q49 -47 86 -102.5t62 -117t37 -126t12 -129.5q0 -67 -13.5 -134t-39.5 -129t-63.5 -117t-84.5 -98h-62zM441 96v459h90l23 -80q13 20 30 37.5t36.5 30.5t40.5 20.5t42 7.5q24 0 45 -4t38 -14l-14 -92q-11 5 -24.5 7.5t-30.5 2.5q-21 0 -44.5 -11.5t-46 -32t-40 -48.5
t-26.5 -62v-221h-119z" />
    <glyph glyph-name="cid819" unicode="&#x24ae;" horiz-adv-x="1120" 
d="M270 -134q-47 43 -84.5 98t-63.5 117t-40 129t-14 134q0 65 12 129.5t37 126t62 117t87 102.5h63q-97 -104 -145.5 -226.5t-48.5 -250.5q0 -127 48.5 -249.5t148.5 -226.5h-62zM788 -134q100 104 148.5 226.5t48.5 249.5q0 128 -48.5 250.5t-145.5 226.5h63
q49 -47 86 -102.5t62 -117t37 -126t12 -129.5q0 -67 -13.5 -134t-39.5 -129t-63.5 -117t-84.5 -98h-62zM462 252q22 -29 49.5 -46t56.5 -19q17 -1 29.5 3.5t21 12t12.5 16t4 16.5q0 18 -5.5 30t-17.5 21t-31 17t-47 18q-57 21 -91.5 60.5t-33.5 95.5q1 34 17.5 59t42.5 41.5
t58.5 24.5t65.5 7q42 -2 81 -16.5t70 -43.5l-52 -78q-21 18 -47 30t-58 12q-23 0 -40 -9t-17 -32q0 -12 2 -20.5t10.5 -16t25 -15t45.5 -17.5q144 -48 137 -162q-2 -38 -18.5 -66t-42 -46t-58.5 -27t-68 -7q-54 2 -95.5 21t-73.5 61z" />
    <glyph glyph-name="cid820" unicode="&#x24af;" horiz-adv-x="1120" 
d="M270 -134q-47 43 -84.5 98t-63.5 117t-40 129t-14 134q0 65 12 129.5t37 126t62 117t87 102.5h63q-97 -104 -145.5 -226.5t-48.5 -250.5q0 -127 48.5 -249.5t148.5 -226.5h-62zM788 -134q100 104 148.5 226.5t48.5 249.5q0 128 -48.5 250.5t-145.5 226.5h63
q49 -47 86 -102.5t62 -117t37 -126t12 -129.5q0 -67 -13.5 -134t-39.5 -129t-63.5 -117t-84.5 -98h-62zM464 407h-87v91h87v130h119v-130h143v-91h-143v-226q0 -59 57 -59q12 0 30 4.5t39 13.5l23 -83q-29 -13 -55.5 -19t-48.5 -6q-29 0 -58 6.5t-52.5 23.5t-38.5 46t-15 74
v225z" />
    <glyph glyph-name="cid821" unicode="&#x24b0;" horiz-adv-x="1120" 
d="M270 -134q-47 43 -84.5 98t-63.5 117t-40 129t-14 134q0 65 12 129.5t37 126t62 117t87 102.5h63q-97 -104 -145.5 -226.5t-48.5 -250.5q0 -127 48.5 -249.5t148.5 -226.5h-62zM788 -134q100 104 148.5 226.5t48.5 249.5q0 128 -48.5 250.5t-145.5 226.5h63
q49 -47 86 -102.5t62 -117t37 -126t12 -129.5q0 -67 -13.5 -134t-39.5 -129t-63.5 -117t-84.5 -98h-62zM762 78h-91l-22 71q-33 -35 -69.5 -57t-84.5 -22q-27 0 -51 8.5t-43 26.5t-30 45t-11 64v323h118v-326q0 -23 12 -36.5t29 -13.5q18 0 35.5 10.5t33.5 27t30 35t25 35.5
v268h119v-459z" />
    <glyph glyph-name="cid822" unicode="&#x24b1;" horiz-adv-x="1120" 
d="M270 -134q-47 43 -84.5 98t-63.5 117t-40 129t-14 134q0 65 12 129.5t37 126t62 117t87 102.5h63q-97 -104 -145.5 -226.5t-48.5 -250.5q0 -127 48.5 -249.5t148.5 -226.5h-62zM788 -134q100 104 148.5 226.5t48.5 249.5q0 128 -48.5 250.5t-145.5 226.5h63
q49 -47 86 -102.5t62 -117t37 -126t12 -129.5q0 -67 -13.5 -134t-39.5 -129t-63.5 -117t-84.5 -98h-62zM499 82l-164 459h116l107 -323l106 323h115l-164 -459h-116z" />
    <glyph glyph-name="cid823" unicode="&#x24b2;" horiz-adv-x="1120" 
d="M270 -134q-47 43 -84.5 98t-63.5 117t-40 129t-14 134q0 65 12 129.5t37 126t62 117t87 102.5h63q-97 -104 -145.5 -226.5t-48.5 -250.5q0 -127 48.5 -249.5t148.5 -226.5h-62zM788 -134q100 104 148.5 226.5t48.5 249.5q0 128 -48.5 250.5t-145.5 226.5h63
q49 -47 86 -102.5t62 -117t37 -126t12 -129.5q0 -67 -13.5 -134t-39.5 -129t-63.5 -117t-84.5 -98h-62zM688 239l82 306h108l-139 -459h-104l-70 277l-72 -277h-105l-138 459h108l82 -306l81 306h86z" />
    <glyph glyph-name="cid824" unicode="&#x24b3;" horiz-adv-x="1120" 
d="M270 -134q-47 43 -84.5 98t-63.5 117t-40 129t-14 134q0 65 12 129.5t37 126t62 117t87 102.5h63q-97 -104 -145.5 -226.5t-48.5 -250.5q0 -127 48.5 -249.5t148.5 -226.5h-62zM788 -134q100 104 148.5 226.5t48.5 249.5q0 128 -48.5 250.5t-145.5 226.5h63
q49 -47 86 -102.5t62 -117t37 -126t12 -129.5q0 -67 -13.5 -134t-39.5 -129t-63.5 -117t-84.5 -98h-62zM661 91l-104 153l-103 -153h-124l163 238l-152 221h121l95 -138l94 138h121l-150 -221q39 -59 81 -119t81 -119h-123z" />
    <glyph glyph-name="cid825" unicode="&#x24b4;" horiz-adv-x="1120" 
d="M260 -134q-47 43 -83 98t-60 117t-36.5 129t-12.5 134q0 65 10.5 129.5t33.5 126t58.5 117t85.5 102.5h63q-97 -104 -140.5 -226.5t-43.5 -250.5q0 -127 43.5 -249.5t143.5 -226.5h-62zM798 -134q100 104 143.5 226.5t43.5 249.5q0 128 -43.5 250.5t-140.5 226.5h63
q49 -47 84.5 -102.5t58.5 -117t33.5 -126t10.5 -129.5q0 -67 -12 -134t-36 -129t-60 -117t-83 -98h-62zM518 191l-164 435h119l106 -299q25 73 52 149t53 150h118l-163 -435q-20 -50 -42 -83t-50 -55t-64 -37.5t-83 -31.5l-38 87q31 11 55 20t42 20.5t31 26t22 37.5z" />
    <glyph glyph-name="cid826" unicode="&#x24b5;" horiz-adv-x="1120" 
d="M260 -134q-47 43 -83 98t-60 117t-36.5 129t-12.5 134q0 65 10.5 129.5t33.5 126t58.5 117t85.5 102.5h63q-97 -104 -140.5 -226.5t-43.5 -250.5q0 -127 43.5 -249.5t143.5 -226.5h-62zM798 -134q100 104 143.5 226.5t43.5 249.5q0 128 -43.5 250.5t-140.5 226.5h63
q49 -47 84.5 -102.5t58.5 -117t33.5 -126t10.5 -129.5q0 -67 -12 -134t-36 -129t-60 -117t-83 -98h-62zM381 478v91h362v-68l-228 -300h239v-91h-386v68l226 300h-213z" />
    <glyph glyph-name="cid707" unicode="&#x24d0;" horiz-adv-x="1120" 
d="M68 336q0 102 38.5 191.5t105.5 156.5t156 105.5t191 38.5t191.5 -38.5t156 -105.5t105.5 -156.5t39 -191.5q0 -101 -39 -190.5t-105.5 -156t-156 -105t-191.5 -38.5t-191 38.5t-156 105t-105.5 156t-38.5 190.5zM134 336q0 -87 33.5 -164.5t91 -135.5t135 -92t165.5 -34
t165.5 34t135.5 92t91.5 135.5t33.5 164.5q0 88 -33.5 166t-91.5 136t-135.5 92t-165.5 34t-165.5 -34t-135 -92t-91 -136t-33.5 -166zM639 433q0 30 -21.5 51t-76.5 21q-62 0 -133 -37l-41 81q50 24 96.5 35.5t90.5 11.5q92 0 145 -45t53 -136v-294h-85l-18 56
q-27 -27 -67 -45t-77 -18q-35 0 -65 11t-52 31t-34.5 48t-12.5 62q0 35 17.5 65t49.5 52t75.5 35t96.5 14zM456 266q0 -24 19 -42.5t51 -18.5q34 0 65 21.5t48 50.5v72l-54 -1q-35 -1 -59.5 -8.5t-40 -19t-22.5 -25.5t-7 -29z" />
    <glyph glyph-name="cid708" unicode="&#x24d1;" horiz-adv-x="1120" 
d="M68 336q0 102 38.5 191.5t105.5 156.5t156 105.5t191 38.5t191.5 -38.5t156 -105.5t105.5 -156.5t39 -191.5q0 -101 -39 -190.5t-105.5 -156t-156 -105t-191.5 -38.5t-191 38.5t-156 105t-105.5 156t-38.5 190.5zM134 336q0 -87 33.5 -164.5t91 -135.5t135 -92t165.5 -34
t165.5 34t135.5 92t91.5 135.5t33.5 164.5q0 88 -33.5 166t-91.5 136t-135.5 92t-165.5 34t-165.5 -34t-135 -92t-91 -136t-33.5 -166zM380 710h118v-248q44 49 126 49q46 0 83.5 -16.5t63.5 -48t40 -76t14 -100.5q0 -114 -64 -178t-177 -64q-23 0 -49.5 2t-53.5 6
t-53.5 9.5t-47.5 13.5v651zM498 131q20 -5 42.5 -8.5t42.5 -3.5q60 0 94.5 41t34.5 109q0 66 -25 108t-76 42q-31 0 -62 -16t-51 -52v-220z" />
    <glyph glyph-name="cid709" unicode="&#x24d2;" horiz-adv-x="1120" 
d="M68 336q0 102 38.5 191.5t105.5 156.5t156 105.5t191 38.5t191.5 -38.5t156 -105.5t105.5 -156.5t39 -191.5q0 -101 -39 -190.5t-105.5 -156t-156 -105t-191.5 -38.5t-191 38.5t-156 105t-105.5 156t-38.5 190.5zM134 336q0 -87 33.5 -164.5t91 -135.5t135 -92t165.5 -34
t165.5 34t135.5 92t91.5 135.5t33.5 164.5q0 88 -33.5 166t-91.5 136t-135.5 92t-165.5 34t-165.5 -34t-135 -92t-91 -136t-33.5 -166zM681 445q-21 22 -46 34t-63 12q-55 0 -89 -38t-34 -113t34.5 -111t89.5 -36q36 0 68.5 9t59.5 29l46 -80q-39 -27 -82.5 -39t-91.5 -12
q-59 0 -103.5 18t-74 50.5t-44.5 76.5t-15 96t15 96t44 76.5t73 51t103 18.5q63 0 107 -19.5t72 -53.5z" />
    <glyph glyph-name="cid710" unicode="&#x24d3;" horiz-adv-x="1120" 
d="M68 336q0 102 38.5 191.5t105.5 156.5t156 105.5t191 38.5t191.5 -38.5t156 -105.5t105.5 -156.5t39 -191.5q0 -101 -39 -190.5t-105.5 -156t-156 -105t-191.5 -38.5t-191 38.5t-156 105t-105.5 156t-38.5 190.5zM134 336q0 -87 33.5 -164.5t91 -135.5t135 -92t165.5 -34
t165.5 34t135.5 92t91.5 135.5t33.5 164.5q0 88 -33.5 166t-91.5 136t-135.5 92t-165.5 34t-165.5 -34t-135 -92t-91 -136t-33.5 -166zM542 507q49 0 87 -16v193h119v-643h-89l-18 47q-20 -26 -55 -44.5t-80 -18.5q-49 0 -88 17.5t-66 49t-41.5 74.5t-14.5 93q0 57 20 103
t54 78t78.5 49.5t93.5 17.5zM629 393q-20 11 -38 16.5t-47 5.5t-53.5 -11t-42.5 -31.5t-28 -49t-10 -64.5q0 -72 28 -108t70 -36q39 0 71.5 23t49.5 66v189z" />
    <glyph glyph-name="cid711" unicode="&#x24d4;" horiz-adv-x="1120" 
d="M68 336q0 102 38.5 191.5t105.5 156.5t156 105.5t191 38.5t191.5 -38.5t156 -105.5t105.5 -156.5t39 -191.5q0 -101 -39 -190.5t-105.5 -156t-156 -105t-191.5 -38.5t-191 38.5t-156 105t-105.5 156t-38.5 190.5zM134 336q0 -87 33.5 -164.5t91 -135.5t135 -92t165.5 -34
t165.5 34t135.5 92t91.5 135.5t33.5 164.5q0 88 -33.5 166t-91.5 136t-135.5 92t-165.5 34t-165.5 -34t-135 -92t-91 -136t-33.5 -166zM557 579q40 0 78.5 -14.5t68.5 -44.5t48.5 -76.5t18.5 -109.5q0 -7 -1 -19.5t-3 -19.5h-313q3 -23 12 -42.5t24 -34t38 -23t55 -8.5
t61 10t61 34l45 -79q-38 -29 -81 -42.5t-96 -13.5q-47 0 -89 13.5t-74 42t-51 74t-19 108.5t18.5 109.5t49.5 76.5t69.5 44.5t79.5 14.5zM557 487q-47 0 -71 -31.5t-32 -76.5h205q-4 51 -27.5 79.5t-74.5 28.5z" />
    <glyph glyph-name="cid712" unicode="&#x24d5;" horiz-adv-x="1120" 
d="M68 336q0 102 38.5 191.5t105.5 156.5t156 105.5t191 38.5t191.5 -38.5t156 -105.5t105.5 -156.5t39 -191.5q0 -101 -39 -190.5t-105.5 -156t-156 -105t-191.5 -38.5t-191 38.5t-156 105t-105.5 156t-38.5 190.5zM134 336q0 -87 33.5 -164.5t91 -135.5t135 -92t165.5 -34
t165.5 34t135.5 92t91.5 135.5t33.5 164.5q0 88 -33.5 166t-91.5 136t-135.5 92t-165.5 34t-165.5 -34t-135 -92t-91 -136t-33.5 -166zM473 1v357h-88v91h88v60q0 46 15.5 79t40.5 53t56 29.5t62 9.5q37 0 64 -7.5t53 -23.5l-45 -81q-12 10 -28 13.5t-31 3.5
q-32 0 -50 -15.5t-18 -51.5v-69h123v-91h-123v-357h-119z" />
    <glyph glyph-name="cid713" unicode="&#x24d6;" horiz-adv-x="1120" 
d="M68 336q0 102 38.5 191.5t105.5 156.5t156 105.5t191 38.5t191.5 -38.5t156 -105.5t105.5 -156.5t39 -191.5q0 -101 -39 -190.5t-105.5 -156t-156 -105t-191.5 -38.5t-191 38.5t-156 105t-105.5 156t-38.5 190.5zM134 336q0 -87 33.5 -164.5t91 -135.5t135 -92t165.5 -34
t165.5 34t135.5 92t91.5 135.5t33.5 164.5q0 88 -33.5 166t-91.5 136t-135.5 92t-165.5 34t-165.5 -34t-135 -92t-91 -136t-33.5 -166zM562 666q49 0 98.5 -8.5t100.5 -21.5v-426q0 -108 -62 -163.5t-164 -55.5q-43 0 -89.5 12t-85.5 39l48 81q26 -19 56.5 -29t69.5 -10
q57 0 83.5 30t26.5 96v28q-24 -26 -53 -37.5t-67 -11.5q-50 0 -87.5 19t-62.5 51t-38 73.5t-13 87.5q0 116 63 181t176 65zM644 564q-20 5 -40 9t-41 4q-27 0 -50.5 -11t-41 -31.5t-27 -49.5t-9.5 -64q0 -69 27.5 -106t71.5 -37q37 0 65 20.5t45 52.5v213z" />
    <glyph glyph-name="cid714" unicode="&#x24d7;" horiz-adv-x="1120" 
d="M68 336q0 102 38.5 191.5t105.5 156.5t156 105.5t191 38.5t191.5 -38.5t156 -105.5t105.5 -156.5t39 -191.5q0 -101 -39 -190.5t-105.5 -156t-156 -105t-191.5 -38.5t-191 38.5t-156 105t-105.5 156t-38.5 190.5zM134 336q0 -87 33.5 -164.5t91 -135.5t135 -92t165.5 -34
t165.5 34t135.5 92t91.5 135.5t33.5 164.5q0 88 -33.5 166t-91.5 136t-135.5 92t-165.5 34t-165.5 -34t-135 -92t-91 -136t-33.5 -166zM379 676h119v-250q29 30 67.5 51.5t81.5 21.5q26 0 51 -8.5t44.5 -26t31.5 -44.5t12 -64v-331h-118v333q0 23 -15 36t-32 13
q-14 0 -31 -9t-34 -23.5t-32.5 -32.5t-25.5 -36v-281h-119v651z" />
    <glyph glyph-name="cid715" unicode="&#x24d8;" horiz-adv-x="1120" 
d="M68 336q0 102 38.5 191.5t105.5 156.5t156 105.5t191 38.5t191.5 -38.5t156 -105.5t105.5 -156.5t39 -191.5q0 -101 -39 -190.5t-105.5 -156t-156 -105t-191.5 -38.5t-191 38.5t-156 105t-105.5 156t-38.5 190.5zM134 336q0 -87 33.5 -164.5t91 -135.5t135 -92t165.5 -34
t165.5 34t135.5 92t91.5 135.5t33.5 164.5q0 88 -33.5 166t-91.5 136t-135.5 92t-165.5 34t-165.5 -34t-135 -92t-91 -136t-33.5 -166zM493 667h134v-123h-134v123zM502 -5v458h120v-458h-120z" />
    <glyph glyph-name="cid716" unicode="&#x24d9;" horiz-adv-x="1120" 
d="M68 336q0 102 38.5 191.5t105.5 156.5t156 105.5t191 38.5t191.5 -38.5t156 -105.5t105.5 -156.5t39 -191.5q0 -101 -39 -190.5t-105.5 -156t-156 -105t-191.5 -38.5t-191 38.5t-156 105t-105.5 156t-38.5 190.5zM134 336q0 -87 33.5 -164.5t91 -135.5t135 -92t165.5 -34
t165.5 34t135.5 92t91.5 135.5t33.5 164.5q0 88 -33.5 166t-91.5 136t-135.5 92t-165.5 34t-165.5 -34t-135 -92t-91 -136t-33.5 -166zM506 703h135v-123h-135v123zM405 46q61 13 85.5 34t24.5 63v347h119v-350q0 -68 -48.5 -118t-151.5 -63z" />
    <glyph glyph-name="cid717" unicode="&#x24da;" horiz-adv-x="1120" 
d="M68 336q0 102 38.5 191.5t105.5 156.5t156 105.5t191 38.5t191.5 -38.5t156 -105.5t105.5 -156.5t39 -191.5q0 -101 -39 -190.5t-105.5 -156t-156 -105t-191.5 -38.5t-191 38.5t-156 105t-105.5 156t-38.5 190.5zM377 14v651h118v-402l173 209h134l-179 -219l214 -238
q69 59 108.5 141.5t39.5 179.5q0 88 -33.5 166t-91.5 136t-135.5 92t-165.5 34t-165.5 -34t-135 -92t-91 -136t-33.5 -166q0 -87 33.5 -164.5t91 -135.5t135 -92t165.5 -34q80 0 150.5 28t126.5 76h-133l-208 229v-229h-118z" />
    <glyph glyph-name="cid718" unicode="&#x24db;" horiz-adv-x="1120" 
d="M68 336q0 102 38.5 191.5t105.5 156.5t156 105.5t191 38.5t191.5 -38.5t156 -105.5t105.5 -156.5t39 -191.5q0 -101 -39 -190.5t-105.5 -156t-156 -105t-191.5 -38.5t-191 38.5t-156 105t-105.5 156t-38.5 190.5zM134 336q0 -87 33.5 -164.5t91 -135.5t135 -92t165.5 -34
t165.5 34t135.5 92t91.5 135.5t33.5 164.5q0 88 -33.5 166t-91.5 136t-135.5 92t-165.5 34t-165.5 -34t-135 -92t-91 -136t-33.5 -166zM500 667h119v-486q0 -45 11.5 -88t22.5 -66l-107 -33q-7 12 -15 28.5t-15 39t-11.5 52.5t-4.5 68v485z" />
    <glyph glyph-name="cid719" unicode="&#x24dc;" horiz-adv-x="1120" 
d="M68 336q0 102 38.5 191.5t105.5 156.5t156 105.5t191 38.5t191.5 -38.5t156 -105.5t105.5 -156.5t39 -191.5q0 -101 -39 -190.5t-105.5 -156t-156 -105t-191.5 -38.5t-191 38.5t-156 105t-105.5 156t-38.5 190.5zM134 336q0 -87 33.5 -164.5t91 -135.5t135 -92t165.5 -34
t165.5 34t135.5 92t91.5 135.5t33.5 164.5q0 88 -33.5 166t-91.5 136t-135.5 92t-165.5 34t-165.5 -34t-135 -92t-91 -136t-33.5 -166zM263 561h85l23 -63q8 12 19 25.5t25.5 25.5t32.5 20t41 8q39 0 74 -19t50 -58q25 33 52.5 55t72.5 22q27 0 51 -8.5t42.5 -26.5t29.5 -45
t11 -64v-331h-113v327q0 23 -14 37t-32 14q-14 0 -27 -10t-24.5 -25t-21.5 -32t-17 -31v-280h-113v329q0 23 -14.5 36.5t-31.5 13.5q-13 0 -26 -9.5t-24.5 -24.5t-21 -32.5t-15.5 -32.5v-280h-114v459z" />
    <glyph glyph-name="cid720" unicode="&#x24dd;" horiz-adv-x="1120" 
d="M68 336q0 102 38.5 191.5t105.5 156.5t156 105.5t191 38.5t191.5 -38.5t156 -105.5t105.5 -156.5t39 -191.5q0 -101 -39 -190.5t-105.5 -156t-156 -105t-191.5 -38.5t-191 38.5t-156 105t-105.5 156t-38.5 190.5zM134 336q0 -87 33.5 -164.5t91 -135.5t135 -92t165.5 -34
t165.5 34t135.5 92t91.5 135.5t33.5 164.5q0 88 -33.5 166t-91.5 136t-135.5 92t-165.5 34t-165.5 -34t-135 -92t-91 -136t-33.5 -166zM363 566h91l23 -64q35 32 77 56t88 24q28 0 53.5 -8.5t44.5 -26.5t30.5 -45t11.5 -64v-331h-117v332q0 23 -14.5 37t-32.5 14
q-17 0 -36 -9.5t-37.5 -24.5t-35 -33t-26.5 -35v-281h-120v459z" />
    <glyph glyph-name="cid721" unicode="&#x24de;" horiz-adv-x="1120" 
d="M68 336q0 102 38.5 191.5t105.5 156.5t156 105.5t191 38.5t191.5 -38.5t156 -105.5t105.5 -156.5t39 -191.5q0 -101 -39 -190.5t-105.5 -156t-156 -105t-191.5 -38.5t-191 38.5t-156 105t-105.5 156t-38.5 190.5zM134 336q0 -87 33.5 -164.5t91 -135.5t135 -92t165.5 -34
t165.5 34t135.5 92t91.5 135.5t33.5 164.5q0 88 -33.5 166t-91.5 136t-135.5 92t-165.5 34t-165.5 -34t-135 -92t-91 -136t-33.5 -166zM556 106q-46 0 -88 13t-74.5 41.5t-52 75t-19.5 112.5t19 112t51.5 74.5t74.5 41.5t89 13q46 0 89 -13t75 -41.5t51.5 -74.5t19.5 -112
t-19 -112.5t-51.5 -75t-75 -41.5t-89.5 -13zM556 498q-24 0 -46 -8t-38.5 -26t-26.5 -46.5t-10 -69.5q0 -42 10 -70.5t26.5 -46.5t38.5 -26t46 -8q25 0 47 8t38.5 26t26 46.5t9.5 70.5q0 41 -9.5 69.5t-26 46.5t-38.5 26t-47 8z" />
    <glyph glyph-name="cid722" unicode="&#x24df;" horiz-adv-x="1120" 
d="M68 336q0 102 38.5 191.5t105.5 156.5t156 105.5t191 38.5t191.5 -38.5t156 -105.5t105.5 -156.5t39 -191.5q0 -101 -39 -190.5t-105.5 -156t-156 -105t-191.5 -38.5t-191 38.5t-156 105t-105.5 156t-38.5 190.5zM134 336q0 -87 33.5 -164.5t91 -135.5t135 -92t165.5 -34
t165.5 34t135.5 92t91.5 135.5t33.5 164.5q0 88 -33.5 166t-91.5 136t-135.5 92t-165.5 34t-165.5 -34t-135 -92t-91 -136t-33.5 -166zM565 164q-23 0 -42 4t-39 12v-189h-120v639h90l18 -47q21 26 55 44.5t81 18.5q48 0 86.5 -18t65.5 -49.5t41.5 -75t14.5 -93.5
q0 -57 -20.5 -102.5t-55.5 -77.5t-80.5 -49t-94.5 -17zM484 278q20 -11 38 -16.5t47 -5.5q28 0 52.5 10.5t42.5 30t28 48.5t10 65q0 72 -27.5 109t-68.5 37t-73 -23t-49 -65v-190z" />
    <glyph glyph-name="cid723" unicode="&#x24e0;" horiz-adv-x="1120" 
d="M68 336q0 102 38.5 191.5t105.5 156.5t156 105.5t191 38.5t191.5 -38.5t156 -105.5t105.5 -156.5t39 -191.5q0 -101 -39 -190.5t-105.5 -156t-156 -105t-191.5 -38.5t-191 38.5t-156 105t-105.5 156t-38.5 190.5zM134 336q0 -87 33.5 -164.5t91 -135.5t135 -92t165.5 -34
t165.5 34t135.5 92t91.5 135.5t33.5 164.5q0 88 -33.5 166t-91.5 136t-135.5 92t-165.5 34t-165.5 -34t-135 -92t-91 -136t-33.5 -166zM750 -12h-119v223q-22 -23 -51.5 -36t-68.5 -13q-94 0 -148.5 63.5t-54.5 176.5q0 56 16.5 101t48 76.5t76.5 48.5t101 17q48 0 101.5 -9
t98.5 -21v-627zM631 542q-20 5 -40 8.5t-40 3.5q-59 0 -94 -41.5t-35 -109.5q0 -67 25.5 -108t76.5 -41q29 0 58 18.5t49 53.5v216z" />
    <glyph glyph-name="cid724" unicode="&#x24e1;" horiz-adv-x="1120" 
d="M68 336q0 102 38.5 191.5t105.5 156.5t156 105.5t191 38.5t191.5 -38.5t156 -105.5t105.5 -156.5t39 -191.5q0 -101 -39 -190.5t-105.5 -156t-156 -105t-191.5 -38.5t-191 38.5t-156 105t-105.5 156t-38.5 190.5zM134 336q0 -87 33.5 -164.5t91 -135.5t135 -92t165.5 -34
t165.5 34t135.5 92t91.5 135.5t33.5 164.5q0 88 -33.5 166t-91.5 136t-135.5 92t-165.5 34t-165.5 -34t-135 -92t-91 -136t-33.5 -166zM441 96v459h90l23 -80q13 20 30 37.5t36.5 30.5t40.5 20.5t42 7.5q24 0 45 -4t38 -14l-14 -92q-11 5 -24.5 7.5t-30.5 2.5
q-21 0 -44.5 -11.5t-46 -32t-40 -48.5t-26.5 -62v-221h-119z" />
    <glyph glyph-name="cid725" unicode="&#x24e2;" horiz-adv-x="1120" 
d="M68 336q0 102 38.5 191.5t105.5 156.5t156 105.5t191 38.5t191.5 -38.5t156 -105.5t105.5 -156.5t39 -191.5q0 -101 -39 -190.5t-105.5 -156t-156 -105t-191.5 -38.5t-191 38.5t-156 105t-105.5 156t-38.5 190.5zM134 336q0 -87 33.5 -164.5t91 -135.5t135 -92t165.5 -34
t165.5 34t135.5 92t91.5 135.5t33.5 164.5q0 88 -33.5 166t-91.5 136t-135.5 92t-165.5 34t-165.5 -34t-135 -92t-91 -136t-33.5 -166zM462 252q22 -29 49.5 -46t56.5 -19q17 -1 29.5 3.5t21 12t12.5 16t4 16.5q0 18 -5.5 30t-17.5 21t-31 17t-47 18q-57 21 -91.5 60.5
t-33.5 95.5q1 34 17.5 59t42.5 41.5t58.5 24.5t65.5 7q42 -2 81 -16.5t70 -43.5l-52 -78q-21 18 -47 30t-58 12q-23 0 -40 -9t-17 -32q0 -12 2 -20.5t10.5 -16t25 -15t45.5 -17.5q144 -48 137 -162q-2 -38 -18.5 -66t-42 -46t-58.5 -27t-68 -7q-54 2 -95.5 21t-73.5 61z" />
    <glyph glyph-name="cid726" unicode="&#x24e3;" horiz-adv-x="1120" 
d="M68 336q0 102 38.5 191.5t105.5 156.5t156 105.5t191 38.5t191.5 -38.5t156 -105.5t105.5 -156.5t39 -191.5q0 -101 -39 -190.5t-105.5 -156t-156 -105t-191.5 -38.5t-191 38.5t-156 105t-105.5 156t-38.5 190.5zM134 336q0 -87 33.5 -164.5t91 -135.5t135 -92t165.5 -34
t165.5 34t135.5 92t91.5 135.5t33.5 164.5q0 88 -33.5 166t-91.5 136t-135.5 92t-165.5 34t-165.5 -34t-135 -92t-91 -136t-33.5 -166zM464 407h-87v91h87v130h119v-130h143v-91h-143v-226q0 -59 57 -59q12 0 30 4.5t39 13.5l23 -83q-29 -13 -55.5 -19t-48.5 -6
q-29 0 -58 6.5t-52.5 23.5t-38.5 46t-15 74v225z" />
    <glyph glyph-name="cid727" unicode="&#x24e4;" horiz-adv-x="1120" 
d="M68 336q0 102 38.5 191.5t105.5 156.5t156 105.5t191 38.5t191.5 -38.5t156 -105.5t105.5 -156.5t39 -191.5q0 -101 -39 -190.5t-105.5 -156t-156 -105t-191.5 -38.5t-191 38.5t-156 105t-105.5 156t-38.5 190.5zM134 336q0 -87 33.5 -164.5t91 -135.5t135 -92t165.5 -34
t165.5 34t135.5 92t91.5 135.5t33.5 164.5q0 88 -33.5 166t-91.5 136t-135.5 92t-165.5 34t-165.5 -34t-135 -92t-91 -136t-33.5 -166zM762 78h-91l-22 71q-33 -35 -69.5 -57t-84.5 -22q-27 0 -51 8.5t-43 26.5t-30 45t-11 64v323h118v-326q0 -23 12 -36.5t29 -13.5
q18 0 35.5 10.5t33.5 27t30 35t25 35.5v268h119v-459z" />
    <glyph glyph-name="cid728" unicode="&#x24e5;" horiz-adv-x="1120" 
d="M68 336q0 102 38.5 191.5t105.5 156.5t156 105.5t191 38.5t191.5 -38.5t156 -105.5t105.5 -156.5t39 -191.5q0 -101 -39 -190.5t-105.5 -156t-156 -105t-191.5 -38.5t-191 38.5t-156 105t-105.5 156t-38.5 190.5zM134 336q0 -87 33.5 -164.5t91 -135.5t135 -92t165.5 -34
t165.5 34t135.5 92t91.5 135.5t33.5 164.5q0 88 -33.5 166t-91.5 136t-135.5 92t-165.5 34t-165.5 -34t-135 -92t-91 -136t-33.5 -166zM499 82l-164 459h116l107 -323l106 323h115l-164 -459h-116z" />
    <glyph glyph-name="cid729" unicode="&#x24e6;" horiz-adv-x="1120" 
d="M68 336q0 102 38.5 191.5t105.5 156.5t156 105.5t191 38.5t191.5 -38.5t156 -105.5t105.5 -156.5t39 -191.5q0 -101 -39 -190.5t-105.5 -156t-156 -105t-191.5 -38.5t-191 38.5t-156 105t-105.5 156t-38.5 190.5zM134 336q0 -87 33.5 -164.5t91 -135.5t135 -92t165.5 -34
t165.5 34t135.5 92t91.5 135.5t33.5 164.5q0 88 -33.5 166t-91.5 136t-135.5 92t-165.5 34t-165.5 -34t-135 -92t-91 -136t-33.5 -166zM688 239l82 306h108l-139 -459h-104l-70 277l-72 -277h-105l-138 459h108l82 -306l81 306h86z" />
    <glyph glyph-name="cid730" unicode="&#x24e7;" horiz-adv-x="1120" 
d="M68 336q0 102 38.5 191.5t105.5 156.5t156 105.5t191 38.5t191.5 -38.5t156 -105.5t105.5 -156.5t39 -191.5q0 -101 -39 -190.5t-105.5 -156t-156 -105t-191.5 -38.5t-191 38.5t-156 105t-105.5 156t-38.5 190.5zM134 336q0 -87 33.5 -164.5t91 -135.5t135 -92t165.5 -34
t165.5 34t135.5 92t91.5 135.5t33.5 164.5q0 88 -33.5 166t-91.5 136t-135.5 92t-165.5 34t-165.5 -34t-135 -92t-91 -136t-33.5 -166zM661 91l-104 153l-103 -153h-124l163 238l-152 221h121l95 -138l94 138h121l-150 -221q39 -59 81 -119t81 -119h-123z" />
    <glyph glyph-name="cid731" unicode="&#x24e8;" horiz-adv-x="1120" 
d="M68 336q0 102 38.5 191.5t105.5 156.5t156 105.5t191 38.5t191.5 -38.5t156 -105.5t105.5 -156.5t39 -191.5q0 -101 -39 -190.5t-105.5 -156t-156 -105t-191.5 -38.5t-191 38.5t-156 105t-105.5 156t-38.5 190.5zM134 336q0 -87 33.5 -164.5t91 -135.5t135 -92t165.5 -34
t165.5 34t135.5 92t91.5 135.5t33.5 164.5q0 88 -33.5 166t-91.5 136t-135.5 92t-165.5 34t-165.5 -34t-135 -92t-91 -136t-33.5 -166zM518 191l-164 435h119l106 -299q25 73 52 149t53 150h118l-163 -435q-20 -50 -42 -83t-50 -55t-64 -37.5t-83 -31.5l-38 87q31 11 55 20
t42 20.5t31 26t22 37.5z" />
    <glyph glyph-name="cid732" unicode="&#x24e9;" horiz-adv-x="1120" 
d="M68 336q0 102 38.5 191.5t105.5 156.5t156 105.5t191 38.5t191.5 -38.5t156 -105.5t105.5 -156.5t39 -191.5q0 -101 -39 -190.5t-105.5 -156t-156 -105t-191.5 -38.5t-191 38.5t-156 105t-105.5 156t-38.5 190.5zM134 336q0 -87 33.5 -164.5t91 -135.5t135 -92t165.5 -34
t165.5 34t135.5 92t91.5 135.5t33.5 164.5q0 88 -33.5 166t-91.5 136t-135.5 92t-165.5 34t-165.5 -34t-135 -92t-91 -136t-33.5 -166zM381 478v91h362v-68l-228 -300h239v-91h-386v68l226 300h-213z" />
    <glyph glyph-name="cid519" unicode="&#x2500;" horiz-adv-x="1000" 
d="M0 380h1000v-40h-1000v40z" />
    <glyph glyph-name="cid530" unicode="&#x2501;" horiz-adv-x="1000" 
d="M0 420h1000v-120h-1000v120z" />
    <glyph glyph-name="cid520" unicode="&#x2502;" horiz-adv-x="1000" 
d="M480 860h40v-1000h-40v1000z" />
    <glyph glyph-name="cid531" unicode="&#x2503;" horiz-adv-x="1000" 
d="M440 860h120v-1000h-120v1000z" />
    <glyph glyph-name="cid521" unicode="&#x250c;" horiz-adv-x="1000" 
d="M520 340v-480h-40v520h520v-40h-480z" />
    <glyph glyph-name="cid558" unicode="&#x250d;" horiz-adv-x="1000" 
d="M520 300v-440h-40v560h520v-120h-480z" />
    <glyph glyph-name="cid557" unicode="&#x250e;" horiz-adv-x="1000" 
d="M560 340v-480h-120v520h560v-40h-440z" />
    <glyph glyph-name="cid532" unicode="&#x250f;" horiz-adv-x="1000" 
d="M560 300v-440h-120v560h560v-120h-440z" />
    <glyph glyph-name="cid522" unicode="&#x2510;" horiz-adv-x="1000" 
d="M480 -140v480h-480v40h520v-520h-40z" />
    <glyph glyph-name="cid552" unicode="&#x2511;" horiz-adv-x="1000" 
d="M480 -140v440h-480v120h520v-560h-40z" />
    <glyph glyph-name="cid551" unicode="&#x2512;" horiz-adv-x="1000" 
d="M440 -140v480h-440v40h560v-520h-120z" />
    <glyph glyph-name="cid533" unicode="&#x2513;" horiz-adv-x="1000" 
d="M440 -140v440h-440v120h560v-560h-120z" />
    <glyph glyph-name="cid524" unicode="&#x2514;" horiz-adv-x="1000" 
d="M480 340v520h40v-480h480v-40h-520z" />
    <glyph glyph-name="cid556" unicode="&#x2515;" horiz-adv-x="1000" 
d="M480 300v560h40v-440h480v-120h-520z" />
    <glyph glyph-name="cid555" unicode="&#x2516;" horiz-adv-x="1000" 
d="M440 860h120v-480h440v-40h-560v520z" />
    <glyph glyph-name="cid535" unicode="&#x2517;" horiz-adv-x="1000" 
d="M440 860h120v-440h440v-120h-560v560z" />
    <glyph glyph-name="cid523" unicode="&#x2518;" horiz-adv-x="1000" 
d="M0 340v40h480v480h40v-520h-520z" />
    <glyph glyph-name="cid554" unicode="&#x2519;" horiz-adv-x="1000" 
d="M0 300v120h480v440h40v-560h-520z" />
    <glyph glyph-name="cid553" unicode="&#x251a;" horiz-adv-x="1000" 
d="M0 380h440v480h120v-520h-560v40z" />
    <glyph glyph-name="cid534" unicode="&#x251b;" horiz-adv-x="1000" 
d="M0 420h440v440h120v-560h-560v120z" />
    <glyph glyph-name="cid525" unicode="&#x251c;" horiz-adv-x="1000" 
d="M520 340v-480h-40v1000h40v-480h480v-40h-480z" />
    <glyph glyph-name="cid546" unicode="&#x251d;" horiz-adv-x="1000" 
d="M520 300v-440h-40v1000h40v-440h480v-120h-480z" />
    <glyph glyph-name="cid559" unicode="&#x251e;" horiz-adv-x="1000" 
d="M520 340v-480h-40v480h-40v520h120v-480h440v-40h-480z" />
    <glyph glyph-name="cid560" unicode="&#x251f;" horiz-adv-x="1000" 
d="M560 340v-480h-120v520h40v480h40v-480h480v-40h-440z" />
    <glyph glyph-name="cid541" unicode="&#x2520;" horiz-adv-x="1000" 
d="M560 340v-480h-120v1000h120v-480h440v-40h-440z" />
    <glyph glyph-name="cid561" unicode="&#x2521;" horiz-adv-x="1000" 
d="M520 300v-440h-40v440h-40v560h120v-440h440v-120h-480z" />
    <glyph glyph-name="cid562" unicode="&#x2522;" horiz-adv-x="1000" 
d="M560 300v-440h-120v560h40v440h40v-440h480v-120h-440z" />
    <glyph glyph-name="cid536" unicode="&#x2523;" horiz-adv-x="1000" 
d="M560 300v-440h-120v1000h120v-440h440v-120h-440z" />
    <glyph glyph-name="cid527" unicode="&#x2524;" horiz-adv-x="1000" 
d="M480 -140v480h-480v40h480v480h40v-1000h-40z" />
    <glyph glyph-name="cid548" unicode="&#x2525;" horiz-adv-x="1000" 
d="M480 -140v440h-480v120h480v440h40v-1000h-40z" />
    <glyph glyph-name="cid563" unicode="&#x2526;" horiz-adv-x="1000" 
d="M520 340v-480h-40v480h-480v40h440v480h120v-520h-40z" />
    <glyph glyph-name="cid564" unicode="&#x2527;" horiz-adv-x="1000" 
d="M440 -140v480h-440v40h480v480h40v-480h40v-520h-120z" />
    <glyph glyph-name="cid543" unicode="&#x2528;" horiz-adv-x="1000" 
d="M440 -140v480h-440v40h440v480h120v-1000h-120z" />
    <glyph glyph-name="cid565" unicode="&#x2529;" horiz-adv-x="1000" 
d="M520 300v-440h-40v440h-480v120h440v440h120v-560h-40z" />
    <glyph glyph-name="cid566" unicode="&#x252a;" horiz-adv-x="1000" 
d="M440 -140v440h-440v120h480v440h40v-440h40v-560h-120z" />
    <glyph glyph-name="cid538" unicode="&#x252b;" horiz-adv-x="1000" 
d="M440 -140v440h-440v120h440v440h120v-1000h-120z" />
    <glyph glyph-name="cid526" unicode="&#x252c;" horiz-adv-x="1000" 
d="M520 340v-480h-40v480h-480v40h1000v-40h-480z" />
    <glyph glyph-name="cid567" unicode="&#x252d;" horiz-adv-x="1000" 
d="M480 -140v440h-480v120h520v-40h480v-40h-480v-480h-40z" />
    <glyph glyph-name="cid568" unicode="&#x252e;" horiz-adv-x="1000" 
d="M520 300v-440h-40v480h-480v40h480v40h520v-120h-480z" />
    <glyph glyph-name="cid542" unicode="&#x252f;" horiz-adv-x="1000" 
d="M520 300v-440h-40v440h-480v120h1000v-120h-480z" />
    <glyph glyph-name="cid547" unicode="&#x2530;" horiz-adv-x="1000" 
d="M560 340v-480h-120v480h-440v40h1000v-40h-440z" />
    <glyph glyph-name="cid569" unicode="&#x2531;" horiz-adv-x="1000" 
d="M560 340v-480h-120v440h-440v120h560v-40h440v-40h-440z" />
    <glyph glyph-name="cid570" unicode="&#x2532;" horiz-adv-x="1000" 
d="M560 300v-440h-120v480h-440v40h440v40h560v-120h-440z" />
    <glyph glyph-name="cid537" unicode="&#x2533;" horiz-adv-x="1000" 
d="M560 300v-440h-120v440h-440v120h1000v-120h-440z" />
    <glyph glyph-name="cid528" unicode="&#x2534;" horiz-adv-x="1000" 
d="M0 340v40h480v480h40v-480h480v-40h-1000z" />
    <glyph glyph-name="cid571" unicode="&#x2535;" horiz-adv-x="1000" 
d="M520 340v-40h-520v120h480v440h40v-480h480v-40h-480z" />
    <glyph glyph-name="cid572" unicode="&#x2536;" horiz-adv-x="1000" 
d="M480 300v40h-480v40h480v480h40v-440h480v-120h-520z" />
    <glyph glyph-name="cid544" unicode="&#x2537;" horiz-adv-x="1000" 
d="M0 300v120h480v440h40v-440h480v-120h-1000z" />
    <glyph glyph-name="cid549" unicode="&#x2538;" horiz-adv-x="1000" 
d="M0 340v40h440v480h120v-480h440v-40h-1000z" />
    <glyph glyph-name="cid573" unicode="&#x2539;" horiz-adv-x="1000" 
d="M0 420h440v440h120v-480h440v-40h-440v-40h-560v120z" />
    <glyph glyph-name="cid574" unicode="&#x253a;" horiz-adv-x="1000" 
d="M440 340h-440v40h440v480h120v-440h440v-120h-560v40z" />
    <glyph glyph-name="cid539" unicode="&#x253b;" horiz-adv-x="1000" 
d="M0 300v120h440v440h120v-440h440v-120h-1000z" />
    <glyph glyph-name="cid529" unicode="&#x253c;" horiz-adv-x="1000" 
d="M520 340v-480h-40v480h-480v40h480v480h40v-480h480v-40h-480z" />
    <glyph glyph-name="cid575" unicode="&#x253d;" horiz-adv-x="1000" 
d="M520 340v-480h-40v440h-480v120h480v440h40v-480h480v-40h-480z" />
    <glyph glyph-name="cid576" unicode="&#x253e;" horiz-adv-x="1000" 
d="M520 300v-440h-40v480h-480v40h480v480h40v-440h480v-120h-480z" />
    <glyph glyph-name="cid545" unicode="&#x253f;" horiz-adv-x="1000" 
d="M520 300v-440h-40v440h-480v120h480v440h40v-440h480v-120h-480z" />
    <glyph glyph-name="cid577" unicode="&#x2540;" horiz-adv-x="1000" 
d="M520 340v-480h-40v480h-480v40h440v480h120v-480h440v-40h-480z" />
    <glyph glyph-name="cid578" unicode="&#x2541;" horiz-adv-x="1000" 
d="M560 340v-480h-120v480h-440v40h480v480h40v-480h480v-40h-440z" />
    <glyph glyph-name="cid550" unicode="&#x2542;" horiz-adv-x="1000" 
d="M560 340v-480h-120v480h-440v40h440v480h120v-480h440v-40h-440z" />
    <glyph glyph-name="cid579" unicode="&#x2543;" horiz-adv-x="1000" 
d="M520 300v-440h-40v440h-480v120h440v440h120v-480h440v-40h-440v-40h-40z" />
    <glyph glyph-name="cid580" unicode="&#x2544;" horiz-adv-x="1000" 
d="M520 300v-440h-40v440h-40v40h-440v40h440v480h120v-440h440v-120h-480z" />
    <glyph glyph-name="cid581" unicode="&#x2545;" horiz-adv-x="1000" 
d="M440 -140v440h-440v120h480v440h40v-440h40v-40h440v-40h-440v-480h-120z" />
    <glyph glyph-name="cid582" unicode="&#x2546;" horiz-adv-x="1000" 
d="M560 300v-440h-120v480h-440v40h440v40h40v440h40v-440h480v-120h-440z" />
    <glyph glyph-name="cid583" unicode="&#x2547;" horiz-adv-x="1000" 
d="M520 300v-440h-40v440h-480v120h440v440h120v-440h440v-120h-480z" />
    <glyph glyph-name="cid584" unicode="&#x2548;" horiz-adv-x="1000" 
d="M560 300v-440h-120v440h-440v120h480v440h40v-440h480v-120h-440z" />
    <glyph glyph-name="cid585" unicode="&#x2549;" horiz-adv-x="1000" 
d="M560 340v-480h-120v440h-440v120h440v440h120v-480h440v-40h-440z" />
    <glyph glyph-name="cid586" unicode="&#x254a;" horiz-adv-x="1000" 
d="M560 300v-440h-120v480h-440v40h440v480h120v-440h440v-120h-440z" />
    <glyph glyph-name="cid540" unicode="&#x254b;" horiz-adv-x="1000" 
d="M560 300v-440h-120v440h-440v120h440v440h120v-440h440v-120h-440z" />
    <glyph glyph-name="cid232" unicode="&#x2592;" horiz-adv-x="977" 
d="M97 709h-97v97h97v-97zM293 709h-96v97h96v-97zM489 709h-98v97h98v-97zM686 709h-98v97h98v-97zM881 709h-98v97h98v-97zM196 610h-98v99h98v-99zM390 610h-96v99h96v-99zM587 610h-97v99h97v-99zM782 610h-95v99h95v-99zM979 610h-97v99h97v-99zM97 514h-97v96h97v-96z
M293 514h-96v96h96v-96zM489 514h-98v96h98v-96zM686 514h-98v96h98v-96zM881 514h-98v96h98v-96zM196 416h-98v98h98v-98zM390 416h-96v98h96v-98zM587 416h-97v98h97v-98zM782 416h-95v98h95v-98zM979 416h-97v98h97v-98zM97 317h-97v99h97v-99zM293 317h-96v99h96v-99z
M489 317h-98v99h98v-99zM686 317h-98v99h98v-99zM881 317h-98v99h98v-99zM196 219h-98v98h98v-98zM390 219h-96v98h96v-98zM587 219h-97v98h97v-98zM782 219h-95v98h95v-98zM979 219h-97v98h97v-98zM97 121h-97v98h97v-98zM293 121h-96v98h96v-98zM489 121h-98v98h98v-98z
M686 121h-98v98h98v-98zM881 121h-98v98h98v-98zM196 26h-98v95h98v-95zM390 26h-96v95h96v-95zM587 26h-97v95h97v-95zM782 26h-95v95h95v-95zM979 26h-97v95h97v-95zM97 -74h-97v100h97v-100zM293 -74h-96v100h96v-100zM489 -74h-98v100h98v-100zM686 -74h-98v100h98v-100
zM881 -74h-98v100h98v-100zM196 -171h-98v97h98v-97zM390 -171h-96v97h96v-97zM587 -171h-97v97h97v-97zM782 -171h-95v97h95v-97zM979 -171h-97v97h97v-97z" />
    <glyph glyph-name="cid165" unicode="&#x25a0;" horiz-adv-x="980" 
d="M89 -85v801h798v-801h-798z" />
    <glyph glyph-name="cid164" unicode="&#x25a1;" horiz-adv-x="980" 
d="M87 -86v804h802v-804h-802zM808 636h-638v-641h638v641z" />
    <glyph glyph-name="cid229" unicode="&#x25a3;" horiz-adv-x="980" 
d="M87 -86v804h802v-804h-802zM808 636h-638v-641h638v641zM275 100v428h424v-428h-424z" />
    <glyph glyph-name="cid233" unicode="&#x25a4;" horiz-adv-x="980" 
d="M889 718v-802h-802v802h802zM164 535h646v108h-646v-108zM164 353h646v108h-646v-108zM164 174h646v109h-646v-109zM164 -6h646v106h-646v-106z" />
    <glyph glyph-name="cid234" unicode="&#x25a5;" horiz-adv-x="980" 
d="M87 718h802v-802h-802v802zM270 -7v647h-106v-647h106zM450 -7v647h-108v-647h108zM630 -7v647h-108v-647h108zM809 -7v647h-105v-647h105z" />
    <glyph glyph-name="cid237" unicode="&#x25a6;" horiz-adv-x="980" 
d="M889 718v-802h-802v802h802zM162 535h107v105h-107v-105zM450 640h-108v-105h108v105zM630 640h-108v-105h108v105zM808 640h-104v-105h104v105zM162 353h107v108h-107v-108zM342 353h108v108h-108v-108zM522 353h108v108h-108v-108zM704 353h104v108h-104v-108zM162 174
h107v109h-107v-109zM342 174h108v109h-108v-109zM522 174h108v109h-108v-109zM704 174h104v109h-104v-109zM162 -6h107v106h-107v-106zM342 -6h108v106h-108v-106zM522 -6h108v106h-108v-106zM704 -6h104v106h-104v-106z" />
    <glyph glyph-name="cid236" unicode="&#x25a7;" horiz-adv-x="980" 
d="M889 718v-802h-802v802h802zM811 42v175l-422 427h-171zM811 326v165l-146 153h-166zM811 594v50h-48zM165 419l427 -428h165l-592 598v-170zM165 144l150 -153h167l-317 317v-164zM165 -9h50l-50 50v-50z" />
    <glyph glyph-name="cid235" unicode="&#x25a8;" horiz-adv-x="980" 
d="M889 718v-802h-802v802h802zM477 644h-165l-148 -153v-165zM760 644h-173l-423 -427v-175zM214 644h-50v-50zM810 589l-591 -598h165l426 428v170zM810 308l-316 -317h168l148 153v164zM810 41l-48 -50h48v50z" />
    <glyph glyph-name="cid238" unicode="&#x25a9;" horiz-adv-x="980" 
d="M889 718v-802h-802v802h802zM213 647l5 6h-12zM306 653l-50 -51l92 -90l88 90l-51 51h-79zM586 653l-50 -51l93 -93l89 88l-52 56h-80zM764 645l7 8h-13zM163 597l-6 10v-18zM820 604l-8 -8l8 -6v14zM157 416l46 -50l94 96l-89 89l-51 -54v-81zM396 461l93 -92l90 89
l-93 93zM820 495l-53 53l-89 -89l91 -90l51 50v76zM348 223l94 95l-94 94l-93 -94zM629 226l90 92l-90 90l-89 -90zM157 139l52 -54l87 89l-93 94l-46 -49v-80zM486 85l94 92l-91 91l-93 -94zM820 215l-51 51l-90 -90l88 -89l53 53v75zM665 -17l52 54l-88 88l-93 -93l50 -49
h79zM385 -17l51 51l-88 89l-92 -91l50 -49h79zM164 39l-7 6v-16zM820 45l-8 -6l8 -8v14zM760 -17h10l-5 6zM213 -12l-5 -5h10z" />
    <glyph glyph-name="cid167" unicode="&#x25b2;" horiz-adv-x="980" 
d="M875 -7h-801l401 714z" />
    <glyph glyph-name="cid166" unicode="&#x25b3;" horiz-adv-x="980" 
d="M875 -7h-801l401 714zM731 73l-256 471l-257 -471h513z" />
    <glyph glyph-name="cid220" unicode="&#x25b6;" horiz-adv-x="980" 
d="M160 -71v787l705 -394z" />
    <glyph glyph-name="cid219" unicode="&#x25b7;" horiz-adv-x="980" 
d="M160 -71v787l705 -394zM243 64l466 258l-466 259v-517z" />
    <glyph glyph-name="cid169" unicode="&#x25bc;" horiz-adv-x="980" 
d="M475 -73l-401 714h801z" />
    <glyph glyph-name="cid168" unicode="&#x25bd;" horiz-adv-x="980" 
d="M475 -73l-401 714h801zM218 561l257 -471l256 471h-513z" />
    <glyph glyph-name="cid218" unicode="&#x25c0;" horiz-adv-x="980" 
d="M112 322l706 394v-787z" />
    <glyph glyph-name="cid217" unicode="&#x25c1;" horiz-adv-x="980" 
d="M112 322l706 394v-787zM734 581l-465 -259l465 -258v517z" />
    <glyph glyph-name="cid163" unicode="&#x25c6;" horiz-adv-x="980" 
d="M473 -148l-467 473l467 469l470 -469z" />
    <glyph glyph-name="cid162" unicode="&#x25c7;" horiz-adv-x="980" 
d="M473 -148l-467 473l467 469l470 -469zM473 665l-339 -340l339 -343l342 343z" />
    <glyph glyph-name="cid228" unicode="&#x25c8;" horiz-adv-x="980" 
d="M474 -149l-470 474l469 475l472 -474zM473 673l-337 -344l338 -345l337 345zM474 116l-213 213l213 213l214 -213z" />
    <glyph glyph-name="cid227" unicode="&#x25c9;" horiz-adv-x="980" 
d="M486 -144q-64 0 -124 16t-112 46t-95 72t-73.5 93t-47.5 110.5t-17 124.5q0 97 37 184t100.5 153t149 104.5t182.5 38.5t183 -38.5t150.5 -104.5t102 -153t37.5 -184t-37.5 -181.5t-102 -146.5t-150.5 -98t-183 -36zM486 728q-81 0 -153.5 -33.5t-126.5 -90.5
t-85.5 -131.5t-31.5 -155.5t31.5 -152.5t85.5 -124t126.5 -83t153.5 -30.5q83 0 155.5 30.5t126.5 83t85.5 124t31.5 152.5t-31.5 155.5t-85.5 131.5t-126.5 90.5t-155.5 33.5zM397 339q0 37 24.5 62.5t61.5 25.5q18 0 33.5 -6.5t27.5 -18.5t19 -28t7 -35q0 -17 -7 -33
t-19 -28t-27.5 -19t-33.5 -7q-37 0 -61.5 26t-24.5 61z" />
    <glyph glyph-name="cid159" unicode="&#x25cb;" horiz-adv-x="980" 
d="M885 316q0 -82 -31.5 -154.5t-85.5 -127t-126 -86t-154 -31.5q-81 0 -153.5 31.5t-126.5 86t-86 127t-32 154.5q0 81 32 153.5t86 127t126.5 86t153.5 31.5q82 0 154 -31.5t126 -86t85.5 -127t31.5 -153.5zM175 316q0 -65 24.5 -123t67.5 -101.5t99.5 -68.5t121.5 -25
q66 0 123.5 25t100 68.5t67.5 101.5t25 123t-25 123t-67.5 101t-100 68t-123.5 25q-65 0 -121.5 -25t-99.5 -68t-67.5 -101t-24.5 -123z" />
    <glyph glyph-name="cid161" unicode="&#x25ce;" horiz-adv-x="980" 
d="M893 316q0 -83 -32 -157t-86.5 -129.5t-128.5 -88t-158 -32.5q-83 0 -156.5 32.5t-129 88t-87.5 129.5t-32 157t32 156.5t87.5 129t129 88t156.5 32.5q84 0 158 -32.5t128.5 -88t86.5 -129t32 -156.5zM168 316q0 -67 25.5 -126t69 -103.5t101.5 -70t124 -25.5
q67 0 126 25.5t102.5 70t68.5 103.5t25 126t-25 126t-68.5 103t-102.5 69.5t-126 25.5q-66 0 -124 -25.5t-101.5 -69.5t-69 -103t-25.5 -126zM744 316q0 -53 -20.5 -99.5t-55 -81t-81.5 -55t-99 -20.5t-98.5 20.5t-81 55t-55 81t-20.5 99.5t20.5 99.5t55 81t81 54.5t98.5 20
t99 -20t81.5 -54.5t55 -81t20.5 -99.5zM313 316q0 -36 14 -68.5t38 -57t55.5 -39t67.5 -14.5q37 0 69.5 14.5t56.5 39t38 57t14 68.5t-14 68.5t-38 57t-56.5 39t-69.5 14.5q-36 0 -67.5 -14.5t-55.5 -39t-38 -57t-14 -68.5z" />
    <glyph glyph-name="cid160" unicode="&#x25cf;" horiz-adv-x="980" 
d="M885 316q0 -82 -31.5 -154.5t-85.5 -127t-126 -86t-154 -31.5q-81 0 -153.5 31.5t-126.5 86t-86 127t-32 154.5q0 81 32 153.5t86 127t126.5 86t153.5 31.5q82 0 154 -31.5t126 -86t85.5 -127t31.5 -153.5z" />
    <glyph glyph-name="cid230" unicode="&#x25d0;" horiz-adv-x="980" 
d="M885 316q0 -82 -31.5 -154.5t-85.5 -127t-126 -86t-154 -31.5q-81 0 -153.5 31.5t-126.5 86t-86 127t-32 154.5q0 81 32 153.5t86 127t126.5 86t153.5 31.5q82 0 154 -31.5t126 -86t85.5 -127t31.5 -153.5zM503 -2q62 2 117 28t96 69.5t64.5 100.5t23.5 120
q0 62 -23.5 118.5t-64.5 99.5t-96 69.5t-117 29.5v-635z" />
    <glyph glyph-name="cid231" unicode="&#x25d1;" horiz-adv-x="980" 
d="M90 316q0 81 31.5 153.5t85.5 127t126.5 86t153.5 31.5t153.5 -31.5t127 -86t86 -127t31.5 -153.5q0 -82 -31.5 -154.5t-86 -127t-127 -86t-153.5 -31.5t-153.5 31.5t-126.5 86t-85.5 127t-31.5 154.5zM474 633q-63 -3 -118 -29t-96 -69.5t-64.5 -99.5t-23.5 -119
t24 -119.5t65 -99.5t96 -69.5t117 -29.5v635z" />
    <glyph glyph-name="cid158" unicode="&#x2605;" horiz-adv-x="980" 
d="M926 454l-271 -202l114 -326l-285 210l-274 -203l103 323l-263 198h332l102 313l108 -313h334z" />
    <glyph glyph-name="cid157" unicode="&#x2606;" horiz-adv-x="980" 
d="M926 444l-271 -201l114 -327l-285 211l-274 -203l103 323l-263 197h332l102 314l108 -314h334zM701 371h-172l-43 144l-43 -144h-171l136 -101l-56 -150l131 99l136 -104l-56 154z" />
    <glyph glyph-name="cid241" unicode="&#x260e;" horiz-adv-x="980" 
d="M488 664q107 0 187 -18.5t135 -53.5q46 -31 69.5 -72t28.5 -90q3 -40 -14.5 -65t-48.5 -20q-76 11 -120 32q-57 31 -55 64q0 10 3.5 18.5t6.5 18.5q3 8 5.5 15.5t0.5 12.5q-2 11 -9.5 17t-17.5 8v-38q-4 -64 26 -117q11 -20 26.5 -37.5t32.5 -34.5q19 -23 35.5 -45
t27.5 -51q6 -15 12.5 -36.5t12 -43.5t9.5 -41.5t5 -31.5q2 -20 -8 -36.5t-32 -16.5h-636q-22 0 -32 16t-8 36q1 11 5 30.5t9.5 41.5t12 44t13.5 38q11 29 30.5 53.5t39.5 47.5q15 17 28 32.5t24 35.5t18 44.5t7 66.5q0 11 0.5 20.5t-1.5 23.5q-9 -2 -16 -8.5t-9 -17.5
q-2 -7 0.5 -14t4.5 -15q2 -9 6 -17t4 -19q1 -37 -55 -64q-21 -10 -51.5 -18.5t-65.5 -13.5q-34 -5 -51.5 20t-15.5 65q5 49 29 90t70 72q106 72 322 72zM568 546q-22 -2 -43.5 -4t-38.5 -2q-49 0 -92 10v-63q0 -21 14 -26.5t28 -5.5h86q16 0 31 5t15 28v58zM635 244
q0 34 -13 61t-34.5 46t-49.5 29t-58 10q-32 0 -60 -10.5t-49 -30t-33 -46t-12 -59.5q0 -34 13 -61t34.5 -46t49.5 -29t57 -10q32 0 60 10.5t49 29.5t33.5 46t12.5 60z" />
    <glyph glyph-name="cid240" unicode="&#x260f;" horiz-adv-x="980" 
d="M488 664q107 0 187 -18.5t135 -53.5q46 -31 69.5 -72t28.5 -90q3 -40 -14.5 -65t-48.5 -20q-76 11 -120 32q-57 31 -55 64q0 10 3.5 18.5t6.5 18.5q3 8 5.5 15.5t0.5 12.5q-2 11 -9.5 17t-17.5 8v-38q-4 -64 26 -117q11 -20 26.5 -37.5t32.5 -34.5q19 -23 35.5 -45
t27.5 -51q6 -15 12.5 -36.5t12 -43.5t9.5 -41.5t5 -31.5q2 -20 -8 -36.5t-32 -16.5h-636q-22 0 -32 16t-8 36q1 11 5 30.5t9.5 41.5t12 44t13.5 38q11 29 30.5 53.5t39.5 47.5q15 17 28 32.5t24 35.5t18 44.5t7 66.5q0 11 0.5 20.5t-1.5 23.5q-9 -2 -16 -8.5t-9 -17.5
q-2 -7 0.5 -14t4.5 -15q2 -9 6 -17t4 -19q1 -37 -55 -64q-21 -10 -51.5 -18.5t-65.5 -13.5q-34 -5 -51.5 20t-15.5 65q5 49 29 90t70 72q106 72 322 72zM489 611q-63 0 -122.5 -8.5t-108.5 -28.5q-55 -22 -90 -54t-45 -91q-3 -27 14 -26q31 2 54 11.5t40 17.5q8 3 14 6.5
t7 7.5q-4 8 -9 23t-7 26q-2 13 5 28t21 28.5t34.5 22.5t44.5 10q17 1 22 -7t7 -20q0 -4 0.5 -13.5t1 -23t1 -29.5t0.5 -32q0 -60 -34 -115q-14 -20 -26.5 -34.5t-26.5 -29.5q-17 -17 -31 -34t-25 -37q-5 -11 -10 -27.5t-10 -35.5t-9 -38.5t-7 -34.5q-1 -4 -0.5 -7.5
t5.5 -3.5h578q5 0 5.5 2.5t0.5 5.5q-2 13 -6 32.5t-9 39.5t-10.5 38t-10.5 29q-12 19 -28 36.5t-30 34.5q-14 15 -26 29.5t-26 34.5q-19 29 -26.5 57.5t-7.5 57.5q0 32 1 60t3 39t8 19.5t22 7.5q26 -1 45.5 -10.5t33 -23t19.5 -28.5t5 -28q-4 -19 -16 -48q4 -4 12 -9.5
t16 -8.5l37.5 -15t51.5 -11q5 -1 9 5t2 20q-4 31 -15 53.5t-28.5 39t-40.5 29.5t-50 24q-47 20 -106.5 28.5t-122.5 8.5zM593 494q0 -17 -6 -27.5t-15 -15.5t-20.5 -6.5t-21.5 -1.5h-87q-11 0 -21.5 2t-18.5 7.5t-13.5 15.5t-5.5 26v86q35 -8 61 -10.5t48 -2.5
q17 0 41.5 0.5t58.5 5.5v-79zM542 522q-28 0 -55 -0.5t-58 2.5v-19q0 -16 12 -16h91q8 0 9 3t1 8v22zM659 236q0 -36 -14 -66.5t-37.5 -52t-55 -34t-66.5 -12.5q-33 0 -64 11.5t-54.5 33t-38 52t-14.5 68.5q0 36 13 66.5t36.5 52.5t54.5 34t67 12q34 0 65 -11.5t55 -33
t38.5 -52t14.5 -68.5zM606 236q0 51 -34 83t-86 32q-24 0 -46 -8t-38.5 -23t-26 -36t-9.5 -48q0 -26 9.5 -47t25.5 -36t38 -23t46 -8t46 8t38.5 23t26.5 36t10 47z" />
    <glyph glyph-name="cid242" unicode="&#x261c;" horiz-adv-x="980" 
d="M174 369q-20 0 -47 0.5t-51 7t-40 22.5t-13 47q3 22 21.5 34t42 18t46.5 7.5t34 1.5q40 0 79 1t77 2q15 0 32.5 0.5l35 1t34.5 0.5h30q81 0 153 -6q37 -3 75 -19t78 -49q3 -2 11 -4t28 -2v40h131v-344h-132v38h-9q-27 -21 -64.5 -35.5t-79 -23.5t-84.5 -12.5t-82 -3.5
q-35 0 -61 2t-49 5q-17 3 -29.5 12.5t-20 22t-9.5 27.5t3 28q-25 11 -32 32.5t5 44.5q-27 12 -28 49q-1 18 4.5 28t16.5 21q-18 1 -34 1t-33 2q-11 1 -21 1t-18 2zM522 464q-12 0 -23 -1l-22 -2q-17 -8 -28.5 -15.5t-20 -16t-15.5 -19t-16 -25.5q20 -2 31 5.5t19 15.5
q15 21 35 21q6 0 9.5 -8.5t3.5 -16.5q17 -2 27.5 0t27.5 13q14 9 22.5 5.5t9.5 -14.5q1 -19 -10 -42q8 -10 29 -20.5t35 -16.5q14 -2 25.5 -4t23.5 -6q23 -5 38 -10t15 -19q0 -11 -10 -15t-27 -4q-11 0 -23.5 1.5t-23.5 4t-20 4.5t-13 3q-26 8 -52.5 28.5t-43.5 48.5
q-2 -2 -6.5 -2t-10.5 -2q5 -4 10 -15q5 -14 3 -28t-6 -25q8 -5 15 -13.5t9 -22.5q2 -8 0.5 -18t-4.5 -17q11 -8 18 -19t7 -25q0 -6 -1 -13l-2 -14q66 6 125.5 23t95.5 52h22v158q-29 -2 -49 8t-40 27q-41 33 -91 42t-98 9zM237 419q34 -4 64 -5.5t64 -1.5q9 28 33 49
l-230 -2q-46 -3 -70 -5t-24 -13q-2 -9 17.5 -12t76.5 -5q9 -1 17.5 -1t16.5 -2q10 0 18.5 -1t16.5 -1zM864 421h-19v-240h19v240zM453 331q-17 3 -36.5 5.5t-39.5 2.5q-22 0 -39.5 -2.5t-25.5 -13.5q-5 -5 0.5 -9t14.5 -5q11 -3 35 -4t49 -1q20 0 35.5 2t23.5 5q5 3 1 10
t-18 10zM490 243q2 6 -9.5 8t-20.5 2h-112q-9 0 -10.5 -9t7.5 -13q11 -5 30.5 -5.5t42.5 0.5h32q9 0 22.5 3t17.5 14zM511 171q0 2 -14.5 3.5t-58.5 0.5l-72 -1q-8 0 -7.5 -7.5t9.5 -12.5q8 -3 26 -6t37 -4q15 0 29.5 0.5t26 3t18 8t6.5 15.5z" />
    <glyph glyph-name="cid243" unicode="&#x261e;" horiz-adv-x="980" 
d="M800 369q-9 -2 -18.5 -2t-20.5 -1q-17 -2 -33.5 -2t-34.5 -1q11 -11 16.5 -21t4.5 -28q-2 -38 -27 -49q12 -23 5 -44.5t-33 -32.5q5 -13 3.5 -28t-9 -27.5t-20.5 -22t-30 -12.5q-22 -3 -48 -5t-61 -2q-39 0 -82.5 3.5t-85.5 12t-79 23t-64 36.5h-8v-38h-132v344h131v-40
q19 0 27.5 2t11.5 4q40 33 77.5 49t75.5 19q70 6 153 6h30t34.5 -0.5l35 -1t32.5 -0.5q38 -1 76.5 -2t79.5 -1q11 0 34 -1.5t46.5 -7.5t42 -18t21.5 -34q3 -31 -13 -47t-40 -22.5t-51 -7t-47 -0.5zM451 464q-48 0 -98 -9.5t-90 -41.5q-20 -17 -40 -27t-49 -8v-158h22
q36 -35 94.5 -51t126.5 -24l-2 14t-1 13q0 14 7 25t18 19q-3 7 -5 17t1 18q2 14 9 22.5t15 13.5q-4 11 -6.5 25t3.5 28q4 10 9 15q-5 2 -10 2t-7 2q-16 -28 -43 -48.5t-53 -28.5q-4 -1 -13 -3t-20 -4.5t-23.5 -4t-22.5 -1.5q-17 0 -27 4t-10 15q0 14 14.5 19t38.5 10
q12 4 23 6t25 4q14 6 34 17.5t31 19.5q-12 22 -11 42q1 11 10 14.5t23 -5.5q17 -11 27.5 -13t27.5 0q0 8 3.5 16.5t9.5 8.5q20 0 34 -21q8 -8 19.5 -15.5t31.5 -5.5q-9 15 -16 25.5t-15.5 19t-20 16t-28.5 15.5q-11 1 -22.5 2t-23.5 1zM736 419q9 0 17.5 1t17.5 1q9 2 17 2
t18 1q57 2 76.5 5t17.5 12q0 11 -24.5 13t-69.5 5l-230 2q12 -11 20 -23t13 -26q34 0 64 1.5t63 5.5zM109 181h19v240h-19v-240zM521 331q-14 -3 -18.5 -10t0.5 -10q19 -7 59 -7q26 0 50 1t35 4q8 1 14 5t1 9q-8 11 -25.5 13.5t-39.5 2.5q-20 0 -39.5 -2.5t-36.5 -5.5z
M484 243q1 -6 6 -9t11.5 -5t12.5 -2.5t9 -0.5h33q23 -1 42.5 -0.5t30.5 5.5q8 4 6.5 13t-9.5 9h-112q-9 0 -20.5 -2t-9.5 -8zM463 171q0 -10 6.5 -15.5t18 -8t25.5 -3t29 -0.5q20 1 38 4t26 6q8 5 9 12.5t-7 7.5l-72 1q-44 1 -58.5 -0.5t-14.5 -3.5z" />
    <glyph glyph-name="cid147" unicode="&#x2640;" horiz-adv-x="980" 
d="M772 469q0 -47 -16.5 -92t-47 -81.5t-73.5 -62t-95 -34.5v-72h174v-87h-174v-145h-98v145h-183v87h183v72q-53 7 -96.5 30t-75.5 58.5t-49.5 81.5t-17.5 100q0 59 22.5 109t61 86t90 56t110.5 20q60 0 112.5 -21t90.5 -57.5t60 -86t22 -106.5zM673 462q0 39 -13.5 72.5
t-38 59t-58.5 40t-76 14.5q-37 0 -70.5 -12t-59.5 -35.5t-41.5 -58.5t-15.5 -80q0 -36 14.5 -67.5t39.5 -55t59 -37.5t74 -14q39 0 73 13.5t59 37t39.5 55t14.5 68.5z" />
    <glyph glyph-name="cid146" unicode="&#x2642;" horiz-adv-x="980" 
d="M681 230q0 -53 -20.5 -102t-57.5 -87.5t-89.5 -61.5t-116.5 -23q-61 0 -112.5 21t-89.5 58t-59.5 87t-21.5 108q0 60 22 110t60 86t89.5 56.5t111.5 20.5q94 0 167 -50l127 129l-105 12l10 89l242 -23l24 -237l-96 -17l-9 110l-126 -130q50 -70 50 -156zM582 226
q0 37 -13.5 70.5t-38 59t-58.5 40.5t-75 15q-37 0 -71 -12.5t-59.5 -36t-41 -58t-15.5 -78.5q0 -36 14.5 -68t39.5 -56t59 -38.5t74 -14.5q39 0 73 13.5t58.5 37.5t39 56.5t14.5 69.5z" />
    <glyph glyph-name="cid222" unicode="&#x2660;" horiz-adv-x="980" 
d="M344 -128v42q20 37 31.5 73.5t16.5 74.5q-26 -14 -53 -23.5t-56 -9.5q-37 0 -66 16t-49.5 42t-31 60t-10.5 70q0 47 13.5 89t36 81.5t52.5 76.5t64 74q51 55 102 118t94 135q47 -79 96 -138.5t100 -114.5q35 -38 65 -74.5t52.5 -75.5t35 -81t12.5 -90q0 -36 -10.5 -70
t-30.5 -60t-49 -42t-66 -16q-26 0 -54 9.5t-56 23.5q6 -38 17.5 -74.5t32.5 -73.5v-42h-289z" />
    <glyph glyph-name="cid223" unicode="&#x2661;" horiz-adv-x="980" 
d="M854 514q0 -52 -19.5 -108t-51 -111.5t-71.5 -110t-81 -102t-79 -87.5t-66 -68q-37 38 -78 83t-81.5 94.5t-77.5 102t-65 106t-45 106t-17 102.5q0 47 14.5 84t41 62.5t63 38.5t80.5 13q27 0 51.5 -8.5t45.5 -22t38.5 -30t29.5 -32.5q31 39 69.5 66t96.5 27
q98 0 150 -53.5t52 -151.5zM769 512q0 26 -7 49.5t-22 41.5t-37 28.5t-52 10.5t-55.5 -15.5t-45.5 -38t-35.5 -48t-27.5 -46.5q-11 19 -26 44.5t-34 48.5t-43 39t-52 16q-26 0 -49 -7t-40 -22.5t-27.5 -39.5t-10.5 -57q0 -69 29 -133.5t72 -125t92 -116.5t90 -106
q28 31 59.5 67.5t62.5 76.5t60 82.5t51 85.5t35 84.5t13 80.5z" />
    <glyph glyph-name="cid226" unicode="&#x2663;" horiz-adv-x="980" 
d="M629 -100h-282v41q17 26 29 68.5t17 88.5l-16 -19q-26 -29 -59.5 -41.5t-76.5 -12.5q-41 0 -74.5 16t-57.5 43t-37.5 63.5t-13.5 77.5q0 38 12.5 73t36 62t57.5 43t76 16q29 0 59.5 -4.5t58.5 -18.5q-13 16 -26.5 36.5t-25 44t-18.5 48t-7 48.5q0 42 17 75t45.5 55.5
t65.5 34.5t77 12q44 0 82 -13t66.5 -36t44.5 -55.5t16 -72.5q0 -38 -15.5 -80t-60.5 -96q27 14 55.5 18t56.5 4q43 0 77.5 -16t59 -43t37.5 -62t13 -73q0 -41 -14 -77.5t-38.5 -63.5t-59 -43t-75.5 -16q-42 0 -73 13t-60 41q-8 8 -10.5 11t-3.5 4t-1 1.5t-2 2.5
q6 -47 17 -84t31 -73v-41z" />
    <glyph glyph-name="cid221" unicode="&#x2664;" horiz-adv-x="980" 
d="M344 -156v42q20 36 31.5 73t16.5 75q-26 -14 -53 -23.5t-56 -9.5q-37 0 -66 16t-49.5 42t-31 60t-10.5 70q0 46 13.5 88.5t36 81.5t52.5 76.5t64 74.5q51 54 102 117.5t94 135.5q47 -80 96 -139t100 -114q35 -38 65 -75t52.5 -76t35 -80.5t12.5 -89.5q0 -36 -10.5 -70
t-30.5 -60t-49 -42t-66 -16q-26 0 -54 9.5t-56 23.5q6 -38 17.5 -75t32.5 -73v-42h-289zM532 -77q-12 43 -18.5 77t-8.5 69q-3 67 41 67q17 0 29 -7.5t23 -13.5q22 -13 45.5 -24.5t49.5 -11.5q24 0 38.5 11t22.5 28.5t11 37.5t3 38q0 33 -12.5 67t-32.5 68t-45.5 67
t-52.5 63q-34 40 -70.5 81t-67.5 84q-31 -46 -65 -84.5t-72 -81.5q-28 -32 -53.5 -64t-45 -65t-31.5 -67t-12 -68q0 -18 2.5 -38t11 -37.5t23 -28.5t38.5 -11q23 0 47 11.5t46 24.5q11 5 24.5 13t28.5 8q46 0 42 -67q-2 -35 -8.5 -69t-18.5 -77h88z" />
    <glyph glyph-name="cid224" unicode="&#x2665;" horiz-adv-x="980" 
d="M854 523q0 -52 -19.5 -108t-51 -111.5t-71.5 -109.5t-81 -102t-79 -88t-66 -67q-37 38 -78 82.5t-81.5 94t-77.5 102t-65 106t-45 106.5t-17 103q0 47 14.5 83.5t41 62t63 38.5t80.5 13q27 0 51.5 -8.5t45.5 -22t38.5 -30t29.5 -32.5q31 39 69.5 66t96.5 27
q98 0 150 -53.5t52 -151.5z" />
    <glyph glyph-name="cid225" unicode="&#x2667;" horiz-adv-x="980" 
d="M629 -100h-282v41q17 26 29 68.5t17 88.5l-16 -19q-26 -29 -59.5 -41.5t-76.5 -12.5q-41 0 -74.5 16t-57.5 43t-37.5 63.5t-13.5 77.5q0 38 12.5 73t36 62t57.5 43t76 16q29 0 59.5 -4.5t58.5 -18.5q-13 16 -26.5 36.5t-25 44t-18.5 48t-7 48.5q0 42 17 75t45.5 55.5
t65.5 34.5t77 12q44 0 82 -13t66.5 -36t44.5 -55.5t16 -72.5q0 -38 -15.5 -80t-60.5 -96q27 14 55.5 18t56.5 4q43 0 77.5 -16t59 -43t37.5 -62t13 -73q0 -41 -14 -77.5t-38.5 -63.5t-59 -43t-75.5 -16q-42 0 -73 13t-60 41q-8 8 -10.5 11t-3.5 4t-1 1.5t-2 2.5
q6 -47 17 -84t31 -73v-41zM547 -39q-5 15 -10.5 37.5t-10.5 46.5t-8.5 47.5t-3.5 40.5q0 22 7.5 37.5t19.5 18.5q11 2 25.5 -1t31.5 -20q29 -28 63.5 -50t68.5 -22q27 0 47.5 11t35 29t21.5 41t7 48q0 24 -8 47t-22.5 41t-35 28.5t-44.5 10.5q-23 0 -39.5 -2t-32 -6
t-31.5 -10t-37 -15q-10 -4 -22 -3t-22 6.5t-16.5 15.5t-6.5 24q0 22 12 39t27 31q24 25 41.5 61.5t17.5 79.5q0 24 -10 45t-28 36t-43 23.5t-55 8.5q-24 0 -47.5 -6.5t-43 -20t-31.5 -35t-12 -51.5q0 -19 7 -42t19 -46t27 -44t30 -36q16 -20 16 -41q0 -14 -6.5 -25.5
t-16.5 -17.5t-23 -6.5t-26 7.5q-36 17 -68 23.5t-70 6.5q-23 0 -43 -10.5t-34 -28.5t-22 -41t-8 -47q0 -25 7 -48t20.5 -41t33.5 -29t47 -11q37 0 71 21.5t65 50.5q17 15 29.5 19t23.5 2q15 -4 24.5 -21t6.5 -39q-2 -45 -11.5 -83.5t-23.5 -84.5h120z" />
    <glyph glyph-name="cid239" unicode="&#x2668;" horiz-adv-x="980" 
d="M567 303q0 -50 -19.5 -92.5t-42.5 -81.5q-11 -18 -17.5 -32t-12.5 -39h-28q-6 23 -11.5 40t-3.5 37q2 17 7 35t10 35q5 20 10.5 43.5t5.5 48.5t-6.5 50t-14.5 51q-9 26 -16 53.5t-7 61.5q0 35 10 63t24 57t22 59t10 65l35 -2q26 -51 23 -96q-1 -20 -4 -36t-8 -33
q-11 -47 -11 -72q0 -29 8.5 -56t16.5 -55q8 -25 14 -50t6 -54zM431 288q0 -34 -12.5 -64t-27.5 -62q-5 -9 -8.5 -18.5t-8.5 -20.5q-5 -14 -10 -26t-8 -32h-26q-10 20 -17 37t-6 37q2 20 5 36t9 36t9 40t3 46t-4 51.5t-10 51.5t-11 55t-5 63q0 26 9 50t20 47t19.5 46.5
t13.5 51.5h33q11 -31 9.5 -61.5t-7.5 -61.5q-4 -21 -7 -41t-3 -37q0 -26 7.5 -55.5t13.5 -54.5q8 -26 14 -54t6 -60zM684 288q0 -33 -12 -63t-29 -59q-5 -8 -11 -19.5t-11 -23.5q-5 -17 -9.5 -28.5t-7.5 -29.5h-25q-8 18 -11.5 31t-3.5 31q0 17 3 38t8 47q5 23 9.5 45.5
t4.5 45.5q0 31 -8 58t-14 58q-5 22 -10 46t-5 53q0 26 8.5 49t19.5 45q14 24 23 49t14 51h31q8 -17 10.5 -33t2.5 -32q0 -31 -8 -60q-6 -17 -7.5 -37t-1.5 -40q0 -26 5.5 -52.5t13.5 -52.5q6 -28 13.5 -56.5t7.5 -60.5zM878 137q0 -47 -20 -81t-53 -58t-75 -39t-85.5 -23
t-85 -11t-72.5 -3q-32 0 -73 3t-84.5 11t-85 22t-74 36.5t-52.5 54.5t-20 76q0 38 21 68.5t52 53t67.5 37.5t66.5 23l10 -37q-21 -8 -43 -22t-39.5 -30.5t-29 -35.5t-11.5 -37q0 -36 30 -56.5t73.5 -30.5t93 -12t89.5 -2q23 0 55 1.5t66.5 5.5t68.5 12t61 20t43.5 30
t16.5 42q0 18 -9.5 34.5t-23.5 30.5t-31 25t-32 17l18 35q28 -9 57.5 -22t54 -32t40 -45.5t15.5 -60.5z" />
    <glyph glyph-name="cid253" unicode="&#x2669;" horiz-adv-x="980" 
d="M613 743v-641q0 -40 -20.5 -76.5t-48.5 -67.5q-25 -26 -56 -39.5t-66 -10.5q-29 6 -45.5 27t-8.5 64q5 24 20 46t36.5 40t47 30.5t52.5 16.5q14 2 19 5t5 16v590h65z" />
    <glyph glyph-name="cid254" unicode="&#x266a;" horiz-adv-x="980" 
d="M468 93q0 -46 -19 -80t-50 -66v1q-28 -26 -58.5 -39.5t-62.5 -9.5q-31 6 -48 26.5t-11 63.5q6 24 21.5 46.5t37.5 40.5t48.5 30t53.5 16q12 2 17 4.5t5 16.5v590h49q26 -41 56 -73t73 -64q27 -21 56 -45.5t54.5 -52.5t43.5 -60.5t24 -69.5q4 -49 -14 -93.5t-48.5 -82.5
t-69 -69.5t-74.5 -54.5l-33 32q22 20 46.5 46.5t44.5 55t33 57.5t14 56q-4 21 -16 41t-28.5 38t-35 34t-36.5 28q-17 11 -36.5 26.5t-36.5 30.5v-420z" />
    <glyph glyph-name="cid255" unicode="&#x266c;" horiz-adv-x="980" 
d="M844 192q0 -28 -13.5 -61t-37.5 -61q-22 -28 -52.5 -45.5t-59.5 -17.5q-14 0 -28 4t-25.5 12.5t-19.5 20.5t-9 28q-2 34 15.5 63t43.5 50.5t55.5 34t53.5 14.5q8 1 13.5 2.5t5.5 7.5v217l-408 -90v-271q0 -40 -18 -77.5t-44 -66.5q-26 -26 -59 -40t-65 -9q-28 5 -46 26
t-11 62q6 22 22 44t38.5 40.5t48 32t50.5 18.5q11 2 17.5 5.5t6.5 14.5v508l526 112v-578zM786 624l-408 -94v-28l408 95v27z" />
    <glyph glyph-name="cid252" unicode="&#x266d;" horiz-adv-x="980" 
d="M661 308q10 -65 -20 -123t-82.5 -104.5t-118.5 -77.5t-129 -40v720h78v-288q32 25 70 37.5t80 3.5q49 -9 81.5 -43.5t40.5 -84.5zM532 290q1 28 -12.5 49t-41.5 23q-26 1 -49.5 -16.5t-39.5 -38.5v-253q66 43 102 103.5t41 132.5z" />
    <glyph glyph-name="cid101" unicode="&#x3000;" horiz-adv-x="900" 
 />
    <glyph glyph-name="cid101" unicode="&#x3164;" horiz-adv-x="900" 
 />
    <glyph glyph-name="cid102" unicode="&#x3001;" horiz-adv-x="378" 
d="M260 -175q-48 54 -107 107t-116 95l61 79q41 -20 74 -40.5t62.5 -43t57.5 -46.5t58 -52z" />
    <glyph glyph-name="cid103" unicode="&#x3002;" horiz-adv-x="333" 
d="M165 143q28 0 51.5 -9.5t41 -26t27.5 -39.5t10 -51t-10 -51.5t-27.5 -41t-41 -27t-51.5 -9.5t-51.5 9.5t-41 27t-27.5 41t-10 51.5t10 51t27.5 39.5t41 26t51.5 9.5zM164 67q-23 0 -35.5 -14.5t-12.5 -35.5t12.5 -36.5t35.5 -15.5t37 15.5t14 36.5t-14 35.5t-37 14.5z
" />
    <glyph glyph-name="cid108" unicode="&#x3003;" horiz-adv-x="902" 
d="M291 240h-101l115 254h175zM529 240h-101l115 254h175z" />
    <glyph glyph-name="cid120" unicode="&#x3008;" horiz-adv-x="560" 
d="M480 -158h-138l-262 507l262 507h138l-265 -507z" />
    <glyph glyph-name="cid121" unicode="&#x3009;" horiz-adv-x="560" 
d="M345 349l-265 507h138l262 -507l-262 -507h-138z" />
    <glyph glyph-name="cid122" unicode="&#x300a;" horiz-adv-x="780" 
d="M480 -159h-138l-262 507l262 507h138l-265 -507zM700 -159h-138l-262 507l262 507h138l-265 -507z" />
    <glyph glyph-name="cid123" unicode="&#x300b;" horiz-adv-x="780" 
d="M345 348l-265 507h138l262 -507l-262 -507h-138zM565 348l-265 507h138l262 -507l-262 -507h-138z" />
    <glyph glyph-name="cid124" unicode="&#x300c;" horiz-adv-x="440" 
d="M102 465v419h293v-114h-161v-305h-132z" />
    <glyph glyph-name="cid125" unicode="&#x300d;" horiz-adv-x="440" 
d="M338 205v-419h-293v112h163v307h130z" />
    <glyph glyph-name="cid126" unicode="&#x300e;" horiz-adv-x="550" 
d="M469 934v-169h-157v-280h-186v449h343zM246 553v272h146v47h-199v-319h53z" />
    <glyph glyph-name="cid127" unicode="&#x300f;" horiz-adv-x="550" 
d="M76 -248v169h157v280h186v-449h-343zM299 133v-272h-146v-47h199v319h-53z" />
    <glyph glyph-name="cid128" unicode="&#x3010;" horiz-adv-x="550" 
d="M118 856h382q-53 -39 -97.5 -97t-76.5 -126t-50 -141t-18 -143t17.5 -143t49 -141t75.5 -126t96 -97h-378v1014z" />
    <glyph glyph-name="cid129" unicode="&#x3011;" horiz-adv-x="550" 
d="M432 -162h-378q52 39 96 97t75.5 126t49 141t17.5 143t-18 143t-50 141t-76.5 126t-97.5 97h382v-1014z" />
    <glyph glyph-name="cid175" unicode="&#x3013;" horiz-adv-x="950" 
d="M241 514h468v-108h-468v108zM241 270h468v-108h-468v108z" />
    <glyph glyph-name="cid118" unicode="&#x3014;" horiz-adv-x="500" 
d="M339 878l63 -103l-185 -131v-592l185 -131l-63 -103l-244 175v710z" />
    <glyph glyph-name="cid119" unicode="&#x3015;" horiz-adv-x="500" 
d="M405 704v-710l-244 -175l-63 103l185 131v592l-185 131l63 103z" />
    <glyph glyph-name="cid113" unicode="&#x301c;" horiz-adv-x="1000" 
d="M605 258q-39 0 -66.5 11.5t-51.5 26.5q-19 12 -41 25t-49 13q-30 0 -50 -16t-40 -61l-112 54q16 43 38 71t47.5 44.5t53 23.5t55.5 7q42 0 69.5 -12t52.5 -27q19 -11 40 -23t47 -12q30 0 51 16t41 61l109 -54q-17 -42 -40 -70t-49 -45.5t-53 -25t-52 -7.5z" />
    <glyph glyph-name="cid113" unicode="&#xff5e;" horiz-adv-x="1000" 
d="M605 258q-39 0 -66.5 11.5t-51.5 26.5q-19 12 -41 25t-49 13q-30 0 -50 -16t-40 -61l-112 54q16 43 38 71t47.5 44.5t53 23.5t55.5 7q42 0 69.5 -12t52.5 -27q19 -11 40 -23t47 -12q30 0 51 16t41 61l109 -54q-17 -42 -40 -70t-49 -45.5t-53 -25t-52 -7.5z" />
    <glyph glyph-name="cid851" unicode="&#x3041;" horiz-adv-x="1000" 
d="M659 406q17 -6 33 -13t33 -14l-16 -44q35 -18 60 -41.5t41.5 -49.5t24.5 -53.5t9 -53.5q1 -39 -16.5 -78.5t-53.5 -72t-90 -54.5t-126 -26v104q87 10 129 45.5t43 81.5q1 26 -16 51t-43 45q-34 -64 -76.5 -122t-102.5 -99q2 -19 5 -38.5t8 -40.5l-126 -27q-3 17 -5 31
t-4 29q-26 -6 -45.5 -7.5t-31.5 -0.5q-60 2 -97.5 27t-39.5 79q-1 40 16 79t46 74.5t67 65t79 50.5v69h-190v101h190v128h120v-128h175v-97zM607 402h-123v-33q8 1 22.5 2t31 1.5t33 0.5t27.5 -1zM484 155q23 23 41.5 52.5t32.5 59.5q-26 0 -42.5 -1t-31.5 -4v-107zM364 215
q-40 -29 -64.5 -59.5t-26.5 -56.5q-1 -19 11 -24t29 -5q13 0 27 2t24 4v139z" />
    <glyph glyph-name="cid852" unicode="&#x3042;" horiz-adv-x="1000" 
d="M556 29q98 8 153 49.5t60 102.5q2 40 -20.5 82t-65.5 70q-17 -36 -37.5 -74t-46 -75t-56.5 -70.5t-70 -60.5q2 -11 9 -29.5t15 -37.5l-116 -42q-10 24 -15 34t-7 18q-29 -8 -62 -13t-61 -3q-26 1 -50 9.5t-42.5 24.5t-30 40t-12.5 56q-2 51 17 99t52.5 90t77 77t91.5 61
v95h-236v111h236v152h129v-152h264v-111h-69l81 -31l-19 -56q87 -45 131 -113.5t42 -150.5q-1 -47 -24 -93t-66.5 -83.5t-106.5 -63t-145 -31.5v119zM601 474q5 14 8.5 28t8.5 30h-150v-55q37 3 69 2.5t64 -5.5zM468 206q32 38 55.5 81.5t39.5 79.5q-24 4 -48.5 2.5
t-46.5 -6.5v-157zM339 303q-24 -18 -45 -39t-36 -42.5t-24 -42t-9 -38.5q0 -24 11 -35t29 -12q16 -1 35 2.5t39 11.5v195z" />
    <glyph glyph-name="cid853" unicode="&#x3043;" horiz-adv-x="1000" 
d="M523 75q-40 -60 -82 -90t-95 -30q-42 0 -72.5 17.5t-52.5 46t-35 65t-21 74t-10.5 72.5t-2.5 62q0 50 7.5 109.5t27.5 137.5q29 -12 55 -23.5t52 -19.5q-15 -54 -20 -99t-7 -94q-1 -42 2.5 -86t13.5 -79.5t27 -57.5t44 -20q13 1 26 10.5t26 24.5t24.5 33.5t22.5 37.5z
M742 106q-28 78 -72 151t-102 139l85 50q33 -24 63 -58t54.5 -73t44 -81t33.5 -82z" />
    <glyph glyph-name="cid854" unicode="&#x3044;" horiz-adv-x="1000" 
d="M551 144q-51 -73 -100 -109.5t-107 -39.5q-49 -2 -87.5 17t-68 51t-50.5 74.5t-34 88t-18.5 91t-4.5 83.5q3 63 17.5 135.5t37.5 150.5l123 -61q-23 -62 -34 -122.5t-11 -109.5q0 -48 8.5 -97.5t24.5 -89.5t39.5 -65t53.5 -23q15 0 32 13t34.5 33t34 44t29.5 45zM796 171
q-32 91 -86 177.5t-127 161.5l97 67q38 -32 75.5 -74t69.5 -89t56.5 -96.5t37.5 -97.5z" />
    <glyph glyph-name="cid855" unicode="&#x3045;" horiz-adv-x="1000" 
d="M611 497q-47 36 -107.5 58.5t-132.5 33.5l74 93q58 -2 118 -27t112 -60zM313 3q57 19 109.5 46.5t93.5 61t68 72t33 79.5q5 32 -4.5 54.5t-27.5 32.5q-29 11 -61.5 6.5t-58.5 -14.5q-46 -14 -85 -27.5t-79 -30.5l-44 99l178 68q51 17 100.5 21t97.5 -12q24 -10 45.5 -30
t37 -46.5t23 -58.5t2.5 -67q-10 -73 -48 -130.5t-90.5 -101t-112 -73.5t-112.5 -47z" />
    <glyph glyph-name="cid856" unicode="&#x3046;" horiz-adv-x="1000" 
d="M647 597q-32 27 -64 46.5t-69 34.5t-79 25t-93 18l91 93q72 -6 144.5 -34.5t141.5 -79.5zM339 1q55 17 111 47t101.5 72.5t74.5 97.5t31 122q0 16 -3.5 33.5t-9 32t-13 25t-15.5 13.5q-20 8 -42 8t-44.5 -5.5t-44 -13t-39.5 -14.5q-34 -13 -70 -31t-89 -45l-68 101
q65 35 109.5 54t82.5 32q63 23 125.5 34.5t122.5 -4.5q33 -11 56 -32t37.5 -48.5t21.5 -61t7 -69.5q0 -100 -38.5 -178t-98 -135t-132 -93.5t-141.5 -52.5z" />
    <glyph glyph-name="cid857" unicode="&#x3047;" horiz-adv-x="1000" 
d="M646 515h-334v99h334v-99zM819 -29q-50 -8 -97.5 -12.5t-76.5 -4.5q-26 0 -49.5 2t-43.5 8q-24 9 -39 23.5t-22.5 32t-9 36t0.5 36.5q1 10 -1.5 21t-9 20t-16 14t-21.5 2l-175 -206l-78 69l295 346l-248 -44l-34 101l423 61l56 -57l-157 -185q38 -14 58 -47.5t19 -70.5
q0 -12 0.5 -24t5.5 -21.5t16 -15.5t32 -6q10 0 29 1.5t43 5t50.5 8.5t49.5 12v-105z" />
    <glyph glyph-name="cid858" unicode="&#x3048;" horiz-adv-x="1000" 
d="M686 650h-427v109h427v-109zM905 -35q-57 -11 -112 -15.5t-98 -4.5q-48 0 -88 8t-68.5 28t-44 53t-12.5 84q0 12 1.5 25.5t0 25.5t-8 20.5t-21.5 11.5q-32 -31 -66.5 -66t-70 -70t-70.5 -69.5t-67 -64.5l-85 87l445 447l-361 -47l-34 115l535 56l64 -82l-208 -208
q48 -23 63 -59.5t12 -82.5q-3 -49 14 -74.5t68 -26.5q45 0 102.5 11t109.5 24v-126z" />
    <glyph glyph-name="cid859" unicode="&#x3049;" horiz-adv-x="1000" 
d="M553 53q20 -3 33.5 -5.5t23.5 -2.5q21 0 37 8.5t27.5 22.5t17 33t5.5 39q0 31 -8.5 52t-23.5 33.5t-35 18.5t-42 7q-31 0 -69.5 -7t-79.5 -20v-277q-7 -1 -13 -1h-12q-11 -1 -23.5 -1h-20.5q-108 0 -162 38.5t-56 100.5q-3 113 171 199v106h-152v100h152v127h116v-127
h135v-100h-135v-62q52 17 87.5 20t63.5 3q51 -1 93.5 -15.5t72.5 -42t46.5 -68t15.5 -93.5q0 -44 -16 -81t-44.5 -63.5t-66.5 -40.5t-81 -11q-17 1 -39.5 4t-55.5 11zM785 349q-45 51 -95.5 83t-103.5 46q3 6 9.5 16.5t14.5 22.5l15 22.5t12 15.5q69 -12 122.5 -43t89.5 -64
zM323 173q-57 -34 -57 -74q1 -21 16 -33t41 -15v122z" />
    <glyph glyph-name="cid860" unicode="&#x304a;" horiz-adv-x="1000" 
d="M563 82q34 -17 50 -21t24 -4q24 0 44.5 8.5t36.5 25t25 41.5t9 57t-12 58.5t-31.5 46t-46 31.5t-54.5 15q-17 2 -41 -0.5t-51.5 -7.5t-56.5 -13t-57 -17v-355q-23 0 -48 -0.5t-36 -0.5q-63 0 -108 16.5t-74.5 42t-45 56.5t-19.5 60q-1 40 13.5 77.5t41.5 70.5t65.5 60
t85.5 46v116h-207v112h207v184h125v-184h188v-112h-188v-64q55 17 102 24t84 7q53 0 106 -17t95 -51t67 -84t23 -117q-1 -50 -16 -95t-45 -79t-75.5 -54t-106.5 -20q-20 0 -48.5 6t-68.5 17zM860 430q-52 62 -120 105.5t-140 60.5l52 90q49 -5 91.5 -19.5t78 -35t62.5 -45
t45 -49.5zM277 244q-35 -25 -56.5 -53.5t-20.5 -51.5q2 -26 22 -48t55 -30v183z" />
    <glyph glyph-name="cid861" unicode="&#x304b;" horiz-adv-x="1000" 
d="M157 -49l-116 41l163 417q-34 -4 -69 -8.5t-70 -7.5v107l181 23q21 57 44 113.5t44 111.5l122 -43l-73 -168q34 5 63.5 7t52.5 4q36 3 64.5 -7t48.5 -29t30.5 -46t10.5 -58q0 -27 -3 -62t-8.5 -74.5t-14 -81.5t-19.5 -82q-12 -38 -32 -72.5t-53 -61.5t-81.5 -45
t-116.5 -23v115q130 21 156 114q10 35 18 75t14 78.5t9 72t3 55.5q0 13 -6.5 19t-14.5 5l-163 -15zM847 213q-35 100 -87.5 183.5t-138.5 155.5l106 48q53 -32 92 -72t66.5 -83t44.5 -84t28 -74z" />
    </font>
</defs>
</svg>
